<svg viewBox="0 0 330 200" xmlns="http://www.w3.org/2000/svg"><g><g><g><g><g><line x1="41.0620002746582" y1="176.95999908447266" x2="36.0620002746582" y2="176.95999908447266" style="visibility: inherit;" fill="rgb(0, 0, 0)" stroke="rgb(204, 204, 204)" stroke-width="1px"></line><line x1="41.0620002746582" y1="162.21333249409994" x2="36.0620002746582" y2="162.21333249409994" style="visibility: inherit;" fill="rgb(0, 0, 0)" stroke="rgb(204, 204, 204)" stroke-width="1px"></line><line x1="41.0620002746582" y1="147.4666659037272" x2="36.0620002746582" y2="147.4666659037272" style="visibility: inherit;" fill="rgb(0, 0, 0)" stroke="rgb(204, 204, 204)" stroke-width="1px"></line><line x1="41.0620002746582" y1="132.7199993133545" x2="36.0620002746582" y2="132.7199993133545" style="visibility: inherit;" fill="rgb(0, 0, 0)" stroke="rgb(204, 204, 204)" stroke-width="1px"></line><line x1="41.0620002746582" y1="117.97333272298178" x2="36.0620002746582" y2="117.97333272298178" style="visibility: inherit;" fill="rgb(0, 0, 0)" stroke="rgb(204, 204, 204)" stroke-width="1px"></line><line x1="41.0620002746582" y1="103.22666613260904" x2="36.0620002746582" y2="103.22666613260904" style="visibility: inherit;" fill="rgb(0, 0, 0)" stroke="rgb(204, 204, 204)" stroke-width="1px"></line><line x1="41.0620002746582" y1="88.47999954223633" x2="36.0620002746582" y2="88.47999954223633" style="visibility: inherit;" fill="rgb(0, 0, 0)" stroke="rgb(204, 204, 204)" stroke-width="1px"></line><line x1="41.0620002746582" y1="73.7333329518636" x2="36.0620002746582" y2="73.7333329518636" style="visibility: inherit;" fill="rgb(0, 0, 0)" stroke="rgb(204, 204, 204)" stroke-width="1px"></line><line x1="41.0620002746582" y1="58.98666636149089" x2="36.0620002746582" y2="58.98666636149089" style="visibility: inherit;" fill="rgb(0, 0, 0)" stroke="rgb(204, 204, 204)" stroke-width="1px"></line><line x1="41.0620002746582" y1="44.239999771118164" x2="36.0620002746582" y2="44.239999771118164" style="visibility: inherit;" fill="rgb(0, 0, 0)" stroke="rgb(204, 204, 204)" stroke-width="1px"></line><line x1="41.0620002746582" y1="29.493333180745424" x2="36.0620002746582" y2="29.493333180745424" style="visibility: inherit;" fill="rgb(0, 0, 0)" stroke="rgb(204, 204, 204)" stroke-width="1px"></line><line x1="41.0620002746582" y1="14.74666659037274" x2="36.0620002746582" y2="14.74666659037274" style="visibility: inherit;" fill="rgb(0, 0, 0)" stroke="rgb(204, 204, 204)" stroke-width="1px"></line><line x1="41.0620002746582" y1="0" x2="36.0620002746582" y2="0" style="visibility: inherit;" fill="rgb(0, 0, 0)" stroke="rgb(204, 204, 204)" stroke-width="1px"></line></g><g transform="translate(31.062000274658203, 0)"><text style="text-anchor: end; visibility: hidden; font-family: &quot;Helvetica Neue&quot;, sans-serif; font-size: 12px; font-weight: 200;" x="0" y="176.95999908447266" dx="0em" dy="0.3em" fill="rgb(33, 33, 33)" stroke="none" stroke-width="1px">-50</text><text style="text-anchor: end; visibility: inherit; font-family: &quot;Helvetica Neue&quot;, sans-serif; font-size: 12px; font-weight: 200;" x="0" y="162.21333249409994" dx="0em" dy="0.3em" fill="rgb(33, 33, 33)" stroke="none" stroke-width="1px">0</text><text style="text-anchor: end; visibility: hidden; font-family: &quot;Helvetica Neue&quot;, sans-serif; font-size: 12px; font-weight: 200;" x="0" y="147.4666659037272" dx="0em" dy="0.3em" fill="rgb(33, 33, 33)" stroke="none" stroke-width="1px">50</text><text style="text-anchor: end; visibility: inherit; font-family: &quot;Helvetica Neue&quot;, sans-serif; font-size: 12px; font-weight: 200;" x="0" y="132.7199993133545" dx="0em" dy="0.3em" fill="rgb(33, 33, 33)" stroke="none" stroke-width="1px">100</text><text style="text-anchor: end; visibility: hidden; font-family: &quot;Helvetica Neue&quot;, sans-serif; font-size: 12px; font-weight: 200;" x="0" y="117.97333272298178" dx="0em" dy="0.3em" fill="rgb(33, 33, 33)" stroke="none" stroke-width="1px">150</text><text style="text-anchor: end; visibility: inherit; font-family: &quot;Helvetica Neue&quot;, sans-serif; font-size: 12px; font-weight: 200;" x="0" y="103.22666613260904" dx="0em" dy="0.3em" fill="rgb(33, 33, 33)" stroke="none" stroke-width="1px">200</text><text style="text-anchor: end; visibility: hidden; font-family: &quot;Helvetica Neue&quot;, sans-serif; font-size: 12px; font-weight: 200;" x="0" y="88.47999954223633" dx="0em" dy="0.3em" fill="rgb(33, 33, 33)" stroke="none" stroke-width="1px">250</text><text style="text-anchor: end; visibility: inherit; font-family: &quot;Helvetica Neue&quot;, sans-serif; font-size: 12px; font-weight: 200;" x="0" y="73.7333329518636" dx="0em" dy="0.3em" fill="rgb(33, 33, 33)" stroke="none" stroke-width="1px">300</text><text style="text-anchor: end; visibility: hidden; font-family: &quot;Helvetica Neue&quot;, sans-serif; font-size: 12px; font-weight: 200;" x="0" y="58.98666636149089" dx="0em" dy="0.3em" fill="rgb(33, 33, 33)" stroke="none" stroke-width="1px">350</text><text style="text-anchor: end; visibility: inherit; font-family: &quot;Helvetica Neue&quot;, sans-serif; font-size: 12px; font-weight: 200;" x="0" y="44.239999771118164" dx="0em" dy="0.3em" fill="rgb(33, 33, 33)" stroke="none" stroke-width="1px">400</text><text style="text-anchor: end; visibility: hidden; font-family: &quot;Helvetica Neue&quot;, sans-serif; font-size: 12px; font-weight: 200;" x="0" y="29.493333180745424" dx="0em" dy="0.3em" fill="rgb(33, 33, 33)" stroke="none" stroke-width="1px">450</text><text style="text-anchor: end; visibility: inherit; font-family: &quot;Helvetica Neue&quot;, sans-serif; font-size: 12px; font-weight: 200;" x="0" y="14.74666659037274" dx="0em" dy="0.3em" fill="rgb(33, 33, 33)" stroke="none" stroke-width="1px">500</text><text style="text-anchor: end; visibility: hidden; font-family: &quot;Helvetica Neue&quot;, sans-serif; font-size: 12px; font-weight: 200;" x="0" y="0" dx="0em" dy="0.3em" fill="rgb(33, 33, 33)" stroke="none" stroke-width="1px">550</text></g><line x1="41.0620002746582" y1="0" x2="41.0620002746582" y2="176.95999908447266" fill="rgb(0, 0, 0)" stroke="rgb(204, 204, 204)" stroke-width="1px"></line></g></g><g transform="translate(41, 0)" clip-path="url(#clip_0)"><clipPath id="clip_0"><rect width="288" height="176"></rect></clipPath><g><g><g><line x1="0" y1="0" x2="0" y2="176.95999908447266" fill="rgb(0, 0, 0)" stroke="rgb(66, 66, 66)" stroke-width="1px" opacity="0.25"></line><line x1="24.07816664377848" y1="0" x2="24.07816664377848" y2="176.95999908447266" fill="rgb(0, 0, 0)" stroke="rgb(66, 66, 66)" stroke-width="1px" opacity="0.25"></line><line x1="48.15633328755696" y1="0" x2="48.15633328755696" y2="176.95999908447266" fill="rgb(0, 0, 0)" stroke="rgb(66, 66, 66)" stroke-width="1px" opacity="0.25"></line><line x1="72.23449993133545" y1="0" x2="72.23449993133545" y2="176.95999908447266" fill="rgb(0, 0, 0)" stroke="rgb(66, 66, 66)" stroke-width="1px" opacity="0.25"></line><line x1="96.31266657511392" y1="0" x2="96.31266657511392" y2="176.95999908447266" fill="rgb(0, 0, 0)" stroke="rgb(66, 66, 66)" stroke-width="1px" opacity="0.25"></line><line x1="120.39083321889242" y1="0" x2="120.39083321889242" y2="176.95999908447266" fill="rgb(0, 0, 0)" stroke="rgb(66, 66, 66)" stroke-width="1px" opacity="0.25"></line><line x1="144.4689998626709" y1="0" x2="144.4689998626709" y2="176.95999908447266" fill="rgb(0, 0, 0)" stroke="rgb(66, 66, 66)" stroke-width="1px" opacity="0.25"></line><line x1="168.5471665064494" y1="0" x2="168.5471665064494" y2="176.95999908447266" fill="rgb(0, 0, 0)" stroke="rgb(66, 66, 66)" stroke-width="1px" opacity="0.25"></line><line x1="192.62533315022785" y1="0" x2="192.62533315022785" y2="176.95999908447266" fill="rgb(0, 0, 0)" stroke="rgb(66, 66, 66)" stroke-width="1px" opacity="0.25"></line><line x1="216.70349979400635" y1="0" x2="216.70349979400635" y2="176.95999908447266" fill="rgb(0, 0, 0)" stroke="rgb(66, 66, 66)" stroke-width="1px" opacity="0.25"></line><line x1="240.78166643778485" y1="0" x2="240.78166643778485" y2="176.95999908447266" fill="rgb(0, 0, 0)" stroke="rgb(66, 66, 66)" stroke-width="1px" opacity="0.25"></line><line x1="264.8598330815633" y1="0" x2="264.8598330815633" y2="176.95999908447266" fill="rgb(0, 0, 0)" stroke="rgb(66, 66, 66)" stroke-width="1px" opacity="0.25"></line><line x1="288.9379997253418" y1="0" x2="288.9379997253418" y2="176.95999908447266" fill="rgb(0, 0, 0)" stroke="rgb(66, 66, 66)" stroke-width="1px" opacity="0.25"></line></g><g><line x1="0" y1="176.95999908447266" x2="288.9379997253418" y2="176.95999908447266" fill="rgb(0, 0, 0)" stroke="rgb(66, 66, 66)" stroke-width="1px" opacity="0.25"></line><line x1="0" y1="162.21333249409994" x2="288.9379997253418" y2="162.21333249409994" fill="rgb(0, 0, 0)" stroke="rgb(66, 66, 66)" stroke-width="1px" opacity="0.25"></line><line x1="0" y1="147.4666659037272" x2="288.9379997253418" y2="147.4666659037272" fill="rgb(0, 0, 0)" stroke="rgb(66, 66, 66)" stroke-width="1px" opacity="0.25"></line><line x1="0" y1="132.7199993133545" x2="288.9379997253418" y2="132.7199993133545" fill="rgb(0, 0, 0)" stroke="rgb(66, 66, 66)" stroke-width="1px" opacity="0.25"></line><line x1="0" y1="117.97333272298178" x2="288.9379997253418" y2="117.97333272298178" fill="rgb(0, 0, 0)" stroke="rgb(66, 66, 66)" stroke-width="1px" opacity="0.25"></line><line x1="0" y1="103.22666613260904" x2="288.9379997253418" y2="103.22666613260904" fill="rgb(0, 0, 0)" stroke="rgb(66, 66, 66)" stroke-width="1px" opacity="0.25"></line><line x1="0" y1="88.47999954223633" x2="288.9379997253418" y2="88.47999954223633" fill="rgb(0, 0, 0)" stroke="rgb(66, 66, 66)" stroke-width="1px" opacity="0.25"></line><line x1="0" y1="73.7333329518636" x2="288.9379997253418" y2="73.7333329518636" fill="rgb(0, 0, 0)" stroke="rgb(66, 66, 66)" stroke-width="1px" opacity="0.25"></line><line x1="0" y1="58.98666636149089" x2="288.9379997253418" y2="58.98666636149089" fill="rgb(0, 0, 0)" stroke="rgb(66, 66, 66)" stroke-width="1px" opacity="0.25"></line><line x1="0" y1="44.239999771118164" x2="288.9379997253418" y2="44.239999771118164" fill="rgb(0, 0, 0)" stroke="rgb(66, 66, 66)" stroke-width="1px" opacity="0.25"></line><line x1="0" y1="29.493333180745424" x2="288.9379997253418" y2="29.493333180745424" fill="rgb(0, 0, 0)" stroke="rgb(66, 66, 66)" stroke-width="1px" opacity="0.25"></line><line x1="0" y1="14.74666659037274" x2="288.9379997253418" y2="14.74666659037274" fill="rgb(0, 0, 0)" stroke="rgb(66, 66, 66)" stroke-width="1px" opacity="0.25"></line><line x1="0" y1="0" x2="288.9379997253418" y2="0" fill="rgb(0, 0, 0)" stroke="rgb(66, 66, 66)" stroke-width="1px" opacity="0.25"></line></g></g></g><g><g><line x1="0" y1="162.21333249409994" x2="288.9379997253418" y2="162.21333249409994" fill="rgb(0, 0, 0)" stroke="rgb(153, 153, 153)" stroke-width="1.5px"></line></g></g><g><g><line x1="24.07816664377848" y1="0" x2="24.07816664377848" y2="176.95999908447266" fill="rgb(0, 0, 0)" stroke="rgb(153, 153, 153)" stroke-width="1.5px"></line></g></g><g><g><g><g><g><path style="fill: none;" stroke="rgb(0, 153, 136)" stroke-width="2px" d="M24.07816664377848,144.64125692379733L25.282074975967404,146.26896926941868L26.485983308156328,146.8453476505667L27.68989164034526,141.03371111840445L28.893799972534183,132.45670299232512L30.097708304723106,128.41231707743262L31.30161663691203,130.39961138500712L32.505524969100954,133.11639352193836L33.70943330128988,135.06614042518333L34.9133416334788,132.4765294150459L36.117249965667725,131.1723681907499L37.321158297856655,128.91762880507756L38.52506663004557,130.73979199243803L39.7289749622345,131.87575105081834L40.93288329442342,132.90769655850843L42.13679162661235,125.84719473470257L43.34069995880127,128.1505095921659L44.5446082909902,130.33894659798753L45.748516623179114,128.8958170046164L46.952424955368045,127.37189287059279L48.15633328755696,124.22606096442473L49.36024161974589,125.86296967965309L50.56414995193481,128.1508393679567L51.76805828412374,127.44734924298609L52.971966616312656,125.13943444476988L54.17587494850159,115.2457514441232L55.37978328069052,112.71369912927628L56.583691612879434,108.93513326114008L57.787599945068365,107.91050389936197L58.99150827725728,105.95721542965909L60.19541660944621,104.64208100779321L61.39932494163513,103.20191527410802L62.60323327382406,105.82031899718453L63.807141606012976,106.87824461998797L65.01104993820191,106.97372737804251L66.21495827039082,108.88200988736772L67.41886660257975,110.85898063001439L68.62277493476867,110.37787122627087L69.8266832669576,111.40046312681446L71.03059159914652,111.68676251596298L72.23449993133545,109.74119804035398L73.43840826352437,103.06807118882845L74.64231659571331,105.95941842811432L75.84622492790223,106.26212556582239L77.05013326009114,103.46726957759145L78.25404159228006,97.6357136408113L79.457949924469,100.66641114396462L80.66185825665792,98.51681881590257L81.86576658884684,96.55632022485364L83.06967492103576,72.5391159297051L84.2735832532247,54.99402255886652L85.47749158541362,43.03990057170799L86.68139991760253,24.463360773812838L87.88530824979145,-0.8911689018666493L101.12829990386962,-0.9505162820883584L102.33220823605856,6.3582908827103495L103.53611656824748,13.222943633724299L104.7400249004364,19.444968333204827L105.94393323262531,25.35070676123908L107.14784156481426,30.48479470356989L108.35174989700317,35.513355952552416L109.55565822919209,39.84052044202258L110.75956656138104,45.50169809981878L111.96347489356995,50.885317292268184L113.16738322575887,55.735886786203366L114.37129155794779,59.401626304230646L115.57519989013673,62.13352076596156L116.77910822232565,66.03453332488833L117.98301655451456,69.63385654976588L119.18692488670348,71.93366231081244L120.39083321889242,75.14551833662885L121.59474155108134,78.34396426987502L122.79864988327026,81.40452674737006L124.00255821545917,84.44837938956721L125.20646654764812,86.766154772536L126.41037487983704,89.97073622100527L127.61428321202595,91.80072333670448L128.8181915442149,94.37979216979824L130.02209987640381,96.80851050284218L131.22600820859273,98.30320001964071L132.42991654078165,100.6666391510882L133.6338248729706,102.20506313873992L134.8377332051595,102.99395370169161L136.04164153734843,105.66693611455345L137.24554986953734,108.03209129348866L138.4494582017263,110.14495367214629L139.6533665339152,112.31366328260957L140.85727486610412,113.21876657557016L142.06118319829304,114.73189008709059L143.26509153048198,116.31873554125482L144.4689998626709,118.02275357875277L145.67290819485982,119.56650050166569L146.87681652704873,120.66132621759509L148.08072485923765,121.87337553027527L149.28463319142662,123.22131933021079L150.48854152361554,124.59639415143344L151.69244985580445,126.28971037035383L152.89635818799337,127.30980096658755L154.1002665201823,128.0898856542243L155.3041748523712,128.84115959489907L156.50808318456012,127.16044773957984L157.71199151674904,128.2771138609262L158.915899848938,126.84419131322365L160.11980818112693,127.82601604489886L161.32371651331584,127.775129289468L162.52762484550476,127.99187608482708L163.73153317769368,128.77725524912202L164.9354415098826,129.800434509742L166.1393498420715,130.76373396127696L167.34325817426048,131.5488162656437L168.5471665064494,132.55672078654518L169.75107483863832,133.69146499480215L170.95498317082723,134.7067540365881L172.15889150301615,135.397601790836L173.36279983520507,136.31550028141956L174.56670816739398,136.76321463507708L175.7706164995829,137.45734762233067L176.97452483177187,137.9764908962407L178.1784331639608,138.61314290962676L179.3823414961497,139.29654779006844L180.58624982833862,139.74545838506242L181.79015816052754,140.44502648839932L182.99406649271646,141.22117484471576L184.19797482490537,141.81527380397367L185.40188315709435,142.45877416930327L186.60579148928326,142.3322063034581L187.80969982147218,142.5818102216703L189.0136081536611,142.9625236887278L190.21751648585,143.53417450531433L191.42142481803893,144.0933362042714L192.62533315022785,144.8445662722129L193.82924148241676,145.46180224482612L195.03314981460574,145.7388835598556L196.23705814679465,145.92245948435092L197.44096647898357,146.00004992047437L198.64487481117249,146.2353259990492L199.8487831433614,146.29386793368167L201.05269147555032,145.91681826535637L202.25659980773924,146.05273452125942L203.4605081399282,146.37361278539908L204.66441647211713,146.62442893586967L205.86832480430604,146.85019241296595L207.07223313649496,147.38784597414624L208.27614146868387,147.74659190151226L209.4800498008728,147.94485044011395L210.6839581330617,147.57429348958829L211.88786646525062,147.72700435225872L213.0917747974396,147.8592143254132L214.29568312962851,147.9938130435641L215.49959146181743,148.3334826604769L216.70349979400635,148.63586328007335L217.90740812619526,148.79149926717892L219.11131645838418,148.9457452560896L220.3152247905731,149.04473476544527L221.51913312276207,148.42046492971687L222.723041454951,148.78788055180104L223.9269497871399,148.86344279795205L225.13085811932882,149.12725986003255L226.33476645151774,149.36724916875283L227.53867478370665,149.49727787605605L228.74258311589557,148.60758274634634L229.9464914480845,148.044414411629L231.15039978027346,147.7891133507723L232.35430811246238,147.12133234643574L233.5582164446513,147.01110214926092L234.7621247768402,146.53882848527311L235.96603310902913,145.56598096855134L237.16994144121804,144.64832590128947L238.37384977340696,143.5848821619448L239.57775810559593,142.7691945531072L240.78166643778485,142.06936271343562L241.98557476997377,141.68322890281934L243.18948310216268,141.45510256993333L244.3933914343516,141.08372756739706L245.59729976654052,140.77292408168034L246.80120809872943,140.61726417706637L248.00511643091835,139.75267612651194L249.20902476310732,139.9913207921429L250.41293309529624,140.10343438979118L251.61684142748516,139.85308272915404L252.82074975967407,139.05477907598578L254.024658091863,136.8916756856906L255.2285664240519,135.45645556758717L256.4324747562408,135.26418357296845L257.6363830884298,133.85956424239455L258.8402914206187,133.4261822730839L260.04419975280763,132.7476444125793L261.24810808499655,132.61397595393368L262.45201641718546,133.08041833233528" fill="none"></path></g><g><path style="fill: none;" stroke="rgb(238, 51, 119)" stroke-width="2px" d="M24.07816664377848,141.29679165179374L25.282074975967404,88.76317393516202L26.485983308156328,-1202.4525397347466L43.34069995880127,-1.925964810107672L44.5446082909902,11.196806893996609L45.748516623179114,23.064987850217477L46.952424955368045,33.81668405135318L48.15633328755696,43.46405753304876L49.36024161974589,50.71631754723832L50.56414995193481,58.582758221817926L51.76805828412374,65.60768238789943L52.971966616312656,71.95895899970813L54.17587494850159,78.10756175140736L55.37978328069052,83.4111994525495L56.583691612879434,88.59554527869211L57.787599945068365,93.00563073700397L58.99150827725728,97.28783479818993L60.19541660944621,100.95676193889072L61.39932494163513,104.52097204021645L62.60323327382406,107.80593301132348L63.807141606012976,110.45564872789714L65.01104993820191,112.66932987736827L66.21495827039082,115.58363021524465L67.41886660257975,117.8678144540753L68.62277493476867,120.05207615792074L69.8266832669576,122.42990356677225L71.03059159914652,123.98630801469034L72.23449993133545,125.92969789038906L73.43840826352437,127.87351695364515L74.64231659571331,129.77255856468352L75.84622492790223,131.37914009322324L77.05013326009114,133.0365899914148L78.25404159228006,134.53643375994918L79.457949924469,135.45587837619976L80.66185825665792,136.86659137159356L81.86576658884684,138.0473682839773L83.06967492103576,139.33573305883073L84.2735832532247,140.39001192304744L85.47749158541362,141.48483215610506L86.68139991760253,142.18554177383072L87.88530824979145,141.89948288139763L89.0892165819804,142.78543832773704L90.29312491416931,143.637485778593L91.49703324635823,144.45950884128575L92.70094157854717,145.3414139082825L93.90484991073609,146.1391505287453L95.108758242925,146.66344720528218L96.31266657511392,146.91228541408705L97.51657490730287,147.4915238092969L98.72048323949178,147.8761000820612L99.9243915716807,148.1454064491046L101.12829990386962,148.5020196354785L102.33220823605856,149.1474149996186L103.53611656824748,149.3595455137072L104.7400249004364,149.87664636346483L105.94393323262531,150.2133417778633L107.14784156481426,150.52229112849463L108.35174989700317,151.00674789911258L109.55565822919209,151.3150886176566L110.75956656138104,151.73285411734352L111.96347489356995,152.039150503224L113.16738322575887,152.41523672455364L114.37129155794779,152.84877680280522L115.57519989013673,153.1619503145959L116.77910822232565,153.52659835345193L117.98301655451456,153.50462317673743L119.18692488670348,153.88285025212832L120.39083321889242,154.0576710089662L121.59474155108134,154.30516671191282L122.79864988327026,154.5402458592179L124.00255821545917,154.77506539261356L125.20646654764812,155.04023604348245L126.41037487983704,155.33705272290973L127.61428321202595,155.24950775291524L128.8181915442149,155.4960646193703L130.02209987640381,155.71271549994566L131.22600820859273,155.8013201288411L132.42991654078165,156.0235681315349L133.6338248729706,156.15211873759824L134.8377332051595,156.28600296530186L136.04164153734843,156.38325070288988L137.24554986953734,156.57169421050466L138.4494582017263,156.73147385464353L139.6533665339152,156.91253161721286L140.85727486610412,157.05501908701666L142.06118319829304,157.12655782651495L143.26509153048198,157.29344398601157L144.4689998626709,157.47029299246847L145.67290819485982,157.30019791140356L146.87681652704873,157.43066969470377L148.08072485923765,157.5763787266465L149.28463319142662,156.55082334695675L150.48854152361554,156.26638522428263L151.69244985580445,156.2520000556084L152.89635818799337,156.24977840982007L154.1002665201823,156.47234632903394L155.3041748523712,156.70201114097236L156.50808318456012,156.88644782390733L157.71199151674904,156.93522160134222L158.915899848938,157.13338306477291L160.11980818112693,157.0314738377333L161.32371651331584,156.90701996470278L162.52762484550476,157.03446140832406L163.73153317769368,156.57605943717556L164.9354415098826,156.70323462547654L166.1393498420715,156.71633780877318L167.34325817426048,156.78664879321815L168.5471665064494,156.80198124919568L169.75107483863832,156.4696546030858L170.95498317082723,156.49362314921422L172.15889150301615,156.5587285879181L173.36279983520507,156.51461009955642L174.56670816739398,156.42712145634306L175.7706164995829,156.3145472167066L176.97452483177187,156.40417676981383L178.1784331639608,156.24039328643408L179.3823414961497,156.34619616693368L180.58624982833862,156.43926686631326L181.79015816052754,156.45327859786056L182.99406649271646,156.57119800703265L184.19797482490537,156.60364051512937L185.40188315709435,156.5380165551219L186.60579148928326,156.66922550769124L187.80969982147218,156.866064321341L189.0136081536611,157.06344871406597L190.21751648585,157.15944749800224L191.42142481803893,156.99721898173522L192.62533315022785,157.1983230436967L193.82924148241676,157.23100081995238L195.03314981460574,157.03828205650134L196.23705814679465,157.19187250292373L197.44096647898357,157.26339622528357L198.64487481117249,157.21416404361713L199.8487831433614,156.54522715152905L201.05269147555032,156.46298605568637L202.25659980773924,156.46604563108207L203.4605081399282,156.1289627970127L204.66441647211713,156.2471350204107L205.86832480430604,156.3440537829881L207.07223313649496,155.78383397534122L208.27614146868387,155.61516261619335L209.4800498008728,155.83279093059247L210.6839581330617,155.825356085483L211.88786646525062,155.71973307665482L213.0917747974396,155.87338510544657L214.29568312962851,154.92371206897948L215.49959146181743,154.50251881978107L216.70349979400635,154.2361101835266L217.90740812619526,154.16594753987582L219.11131645838418,154.23786469455507L220.3152247905731,154.20930986736883L221.51913312276207,154.2707441988897L222.723041454951,154.11290557585187L223.9269497871399,154.09404087852823L225.13085811932882,153.89309690562294L226.33476645151774,154.15371750546691L227.53867478370665,154.23171408043902L228.74258311589557,154.18040493470414L229.9464914480845,154.20144705581433L231.15039978027346,154.2027689693615L232.35430811246238,154.44544768165315L233.5582164446513,154.56154741479506L234.7621247768402,154.4552407631701L235.96603310902913,154.05757391053743L237.16994144121804,154.21120036463648L238.37384977340696,154.43423820089296L239.57775810559593,154.70192664512638L240.78166643778485,154.851347504601L241.98557476997377,154.97656126191265L243.18948310216268,155.0247393442906L244.3933914343516,154.44367082873245L245.59729976654052,154.62071292534242L246.80120809872943,154.34447824448412L248.00511643091835,154.4736172167122L249.20902476310732,154.1040609840962L250.41293309529624,154.14482952870725L251.61684142748516,153.98797821429145L252.82074975967407,153.72649508569629L254.024658091863,153.85681029984124L255.2285664240519,153.28167117256783L256.4324747562408,153.3838237412849L257.6363830884298,153.40610668286575L258.8402914206187,153.70478511004342L260.04419975280763,153.29868640766068L261.24810808499655,153.52595931512653L262.45201641718546,153.7090209917949" fill="none"></path></g><g><path style="fill: none;" stroke="rgb(51, 187, 238)" stroke-width="2px" d="M24.07816664377848,122.95400046251306L25.282074975967404,-94.52165065422463L33.70943330128988,-4.072370861295809L34.9133416334788,15.914290666789753L36.117249965667725,31.93135932252261L37.321158297856655,44.80289805903922L38.52506663004557,55.564526394180234L39.7289749622345,65.03267381113236L40.93288329442342,73.05040700081004L42.13679162661235,80.23399073892874L43.34069995880127,86.30565555905793L44.5446082909902,91.81537436774624L45.748516623179114,94.45080056957173L46.952424955368045,98.84062469355385L48.15633328755696,103.0932791617304L49.36024161974589,106.22169509571204L50.56414995193481,108.33448439874331L51.76805828412374,111.08090118984836L52.971966616312656,113.92025443226368L54.17587494850159,116.19142362701541L55.37978328069052,117.45078890687965L56.583691612879434,118.78470264594712L57.787599945068365,120.42314932695058L58.99150827725728,122.34482999388004L60.19541660944621,124.46198433375777L61.39932494163513,126.16532994895711L62.60323327382406,127.51512938524777L63.807141606012976,128.17426816741593L65.01104993820191,127.96229444793885L66.21495827039082,128.39246549756572L67.41886660257975,129.80159627046945L68.62277493476867,131.24360290301837L69.8266832669576,132.11856477520212L71.03059159914652,133.28354670667943L72.23449993133545,134.47308199484144L73.43840826352437,135.560958690385L74.64231659571331,135.8938802808605L75.84622492790223,136.4888266417304L77.05013326009114,137.66834063421476L78.25404159228006,138.7411087885473L79.457949924469,137.35575383970902L80.66185825665792,138.48439953691422L81.86576658884684,138.49833068319384L83.06967492103576,139.64962759801705L84.2735832532247,140.3745642828481L85.47749158541362,141.20965742363683L86.68139991760253,142.10407697261982L87.88530824979145,143.02226310761307L89.0892165819804,143.19110011898977L90.29312491416931,143.8146134175792L91.49703324635823,144.54637617537082L92.70094157854717,145.12367652281455L93.90484991073609,145.5987102576061L95.108758242925,145.88984914143074L96.31266657511392,146.1415341421176L97.51657490730287,146.1059779072735L98.72048323949178,146.1231752801731L99.9243915716807,146.68759218374896L101.12829990386962,147.31517801061278L102.33220823605856,147.11656459350402L103.53611656824748,147.10626842563246L104.7400249004364,147.75015084378302L105.94393323262531,147.8647834070257L107.14784156481426,148.17731396039864L108.35174989700317,148.52534278115456L109.55565822919209,149.01881200028072L110.75956656138104,149.48947233322212L111.96347489356995,149.60858964022688L113.16738322575887,150.09437895695382L114.37129155794779,150.66920158510584L115.57519989013673,150.36587870344985L116.77910822232565,150.52278279577507L117.98301655451456,149.20164263958776L119.18692488670348,149.8132058777674L120.39083321889242,150.23729135865074L121.59474155108134,150.51347386262717L122.79864988327026,151.0502261375898L124.00255821545917,151.30942859473313L125.20646654764812,151.76366492401405L126.41037487983704,150.99314551007038L127.61428321202595,151.40442300987957L128.8181915442149,151.89166041824276L130.02209987640381,152.20521269111703L131.22600820859273,152.6048090069659L132.42991654078165,152.98458765715702L133.6338248729706,153.32548926632404L134.8377332051595,153.73690181311466L136.04164153734843,153.78942247033837L137.24554986953734,153.4966347765014L138.4494582017263,153.80748459558424L139.6533665339152,153.7685589857391L140.85727486610412,154.083986768547L142.06118319829304,153.92553228305175L143.26509153048198,153.8949378614704L144.4689998626709,154.24210831875948L145.67290819485982,154.3645537421671L146.87681652704873,154.58996502711642L148.08072485923765,154.72274306340177L149.28463319142662,154.17785583956584L150.48854152361554,154.2706539925518L151.69244985580445,154.51061650406032L152.89635818799337,154.81683210627975L154.1002665201823,155.01084197121563L155.3041748523712,155.32304784770375L156.50808318456012,155.44974968625132L157.71199151674904,155.58144483948138L158.915899848938,155.7486082469355L160.11980818112693,155.7409524046988L161.32371651331584,155.43346148535701L162.52762484550476,155.70049077109178L163.73153317769368,154.06324141849188L164.9354415098826,154.26178169576062L166.1393498420715,154.41751638918498L167.34325817426048,154.44109733329367L168.5471665064494,154.6131062918919L169.75107483863832,154.4936514975741L170.95498317082723,154.6107482787323L172.15889150301615,154.80108769273932L173.36279983520507,155.0496265644768L174.56670816739398,155.24415878671942L175.7706164995829,155.29847165800248L176.97452483177187,155.59195536369563L178.1784331639608,155.41617328698976L179.3823414961497,155.23542834922415L180.58624982833862,155.38801236274742L181.79015816052754,155.54001368516188L182.99406649271646,155.7893525465817L184.19797482490537,155.9375722185549L185.40188315709435,155.9473070311315L186.60579148928326,156.08411017917012L187.80969982147218,156.32198400047292L189.0136081536611,156.45916625952975L190.21751648585,156.6237910111287L191.42142481803893,156.80999965815917L192.62533315022785,156.97855798950658L193.82924148241676,156.4446949128131L195.03314981460574,156.4747190240411L196.23705814679465,156.58443390288156L197.44096647898357,156.7243628745265L198.64487481117249,156.5030175864897L199.8487831433614,156.42441207073608L201.05269147555032,156.64272459444348L202.25659980773924,156.8041713252656L203.4605081399282,156.88288644611083L204.66441647211713,156.9075119230145L205.86832480430604,156.99873064472763L207.07223313649496,157.10154653569134L208.27614146868387,157.15467046727395L209.4800498008728,157.3403966757505L210.6839581330617,157.39046750791832L211.88786646525062,157.46916379840317L213.0917747974396,157.6099470030699L214.29568312962851,157.65014483686844L215.49959146181743,157.5921237111276L216.70349979400635,157.5526954936282L217.90740812619526,157.66911117607833L219.11131645838418,157.6478333172457L220.3152247905731,157.61146548766143L221.51913312276207,157.32798692445743L222.723041454951,157.18693844467L223.9269497871399,157.32655731506554L225.13085811932882,157.2109027248776L226.33476645151774,157.3561970333962L227.53867478370665,157.47041230638442L228.74258311589557,157.4237324995347L229.9464914480845,157.56664433676167L231.15039978027346,157.5776101046476L232.35430811246238,157.60651163553538L233.5582164446513,157.17183488348098L234.7621247768402,157.28585164018372L235.96603310902913,157.19671272599817L237.16994144121804,157.3596919667319L238.37384977340696,157.4579488519903L239.57775810559593,157.6250894727027L240.78166643778485,157.76380582407796L241.98557476997377,157.9036543440084L243.18948310216268,158.04139480871262L244.3933914343516,158.1746021852063L245.59729976654052,158.26860732877958L246.80120809872943,158.13742364334473L248.00511643091835,158.26059644508246L249.20902476310732,158.2163160994497L250.41293309529624,158.21926586726659L251.61684142748516,158.2702021496893L252.82074975967407,158.20255414149048L254.024658091863,158.31537688020296L255.2285664240519,158.3553383536016L256.4324747562408,158.39867805317576L257.6363830884298,158.40258191653382L258.8402914206187,158.54825370591462L260.04419975280763,158.4317859857568L261.24810808499655,158.40179301393295L262.45201641718546,158.1417127071513" fill="none"></path></g><g><path style="fill: none;" stroke="rgb(204, 51, 17)" stroke-width="2px" d="M24.07816664377848,145.06622603577512L25.282074975967404,138.72581665294655L26.485983308156328,96.66956594883813L27.68989164034526,109.40352861313612L28.893799972534183,118.3728056451179L30.097708304723106,125.25585747992153L31.30161663691203,130.67295917928405L32.505524969100954,134.4737032812854L33.70943330128988,137.65747973438474L34.9133416334788,139.72372744021527L36.117249965667725,141.96032031260336L37.321158297856655,143.33800717746902L38.52506663004557,144.25868898281368L39.7289749622345,145.60354284873569L40.93288329442342,146.054876960142L42.13679162661235,146.91999671128534L43.34069995880127,146.68437029685805L44.5446082909902,147.65252897197507L45.748516623179114,147.37509874057574L46.952424955368045,147.74651717525526L48.15633328755696,148.38295682284445L49.36024161974589,149.1571159593136L50.56414995193481,149.89872716057687L51.76805828412374,150.39893963879095L52.971966616312656,150.9285073079824L54.17587494850159,151.38980569402946L55.37978328069052,151.43154143664538L56.583691612879434,151.66134582982474L57.787599945068365,151.87425049268074L58.99150827725728,150.98478646137795L60.19541660944621,149.26833317856128L61.39932494163513,148.77277938155015L62.60323327382406,149.19575331234682L63.807141606012976,148.26887877353573L65.01104993820191,148.3089475405735L66.21495827039082,148.49819695275957L67.41886660257975,148.67853592982718L68.62277493476867,149.14094180560207L69.8266832669576,149.72951315455984L71.03059159914652,150.20283756730782L72.23449993133545,149.7393233417987L73.43840826352437,149.69829448957347L74.64231659571331,150.26283684916166L75.84622492790223,150.74773787948516L77.05013326009114,151.20183557235214L78.25404159228006,151.05450661531154L79.457949924469,151.5182093916626L80.66185825665792,151.98279073876458L81.86576658884684,152.32252481114153L83.06967492103576,152.76952623049982L84.2735832532247,153.12121622514658L85.47749158541362,153.31118023445674L86.68139991760253,153.5823899579031L87.88530824979145,153.6860777841619L89.0892165819804,153.6882291840208L90.29312491416931,153.73412289523657L91.49703324635823,154.08561922454865L92.70094157854717,154.39415235184444L93.90484991073609,154.62939928430777" fill="none"></path></g><g><path style="fill: none;" stroke="rgb(0, 119, 187)" stroke-width="2px" d="M24.07816664377848,140.18414467675592L25.282074975967404,138.24325905057975L26.485983308156328,74.82234982245359L27.68989164034526,93.74786888467058L28.893799972534183,98.21764315084594L30.097708304723106,108.50379467078874L31.30161663691203,116.32011872507233L32.505524969100954,121.19688332539364L33.70943330128988,124.58873007941L34.9133416334788,128.5321448207176L36.117249965667725,130.47409812113477L37.321158297856655,133.03938884954033L38.52506663004557,135.09396287197578L39.7289749622345,136.9557735687778L40.93288329442342,137.28019279658412L42.13679162661235,138.8379207644968L43.34069995880127,137.409317230701L44.5446082909902,138.7662637849208L45.748516623179114,139.67124108638635L46.952424955368045,138.6249411830524L48.15633328755696,139.78423898481256L49.36024161974589,140.9122092793038L50.56414995193481,141.9459866810357L51.76805828412374,141.47892420888513L52.971966616312656,141.18181684427904L54.17587494850159,142.09887624018114L55.37978328069052,142.7728999442493L56.583691612879434,142.57424281162307L57.787599945068365,143.31954149963238L58.99150827725728,143.8761786679217L60.19541660944621,144.3204748072108L61.39932494163513,145.03756302862067L62.60323327382406,145.59032787646416L63.807141606012976,117.18784173069241L65.01104993820191,115.51159439986901L66.21495827039082,117.8241451401071L67.41886660257975,120.13968103133644L68.62277493476867,122.2825672192622L69.8266832669576,124.5156401314047L71.03059159914652,126.3378838585607L72.23449993133545,126.60806680872925L73.43840826352437,128.36976707250236L74.64231659571331,130.15094149990506L75.84622492790223,130.74638386059206L77.05013326009114,132.3169209799595L78.25404159228006,133.54581101327565L79.457949924469,134.87591252797742L80.66185825665792,135.97892320604254L81.86576658884684,136.77306428093775L83.06967492103576,137.85559863759588L84.2735832532247,138.93608511153522L85.47749158541362,140.04806794336432L86.68139991760253,141.12620385178022L87.88530824979145,141.7052877675638L89.0892165819804,142.45047013278506L90.29312491416931,142.98516104737297L91.49703324635823,143.90625286100646L92.70094157854717,144.78572025482146L93.90484991073609,145.50777053186243" fill="none"></path></g><g><path style="fill: none;" stroke="rgb(255, 112, 67)" stroke-width="2px" d="M24.07816664377848,132.8291839604133L25.282074975967404,133.5304750479356L26.485983308156328,69.66262099702153L27.68989164034526,90.43247693524965L28.893799972534183,92.88562735875699L30.097708304723106,104.31014131558916L31.30161663691203,112.88980580427136L32.505524969100954,119.5333954956426L33.70943330128988,124.65436300286457L34.9133416334788,128.5997436081363L36.117249965667725,131.823976629044L37.321158297856655,133.73323848827127L38.52506663004557,135.59435761921105L39.7289749622345,137.38116621270106L40.93288329442342,138.98590470481122L42.13679162661235,140.07502966444974L43.34069995880127,139.59161026847033L44.5446082909902,140.87949846462035L45.748516623179114,137.8722431267708L46.952424955368045,136.32892176663708L48.15633328755696,137.60181238976418L49.36024161974589,138.71242188368467L50.56414995193481,139.82906014544224L51.76805828412374,140.78650922967114L52.971966616312656,141.77744191404759L54.17587494850159,142.5797760940814L55.37978328069052,143.11822895618593L56.583691612879434,143.3180611092829L57.787599945068365,143.39543276569134L58.99150827725728,144.1806285569138L60.19541660944621,144.81386794125214L61.39932494163513,145.03269797789446L62.60323327382406,145.47835979957358L63.807141606012976,144.5494489056664L65.01104993820191,142.30598121090776L66.21495827039082,143.05559378688102L67.41886660257975,143.8438066637346L68.62277493476867,144.43533344555402L69.8266832669576,144.55869452924753L71.03059159914652,145.1304075031419L72.23449993133545,145.62321511661506L73.43840826352437,146.19214910282372L74.64231659571331,146.5442718304115L75.84622492790223,147.16370381295755L77.05013326009114,147.83752273157654L78.25404159228006,148.4279159361358L79.457949924469,148.91445838789457L80.66185825665792,149.30002939163347L81.86576658884684,149.51239828664444L83.06967492103576,150.03564234579324L84.2735832532247,150.40412118664352L85.47749158541362,150.98217771465116L86.68139991760253,151.46834077018565L87.88530824979145,151.76220256951225L89.0892165819804,151.93238420502433L90.29312491416931,152.27605037064947L91.49703324635823,152.73923826263427L92.70094157854717,153.12435462041344L93.90484991073609,153.2685259414602" fill="none"></path></g></g></g></g><g opacity="0.2"><g><g><g><path style="fill: none;" stroke="rgb(0, 153, 136)" stroke-width="2px" d="M24.07816664377848,144.64125692379733L25.282074975967404,147.80878514837647L26.485983308156328,147.90641183447622L27.68989164034526,125.41489995336198L28.893799972534183,102.53682923839156L30.097708304723106,111.23981970443313L31.30161663691203,140.26200480818903L32.505524969100954,148.44104712834107L33.70943330128988,147.31471803870932L34.9133416334788,114.63695341081592L36.117249965667725,121.43954192542645L37.321158297856655,110.8664006959484L38.52506663004557,146.26386728324107L39.7289749622345,142.10566215542144L40.93288329442342,142.67529760576213L42.13679162661235,55.94747054388125L43.34069995880127,151.9011437636787L44.5446082909902,153.75671122234039L45.748516623179114,112.92204137541742L46.952424955368045,109.97305908273168L48.15633328755696,87.27322825941724L49.36024161974589,145.60128098499263L50.56414995193481,156.41320779774864L51.76805828412374,118.56081421408298L52.971966616312656,95.37671236462813L54.17587494850159,-14.812209330919075L55.37978328069052,78.83054562080495L56.583691612879434,57.5274268182592L57.787599945068365,93.75380498370156L58.99150827725728,78.57929244827675L60.19541660944621,85.96001527793007L61.39932494163513,82.4860700159551L62.60323327382406,143.92750192464175L63.807141606012976,122.44424409308004L65.01104993820191,108.39309380770273L66.21495827039082,137.52235515602186L67.41886660257975,140.79819608959468L68.62277493476867,103.03026742757045L69.8266832669576,127.1417423516545L71.03059159914652,116.12676816547794L72.23449993133545,79.35767774698402L73.43840826352437,-1.830192373343749L74.64231659571331,151.6908559290733L75.84622492790223,111.07775848294085L77.05013326009114,58.76217212437109L78.25404159228006,3.8774984499912932L79.457949924469,149.62895979716268L80.66185825665792,63.630786259338876L81.86576658884684,64.60261354923286L83.06967492103576,-320.4935965189648L91.49703324635823,-96.47158755427614L92.70094157854717,61.37176686998457L93.90484991073609,61.89204050010535L95.108758242925,144.98098987085154L96.31266657511392,42.04716216853083L97.51657490730287,112.56760023955586L98.72048323949178,130.8946987938266L99.9243915716807,142.41754596321542L101.12829990386962,102.89091034821332L102.33220823605856,130.9282577210618L103.53611656824748,130.3987921761123L104.7400249004364,125.80239147967757L105.94393323262531,126.43710613703831L107.14784156481426,118.47454747462044L108.35174989700317,121.79779033665895L109.55565822919209,114.17381591321202L110.75956656138104,142.85506985825003L111.96347489356995,143.55917728462023L113.16738322575887,139.3135567092548L114.37129155794779,122.62111588578477L115.57519989013673,109.28807803972605L116.77910822232565,133.42324942771742L117.98301655451456,131.85838274473275L119.18692488670348,111.72098550598021L120.39083321889242,130.7494305369284L121.59474155108134,133.75137491023207L122.79864988327026,134.4556263470182L124.00255821545917,137.2402004984647L125.20646654764812,126.986946905678L126.41037487983704,145.60905079696414L127.61428321202595,123.58862736352661L128.8181915442149,139.20027226566773L130.02209987640381,139.03447352384973L131.22600820859273,124.30072286765498L132.42991654078165,141.7905358631065L133.6338248729706,128.98352081299169L134.8377332051595,116.7304913312998L136.04164153734843,152.22548334736854L137.24554986953734,149.24165390927388L138.4494582017263,146.9694901942226L139.6533665339152,150.12206046192927L140.85727486610412,129.0021184081103L142.06118319829304,141.12457094549075L143.26509153048198,144.00382519491745L144.4689998626709,147.7587246526231L145.67290819485982,146.511330056619L146.87681652704873,139.77441029166872L148.08072485923765,143.03689200900203L149.28463319142662,146.7618721777186L150.48854152361554,148.61480919612697L151.69244985580445,155.87155593389244L152.89635818799337,145.13323475735228L154.1002665201823,141.72178214031766L155.3041748523712,141.97136119176082L156.50808318456012,97.78248286813206L157.71199151674904,147.79820825837587L158.915899848938,101.79157533599724L160.11980818112693,144.99367966367325L161.32371651331584,126.8852598008981L162.52762484550476,131.78254775977354L163.73153317769368,142.51395868651218L164.9354415098826,147.69793538088356L166.1393498420715,147.61519127120425L167.34325817426048,145.283697514956L168.5471665064494,150.19112808242153L169.75107483863832,153.54644645190314L170.95498317082723,152.47275260675005L172.15889150301615,147.48712438343907L173.36279983520507,152.37924821880608L174.56670816739398,144.59890548562126L175.7706164995829,149.6063805390601L176.97452483177187,147.06322409876694L178.1784331639608,149.75719207188988L179.3823414961497,151.25949635488897L180.58624982833862,147.60393258189075L181.79015816052754,152.69191058291113L182.99406649271646,154.80920965948138L184.19797482490537,152.21653782536077L185.40188315709435,153.72531807675085L186.60579148928326,140.11615825946444L187.80969982147218,146.95219994366101L189.0136081536611,149.6287392812133L190.21751648585,153.54393358265347L191.42142481803893,153.88465660131712L192.62533315022785,157.9994574960646L193.82924148241676,156.27055085472043L195.03314981460574,150.59110688691143L196.23705814679465,149.13729023590432L197.44096647898357,147.35886060643338L198.64487481117249,150.3556982353787L199.8487831433614,147.31912610753415L201.05269147555032,139.31335419460743L202.25659980773924,148.43314230660462L203.4605081399282,151.9934870676443L204.66441647211713,151.01729333693632L205.86832480430604,150.80432893374126L207.07223313649496,156.8047006759722L208.27614146868387,154.03000192628943L209.4800498008728,151.4173733987499L210.6839581330617,141.0838745020164L211.88786646525062,150.4018085704266L213.0917747974396,150.17495728782745L214.29568312962851,150.35141730074918L215.49959146181743,154.28311767103295L216.70349979400635,153.9323881786255L217.90740812619526,151.51765302673044L219.11131645838418,151.64757067335648L220.3152247905731,150.77868045364934L221.51913312276207,137.48539848303597L222.723041454951,155.2237807693971L223.9269497871399,150.1870496624394L225.13085811932882,153.7485088165804L226.33476645151774,153.57113186233858L227.53867478370665,151.77499626473823L228.74258311589557,133.02268445583147L229.9464914480845,138.1792834200385L231.15039978027346,143.31693601390086L232.35430811246238,135.4235878573098L233.5582164446513,145.08015566827143L234.7621247768402,138.2657931770779L235.96603310902913,128.524107334737L237.16994144121804,128.57323738819377L238.37384977340696,124.95587575326286L239.57775810559593,128.48024716243788L240.78166643778485,129.80990658345584L241.98557476997377,134.91902936382647L243.18948310216268,137.45883081146118L244.3933914343516,134.57803970087707L245.59729976654052,135.32830696587567L246.80120809872943,137.8904277778155L248.00511643091835,124.60687101060233L249.20902476310732,144.1718921007862L250.41293309529624,142.06744089097077L251.61684142748516,135.4674142771677L252.82074975967407,125.07004901113571L254.024658091863,98.99825030162076L255.2285664240519,110.31411625056353L256.4324747562408,131.89593796100982L257.6363830884298,109.25323201939852L258.8402914206187,125.83412327476078L260.04419975280763,120.86089007295143L261.24810808499655,130.27234428044488L262.45201641718546,141.2516601375416" fill="none"></path></g><g><path style="fill: none;" stroke="rgb(238, 51, 119)" stroke-width="2px" d="M24.07816664377848,141.29679165179374L25.282074975967404,39.0663715752284L26.485983308156328,-3579.4722064810994L27.68989164034526,148.07360230195434L28.893799972534183,145.15653519261585L30.097708304723106,155.0893729230059L31.30161663691203,156.13458927095118L32.505524969100954,158.9460140519381L33.70943330128988,159.52878088953995L34.9133416334788,148.93671185355987L36.117249965667725,158.21936955801684L37.321158297856655,158.7350958904927L38.52506663004557,157.40902238508528L39.7289749622345,156.6159283350299L40.93288329442342,153.35563208826633L42.13679162661235,155.4734143872869L43.34069995880127,151.85209134083678L44.5446082909902,151.6193907601722L45.748516623179114,154.4320255661773L46.952424955368045,156.57015383677228L48.15633328755696,156.78790602375605L49.36024161974589,138.16613346893467L50.56414995193481,155.75798009422937L51.76805828412374,154.34700147909274L52.971966616312656,153.8646172144172L54.17587494850159,158.93436158414357L55.37978328069052,154.38286513552342L56.583691612879434,159.1290062873195L57.787599945068365,153.93717765003626L58.99150827725728,157.30859199620056L60.19541660944621,153.07549357653207L61.39932494163513,155.78981089647354L62.60323327382406,155.61391904964592L63.807141606012976,149.4427689554339L65.01104993820191,145.57605328533472L66.21495827039082,159.322734611716L67.41886660257975,152.4594665207999L68.62277493476867,153.41057937496936L69.8266832669576,159.03301490699744L71.03059159914652,148.1234344061887L72.23449993133545,156.27925785947681L73.43840826352437,158.42939412358064L74.64231659571331,159.80904175387366L75.84622492790223,156.93752947065448L77.05013326009114,159.54831708379515L78.25404159228006,158.65052549247238L79.457949924469,150.31000080519522L80.66185825665792,159.76124857836004L81.86576658884684,157.2925742126734L83.06967492103576,160.41934861462812L84.2735832532247,157.70858964580347L85.47749158541362,159.53391491712162L86.68139991760253,153.7764344613741L87.88530824979145,137.15250715581942L89.0892165819804,157.53154880962225L90.29312491416931,157.85944449426617L91.49703324635823,158.2170254509733L92.70094157854717,160.1383835899892L93.90484991073609,159.5557890304728L95.108758242925,155.50109082655615L96.31266657511392,151.11564907576667L97.51657490730287,157.29559055583815L98.72048323949178,154.39766614354417L99.9243915716807,152.7204032687175L101.12829990386962,154.57040607490146L102.33220823605856,160.1474150400869L103.53611656824748,152.98049676814497L104.7400249004364,158.71581312081707L105.94393323262531,155.97643601961283L107.14784156481426,155.8171706253359L108.35174989700317,159.3194791887592L109.55565822919209,156.61185554045463L110.75956656138104,158.91702717413804L111.96347489356995,157.31175009961845L113.16738322575887,158.89538510882034L114.37129155794779,160.32562624216786L115.57519989013673,158.56756114811404L116.77910822232565,159.82577396407356L117.98301655451456,153.12471982444634L119.18692488670348,160.42629106988394L120.39083321889242,157.08418214018383L121.59474155108134,158.59259139599072L122.79864988327026,158.61505477071174L124.00255821545917,158.84771681733923L125.20646654764812,159.6417922196234L126.41037487983704,160.4904183174261L127.61428321202595,153.72880245376732L128.8181915442149,159.78086577847418L130.02209987640381,159.4794314452152L131.22600820859273,157.34244344459313L132.42991654078165,159.89068862794264L133.6338248729706,158.38972487940111L134.8377332051595,158.61725880512415L136.04164153734843,158.07713142653023L137.24554986953734,159.85506208241162L138.4494582017263,159.51623229443072L139.6533665339152,160.06901866674372L140.85727486610412,159.53974086974853L142.06118319829304,158.37437342531794L143.26509153048198,160.2050433957051L144.4689998626709,160.556397027005L145.67290819485982,154.33132853300685L146.87681652704873,159.70840041223127L148.08072485923765,160.12059492837875L149.28463319142662,138.64047677702746L150.48854152361554,151.29810802257657L151.69244985580445,156.00069446166668L152.89635818799337,156.21096091972598L154.1002665201823,160.3616969135714L155.3041748523712,160.71592020555184L156.50808318456012,160.11030465285825L157.71199151674904,157.7878645670649L158.915899848938,160.5979548609066L160.11980818112693,155.24954344524852L161.32371651331584,154.7306637909506L162.52762484550476,159.26327715505337L163.73153317769368,148.55836273849258L164.9354415098826,158.92778914002474L166.1393498420715,156.94555805134212L167.34325817426048,158.01672749516143L168.5471665064494,157.07023956925175L169.75107483863832,150.654829245794L170.95498317082723,156.91303588659338L172.15889150301615,157.69804425808135L173.36279983520507,155.7425113504129L174.56670816739398,154.89593543214468L175.7706164995829,154.34422140301663L176.97452483177187,157.9729919256245L178.1784331639608,153.37350344335778L179.3823414961497,158.1982672504885L180.58624982833862,158.06853046069338L181.79015816052754,156.6985728750076L182.99406649271646,158.63561394520661L184.19797482490537,157.17163190271154L185.40188315709435,155.38905803599806L186.60579148928326,158.96653328604418L187.80969982147218,160.3125740325084L189.0136081536611,160.51960939749563L190.21751648585,158.84041194524568L191.42142481803893,154.15648188677602L192.62533315022785,160.7198834453283L193.82924148241676,157.8032388040459L195.03314981460574,153.66340822396242L196.23705814679465,159.88158953232727L197.44096647898357,158.5159629473922L198.64487481117249,156.35196455567456L199.8487831433614,144.82998369894398L201.05269147555032,155.0226555975047L202.25659980773924,156.51963037003333L203.4605081399282,150.22528105262245L204.66441647211713,158.31683648256143L205.86832480430604,158.0415383521701L207.07223313649496,145.9717376542186L208.27614146868387,152.66089546466338L209.4800498008728,159.6445779211064L210.6839581330617,155.6951324861154L211.88786646525062,153.86969526920052L213.0917747974396,158.56469950363828L214.29568312962851,138.28942888659105L215.49959146181743,147.12492018609424L216.70349979400635,149.56967363413932L217.90740812619526,152.9369634319851L219.11131645838418,155.49759013585975L220.3152247905731,153.70913040593615L221.51913312276207,155.34686298413305L222.723041454951,151.34809763820337L223.9269497871399,153.76359222002614L225.13085811932882,150.37318762534358L226.33476645151774,158.7189976636473L227.53867478370665,155.5979833970591L228.74258311589557,153.28161635988948L229.9464914480845,154.57004604886166L231.15039978027346,154.22592528444733L232.35430811246238,158.69653232003384L233.5582164446513,156.59531290646632L234.7621247768402,152.5930181802652L235.96603310902913,147.09143776439248L237.16994144121804,156.90236280213526L238.37384977340696,158.34133091043356L239.57775810559593,159.39120481399846L240.78166643778485,157.46885983798205L241.98557476997377,157.1700258490496L243.18948310216268,155.86871341580004L244.3933914343516,144.26460555652397L245.59729976654052,157.72211453027532L246.80120809872943,149.5054236120922L248.00511643091835,156.73586650986513L249.20902476310732,147.63018410559934L250.41293309529624,154.85901307414073L251.61684142748516,151.24025183798008L252.82074975967407,149.1458183527222L254.024658091863,156.13968307687372L255.2285664240519,143.20632251349656L256.4324747562408,155.17334562154605L257.6363830884298,153.79646259746025L258.8402914206187,158.93708456233995L260.04419975280763,146.1845726730556L261.24810808499655,157.5073730610494L262.45201641718546,156.91593634637655" fill="none"></path></g><g><path style="fill: none;" stroke="rgb(51, 187, 238)" stroke-width="2px" d="M24.07816664377848,122.95400046251306L25.282074975967404,-300.25361661065836L26.485983308156328,-804.9949673196207L27.68989164034526,138.06197343529385L28.893799972534183,25.045571485006576L30.097708304723106,137.75628207538452L31.30161663691203,150.48625267806264L32.505524969100954,149.131699706555L33.70943330128988,154.9777322233068L34.9133416334788,153.6004396696007L36.117249965667725,151.4651589799643L37.321158297856655,147.85120746667914L38.52506663004557,147.24914042064037L39.7289749622345,150.29834046183106L40.93288329442342,148.94009159800854L42.13679162661235,151.35223906274248L43.34069995880127,148.91363530948982L44.5446082909902,150.77311355100886L45.748516623179114,123.62192077155748L46.952424955368045,148.9597996484437L48.15633328755696,153.0475150529138L49.36024161974589,143.94502506704782L50.56414995193481,134.43406078723393L51.76805828412374,145.77382458965008L52.971966616312656,150.53637280312887L54.17587494850159,146.0472047375684L55.37978328069052,134.30323182469468L56.583691612879434,136.93271125851908L57.787599945068365,143.06059972372313L58.99150827725728,149.27972778806452L60.19541660944621,154.53709747827202L61.39932494163513,150.66684623995383L62.60323327382406,147.15956144161163L63.807141606012976,137.87263799112367L65.01104993820191,124.81127129437557L66.21495827039082,134.84866227434676L67.41886660257975,151.14145169200685L68.62277493476867,153.26623087209475L69.8266832669576,145.5872995987531L71.03059159914652,151.35039055404437L72.23449993133545,153.0498344081671L73.43840826352437,152.661843908262L74.64231659571331,141.15958572802444L75.84622492790223,145.95356308969673L77.05013326009114,156.53524762459122L78.25404159228006,155.98879166326637L79.457949924469,114.97459933192061L80.66185825665792,156.80134737093587L81.86576658884684,138.725391168678L83.06967492103576,158.49017805118365L84.2735832532247,152.28305713654007L85.47749158541362,154.97690866374074L86.68139991760253,156.89925138959438L87.88530824979145,158.2590112377027L89.0892165819804,146.0012744155404L90.29312491416931,154.22199199996248L91.49703324635823,156.7932811000222L92.70094157854717,154.80986164413787L93.90484991073609,153.58800864549508L95.108758242925,150.7973410533249L96.31266657511392,150.39298568228867L97.51657490730287,145.50416058551136L98.72048323949178,146.41480482518477L99.9243915716807,156.27594899515472L101.12829990386962,157.99462977188708L102.33220823605856,143.73143399352722L103.53611656824748,146.9305185004952L104.7400249004364,158.7564836874198L105.94393323262531,149.8269077392538L107.14784156481426,153.5335693330326L108.35174989700317,154.4971244621214L109.55565822919209,157.4957703781057L110.75956656138104,157.5832600810222L111.96347489356995,151.65908025581646L113.16738322575887,158.46476499436932L114.37129155794779,160.58261550144823L115.57519989013673,145.13029716988376L116.77910822232565,153.23324967414527L117.98301655451456,126.3619822035077L119.18692488670348,160.39343166199322L120.39083321889242,157.5790936234225L121.59474155108134,155.2978465638951L122.79864988327026,160.35416899409537L124.00255821545917,155.80497136799343L125.20646654764812,159.64611337591208L126.41037487983704,137.61529812836L127.61428321202595,158.5485441789131L128.8181915442149,160.3591407286888L130.02209987640381,157.65666685910514L131.22600820859273,159.55509148002068L132.42991654078165,159.592745140918L133.6338248729706,159.25936665346634L134.8377332051595,160.90061272016027L136.04164153734843,154.70423787962898L137.24554986953734,148.39521356331127L138.4494582017263,159.22520637023652L139.6533665339152,153.08994580932676L140.85727486610412,159.58447241757213L142.06118319829304,151.16168740560659L143.26509153048198,153.3611686137097L144.4689998626709,160.3004072618906L145.67290819485982,156.50173763839575L146.87681652704873,158.52511632818388L148.08072485923765,157.04117196686306L149.28463319142662,144.66192016831934L150.48854152361554,155.89155819310696L151.69244985580445,158.70270648534614L152.89635818799337,160.16715445216536L154.1002665201823,158.4011436115401L155.3041748523712,160.77954763569343L156.50808318456012,157.6644316082105L157.71199151674904,157.88368493501804L158.915899848938,158.6712230519763L160.11980818112693,155.60708643045928L161.32371651331584,150.05629045494533L162.52762484550476,160.3705498976361L163.73153317769368,125.42687081918547L164.9354415098826,157.73465778124805L166.1393498420715,157.14185774921975L167.34325817426048,154.8536419356594L168.5471665064494,157.62259376968183L169.75107483863832,152.40351284880748L170.95498317082723,156.65976206791674L172.15889150301615,158.13194117203525L173.36279983520507,159.39919879843382L174.56670816739398,158.64877233442076L175.7706164995829,156.2490803643123L176.97452483177187,160.72889590967782L178.1784331639608,152.33925832643484L179.3823414961497,152.0715024603071L180.58624982833862,158.05909552828777L181.79015816052754,158.20100204203928L182.99406649271646,160.1545297734282L184.19797482490537,158.53254720939137L185.40188315709435,156.1177462402359L186.60579148928326,158.4793654566351L187.80969982147218,160.4869879443156L189.0136081536611,158.8611997925299L190.21751648585,159.50641455308747L191.42142481803893,160.0706459563166L192.62533315022785,159.93020570486627L193.82924148241676,147.0959335895645L195.03314981460574,157.0004985875569L196.23705814679465,158.50579024287532L197.44096647898357,159.1748837305229L198.64487481117249,152.6266142351858L199.8487831433614,155.04777585189134L201.05269147555032,160.46614370232749L202.25659980773924,159.63171430321233L203.4605081399282,158.2615061056504L204.66441647211713,157.33880943175387L205.86832480430604,158.596381795141L207.07223313649496,158.90233867425474L208.27614146868387,158.0851324427242L209.4800498008728,160.59341431374995L210.6839581330617,158.26747353726017L211.88786646525062,158.84756718151644L213.0917747974396,160.07585564562072L214.29568312962851,158.35424206301568L215.49959146181743,156.57582874722468L216.70349979400635,156.86206745017085L217.90740812619526,159.7082735593063L219.11131645838418,157.27512307547528L220.3152247905731,156.97442988957164L221.51913312276207,152.36241475128247L222.723041454951,154.7162379975682L223.9269497871399,159.7722296538444L225.13085811932882,155.18499640171854L226.33476645151774,159.90131136500926L227.53867478370665,159.47112609450946L228.74258311589557,156.6060366195863L229.9464914480845,160.07005922637987L231.15039978027346,157.76970040954575L232.35430811246238,158.11278947433973L233.5582164446513,149.5574282484605L234.7621247768402,159.28313568512235L235.96603310902913,155.63522021530719L237.16994144121804,160.21469251547737L238.37384977340696,159.1791759159662L239.57775810559593,160.55300392221503L240.78166643778485,160.19379961371982L241.98557476997377,160.3534871947825L243.18948310216268,160.45430489293034L244.3933914343516,160.50810769060527L245.59729976654052,159.9153778355277L246.80120809872943,155.83935948020158L248.00511643091835,160.41833069725462L249.20902476310732,157.44061410753739L250.41293309529624,158.27093991297465L251.61684142748516,159.1625055852419L252.82074975967407,157.01749237917633L254.024658091863,160.2918150154344L255.2285664240519,159.05538771266782L256.4324747562408,159.15790850274612L257.6363830884298,158.47097038068975L258.8402914206187,161.1001568714513L260.04419975280763,156.3914824764092L261.24810808499655,157.87636993719212L262.45201641718546,153.58556778145336" fill="none"></path></g><g><path style="fill: none;" stroke="rgb(204, 51, 17)" stroke-width="2px" d="M24.07816664377848,145.06622603577512L25.282074975967404,132.72778937679075L26.485983308156328,19.247541127633696L27.68989164034526,143.6261365026169L28.893799972534183,149.66106286909945L30.097708304723106,154.4813547590373L31.30161663691203,157.55654052346188L32.505524969100954,155.91270128483515L33.70943330128988,157.65840032823274L34.9133416334788,153.9579050241966L36.117249965667725,158.65179177155926L37.321158297856655,154.36763659658038L38.52506663004557,152.10251645347347L39.7289749622345,157.71466199125138L40.93288329442342,150.32685789942767L42.13679162661235,155.48477489646478L43.34069995880127,144.2547082156735L44.5446082909902,158.0124853758393L45.748516623179114,144.3042669251339L46.952424955368045,151.9870482269387L48.15633328755696,155.8589595228248L49.36024161974589,158.49214722485917L50.56414995193481,159.05995216780371L51.76805828412374,156.71765763036134L52.971966616312656,157.7577782034917L54.17587494850159,157.45382931336093L55.37978328069052,151.99003644306907L56.583691612879434,154.78785392737345L57.787599945068365,154.81582851320692L58.99150827725728,138.51777090201125L60.19541660944621,124.88535565271624L61.39932494163513,141.6445610551052L62.60323327382406,155.35154388519118L63.807141606012976,134.6311255404462L65.01104993820191,148.90457615426325L66.21495827039082,151.33853557160245L67.41886660257975,151.4095867105578L68.62277493476867,156.20290139930057L69.8266832669576,158.78969243307728L71.03059159914652,157.54327609532817L72.23449993133545,142.50070747808465L73.43840826352437,149.053341164073L74.64231659571331,159.19200775031143L75.84622492790223,158.46181221830224L77.05013326009114,158.46535172430606L78.25404159228006,148.6857905800371L79.457949924469,159.0095772118062L80.66185825665792,159.52254596983343L81.86576658884684,157.85977076786475L83.06967492103576,160.08454000811443L84.2735832532247,158.89840735866227L85.47749158541362,156.44290544570697L86.68139991760253,158.06864606280462L87.88530824979145,155.40671506308772L89.0892165819804,153.7240377341468L90.29312491416931,154.50015824404744L91.49703324635823,159.96832107103262L92.70094157854717,159.57084936975036L93.90484991073609,158.5858718474822" fill="none"></path></g><g><path style="fill: none;" stroke="rgb(0, 119, 187)" stroke-width="2px" d="M24.07816664377848,140.18414467675592L25.282074975967404,136.40718124821714L26.485983308156328,-41.930216710151484L27.68989164034526,144.6103250615713L28.893799972534183,113.80991959348012L30.097708304723106,152.17888247684138L31.30161663691203,155.1103787548064L32.505524969100954,148.7054300005084L33.70943330128988,145.89677685748728L34.9133416334788,155.69794181430726L36.117249965667725,144.96670358755955L37.321158297856655,153.57686133923767L38.52506663004557,152.59808217153133L39.7289749622345,153.72236192543966L40.93288329442342,140.35089523741664L42.13679162661235,154.25959446965726L43.34069995880127,122.67827001960366L44.5446082909902,153.28651496419357L45.748516623179114,149.68829321360374L46.952424955368045,126.67920339734178L48.15633328755696,153.40204788290737L49.36024161974589,154.5135962159831L50.56414995193481,154.71638088290274L51.76805828412374,135.57895934494996L52.971966616312656,137.350339214529L54.17587494850159,154.15413159178493L55.37978328069052,151.79248002929623L56.583691612879434,139.87149581362735L57.787599945068365,153.61689342216042L58.99150827725728,151.67818526263494L60.19541660944621,150.63189783722123L61.39932494163513,155.35240963530876L62.60323327382406,153.63504267235135L63.807141606012976,-300.7177981837777L65.01104993820191,90.59391043624763L66.21495827039082,152.53192626163596L67.41886660257975,155.2061220546854L68.62277493476867,155.0091748724768L69.8266832669576,158.89047159718803L71.03059159914652,154.59771517510197L72.23449993133545,130.8274639308932L73.43840826352437,156.06282651802655L74.64231659571331,158.3231602836965L75.84622492790223,140.2190109485482L77.05013326009114,157.43843538745588L78.25404159228006,153.3035801984803L79.457949924469,156.36441808140765L80.66185825665792,153.87983675270922L81.86576658884684,149.71658338476274L83.06967492103576,155.57087512388392L84.2735832532247,156.68517371837936L85.47749158541362,158.3800913701329L86.68139991760253,158.96034983881054L87.88530824979145,151.31483798261374L89.0892165819804,154.85351086367928L90.29312491416931,151.9099599013284L91.49703324635823,159.32180079417523L92.70094157854717,159.5417896429313L93.90484991073609,157.6514872657278" fill="none"></path></g><g><path style="fill: none;" stroke="rgb(255, 112, 67)" stroke-width="2px" d="M24.07816664377848,132.8291839604133L25.282074975967404,134.1938964167317L26.485983308156328,-47.91273341097096L27.68989164034526,146.25160052101614L28.893799972534183,101.44315113532589L30.097708304723106,152.81872581764728L31.30161663691203,155.46831383087613L32.505524969100954,157.008137890089L33.70943330128988,156.82498364298968L34.9133416334788,155.77908324556876L36.117249965667725,155.88610886147012L37.321158297856655,149.01860652680153L38.52506663004557,151.45032140679885L39.7289749622345,153.47232102809232L40.93288329442342,154.17512279752756L42.13679162661235,150.8574834032742L43.34069995880127,134.60683053324766L44.5446082909902,154.66077823629914L45.748516623179114,104.58540440682943L46.952424955368045,118.70862740505001L48.15633328755696,152.55395085462098L49.36024161974589,152.10446734457665L50.56414995193481,153.62304592965626L51.76805828412374,152.88107107692758L52.971966616312656,154.55644662774873L54.17587494850159,153.1269047324754L55.37978328069052,150.32364129177827L56.583691612879434,146.03679435961118L57.787599945068365,144.46443125942898L58.99150827725728,155.18618673781262L60.19541660944621,153.8093132769185L61.39932494163513,148.18042540320832L62.60323327382406,151.96434070955942L63.807141606012976,130.88173335606814L65.01104993820191,108.95647605576455L66.21495827039082,154.30610983399995L67.41886660257975,155.7804907223681L68.62277493476867,153.46925461880642L69.8266832669576,146.45765467440972L71.03059159914652,153.99668151630556L72.23449993133545,153.3193003979839L73.43840826352437,155.13551082254747L74.64231659571331,152.11367501054463L75.84622492790223,157.01797110130113L77.05013326009114,158.6155880592832L78.25404159228006,157.92010185021456L79.457949924469,156.77481345180232L80.66185825665792,155.55751478256306L81.86576658884684,152.97374909260208L83.06967492103576,158.59833887419177L84.2735832532247,156.457101722489L85.47749158541362,160.5119523749319L86.68139991760253,159.51027948887884L87.88530824979145,156.63866285436217L89.0892165819804,154.76493883248062L90.29312491416931,158.0123576791033L91.49703324635823,160.49122893855636L92.70094157854717,159.58599690283444L93.90484991073609,155.69325416276087" fill="none"></path></g></g></g></g></g></g><g transform="translate(41, 176)" clip-path="url(#clip_1)"><clipPath id="clip_1"><rect width="288" height="23"></rect></clipPath><g><g><line x1="0" y1="0" x2="0" y2="5" style="visibility: inherit;" fill="rgb(0, 0, 0)" stroke="rgb(204, 204, 204)" stroke-width="1px"></line><line x1="24.07816664377848" y1="0" x2="24.07816664377848" y2="5" style="visibility: inherit;" fill="rgb(0, 0, 0)" stroke="rgb(204, 204, 204)" stroke-width="1px"></line><line x1="48.15633328755696" y1="0" x2="48.15633328755696" y2="5" style="visibility: inherit;" fill="rgb(0, 0, 0)" stroke="rgb(204, 204, 204)" stroke-width="1px"></line><line x1="72.23449993133545" y1="0" x2="72.23449993133545" y2="5" style="visibility: inherit;" fill="rgb(0, 0, 0)" stroke="rgb(204, 204, 204)" stroke-width="1px"></line><line x1="96.31266657511392" y1="0" x2="96.31266657511392" y2="5" style="visibility: inherit;" fill="rgb(0, 0, 0)" stroke="rgb(204, 204, 204)" stroke-width="1px"></line><line x1="120.39083321889242" y1="0" x2="120.39083321889242" y2="5" style="visibility: inherit;" fill="rgb(0, 0, 0)" stroke="rgb(204, 204, 204)" stroke-width="1px"></line><line x1="144.4689998626709" y1="0" x2="144.4689998626709" y2="5" style="visibility: inherit;" fill="rgb(0, 0, 0)" stroke="rgb(204, 204, 204)" stroke-width="1px"></line><line x1="168.5471665064494" y1="0" x2="168.5471665064494" y2="5" style="visibility: inherit;" fill="rgb(0, 0, 0)" stroke="rgb(204, 204, 204)" stroke-width="1px"></line><line x1="192.62533315022785" y1="0" x2="192.62533315022785" y2="5" style="visibility: inherit;" fill="rgb(0, 0, 0)" stroke="rgb(204, 204, 204)" stroke-width="1px"></line><line x1="216.70349979400635" y1="0" x2="216.70349979400635" y2="5" style="visibility: inherit;" fill="rgb(0, 0, 0)" stroke="rgb(204, 204, 204)" stroke-width="1px"></line><line x1="240.78166643778485" y1="0" x2="240.78166643778485" y2="5" style="visibility: inherit;" fill="rgb(0, 0, 0)" stroke="rgb(204, 204, 204)" stroke-width="1px"></line><line x1="264.8598330815633" y1="0" x2="264.8598330815633" y2="5" style="visibility: inherit;" fill="rgb(0, 0, 0)" stroke="rgb(204, 204, 204)" stroke-width="1px"></line><line x1="288.9379997253418" y1="0" x2="288.9379997253418" y2="5" style="visibility: inherit;" fill="rgb(0, 0, 0)" stroke="rgb(204, 204, 204)" stroke-width="1px"></line></g><g transform="translate(0, 8)"><text style="text-anchor: middle; visibility: hidden; font-family: &quot;Helvetica Neue&quot;, sans-serif; font-size: 12px; font-weight: 200;" x="0" y="0" dx="0em" dy="0.95em" fill="rgb(33, 33, 33)" stroke="none" stroke-width="1px">-200</text><text style="text-anchor: middle; visibility: inherit; font-family: &quot;Helvetica Neue&quot;, sans-serif; font-size: 12px; font-weight: 200;" x="24.07816664377848" y="0" dx="0em" dy="0.95em" fill="rgb(33, 33, 33)" stroke="none" stroke-width="1px">0</text><text style="text-anchor: middle; visibility: hidden; font-family: &quot;Helvetica Neue&quot;, sans-serif; font-size: 12px; font-weight: 200;" x="48.15633328755696" y="0" dx="0em" dy="0.95em" fill="rgb(33, 33, 33)" stroke="none" stroke-width="1px">200</text><text style="text-anchor: middle; visibility: inherit; font-family: &quot;Helvetica Neue&quot;, sans-serif; font-size: 12px; font-weight: 200;" x="72.23449993133545" y="0" dx="0em" dy="0.95em" fill="rgb(33, 33, 33)" stroke="none" stroke-width="1px">400</text><text style="text-anchor: middle; visibility: hidden; font-family: &quot;Helvetica Neue&quot;, sans-serif; font-size: 12px; font-weight: 200;" x="96.31266657511392" y="0" dx="0em" dy="0.95em" fill="rgb(33, 33, 33)" stroke="none" stroke-width="1px">600</text><text style="text-anchor: middle; visibility: inherit; font-family: &quot;Helvetica Neue&quot;, sans-serif; font-size: 12px; font-weight: 200;" x="120.39083321889242" y="0" dx="0em" dy="0.95em" fill="rgb(33, 33, 33)" stroke="none" stroke-width="1px">800</text><text style="text-anchor: middle; visibility: hidden; font-family: &quot;Helvetica Neue&quot;, sans-serif; font-size: 12px; font-weight: 200;" x="144.4689998626709" y="0" dx="0em" dy="0.95em" fill="rgb(33, 33, 33)" stroke="none" stroke-width="1px">1k</text><text style="text-anchor: middle; visibility: inherit; font-family: &quot;Helvetica Neue&quot;, sans-serif; font-size: 12px; font-weight: 200;" x="168.5471665064494" y="0" dx="0em" dy="0.95em" fill="rgb(33, 33, 33)" stroke="none" stroke-width="1px">1.2k</text><text style="text-anchor: middle; visibility: hidden; font-family: &quot;Helvetica Neue&quot;, sans-serif; font-size: 12px; font-weight: 200;" x="192.62533315022785" y="0" dx="0em" dy="0.95em" fill="rgb(33, 33, 33)" stroke="none" stroke-width="1px">1.4k</text><text style="text-anchor: middle; visibility: inherit; font-family: &quot;Helvetica Neue&quot;, sans-serif; font-size: 12px; font-weight: 200;" x="216.70349979400635" y="0" dx="0em" dy="0.95em" fill="rgb(33, 33, 33)" stroke="none" stroke-width="1px">1.6k</text><text style="text-anchor: middle; visibility: hidden; font-family: &quot;Helvetica Neue&quot;, sans-serif; font-size: 12px; font-weight: 200;" x="240.78166643778485" y="0" dx="0em" dy="0.95em" fill="rgb(33, 33, 33)" stroke="none" stroke-width="1px">1.8k</text><text style="text-anchor: middle; visibility: inherit; font-family: &quot;Helvetica Neue&quot;, sans-serif; font-size: 12px; font-weight: 200;" x="264.8598330815633" y="0" dx="0em" dy="0.95em" fill="rgb(33, 33, 33)" stroke="none" stroke-width="1px">2k</text><text style="text-anchor: middle; visibility: hidden; font-family: &quot;Helvetica Neue&quot;, sans-serif; font-size: 12px; font-weight: 200;" x="288.9379997253418" y="0" dx="0em" dy="0.95em" fill="rgb(33, 33, 33)" stroke="none" stroke-width="1px">2.2k</text></g><line x1="0" y1="0" x2="288.9379997253418" y2="0" fill="rgb(0, 0, 0)" stroke="rgb(204, 204, 204)" stroke-width="1px"></line></g></g></g></g></svg>