<svg viewBox="0 0 330 200" xmlns="http://www.w3.org/2000/svg"><g><g><g><g><g><line x1="20.354000091552734" y1="176.95999908447266" x2="15.354000091552734" y2="176.95999908447266" style="visibility: inherit;" fill="rgb(0, 0, 0)" stroke="rgb(204, 204, 204)" stroke-width="1px"></line><line x1="20.354000091552734" y1="157.2977769639757" x2="15.354000091552734" y2="157.2977769639757" style="visibility: inherit;" fill="rgb(0, 0, 0)" stroke="rgb(204, 204, 204)" stroke-width="1px"></line><line x1="20.354000091552734" y1="137.63555484347873" x2="15.354000091552734" y2="137.63555484347873" style="visibility: inherit;" fill="rgb(0, 0, 0)" stroke="rgb(204, 204, 204)" stroke-width="1px"></line><line x1="20.354000091552734" y1="117.97333272298178" x2="15.354000091552734" y2="117.97333272298178" style="visibility: inherit;" fill="rgb(0, 0, 0)" stroke="rgb(204, 204, 204)" stroke-width="1px"></line><line x1="20.354000091552734" y1="98.31111060248482" x2="15.354000091552734" y2="98.31111060248482" style="visibility: inherit;" fill="rgb(0, 0, 0)" stroke="rgb(204, 204, 204)" stroke-width="1px"></line><line x1="20.354000091552734" y1="78.64888848198784" x2="15.354000091552734" y2="78.64888848198784" style="visibility: inherit;" fill="rgb(0, 0, 0)" stroke="rgb(204, 204, 204)" stroke-width="1px"></line><line x1="20.354000091552734" y1="58.98666636149089" x2="15.354000091552734" y2="58.98666636149089" style="visibility: inherit;" fill="rgb(0, 0, 0)" stroke="rgb(204, 204, 204)" stroke-width="1px"></line><line x1="20.354000091552734" y1="39.32444424099393" x2="15.354000091552734" y2="39.32444424099393" style="visibility: inherit;" fill="rgb(0, 0, 0)" stroke="rgb(204, 204, 204)" stroke-width="1px"></line><line x1="20.354000091552734" y1="19.662222120496978" x2="15.354000091552734" y2="19.662222120496978" style="visibility: inherit;" fill="rgb(0, 0, 0)" stroke="rgb(204, 204, 204)" stroke-width="1px"></line><line x1="20.354000091552734" y1="0" x2="15.354000091552734" y2="0" style="visibility: inherit;" fill="rgb(0, 0, 0)" stroke="rgb(204, 204, 204)" stroke-width="1px"></line></g><g transform="translate(10.354000091552734, 0)"><text style="text-anchor: end; visibility: hidden; font-family: &quot;Helvetica Neue&quot;, sans-serif; font-size: 12px; font-weight: 200;" x="0" y="176.95999908447266" dx="0em" dy="0.3em" fill="rgb(33, 33, 33)" stroke="none" stroke-width="1px">0</text><text style="text-anchor: end; visibility: inherit; font-family: &quot;Helvetica Neue&quot;, sans-serif; font-size: 12px; font-weight: 200;" x="0" y="157.2977769639757" dx="0em" dy="0.3em" fill="rgb(33, 33, 33)" stroke="none" stroke-width="1px">1</text><text style="text-anchor: end; visibility: hidden; font-family: &quot;Helvetica Neue&quot;, sans-serif; font-size: 12px; font-weight: 200;" x="0" y="137.63555484347873" dx="0em" dy="0.3em" fill="rgb(33, 33, 33)" stroke="none" stroke-width="1px">2</text><text style="text-anchor: end; visibility: inherit; font-family: &quot;Helvetica Neue&quot;, sans-serif; font-size: 12px; font-weight: 200;" x="0" y="117.97333272298178" dx="0em" dy="0.3em" fill="rgb(33, 33, 33)" stroke="none" stroke-width="1px">3</text><text style="text-anchor: end; visibility: hidden; font-family: &quot;Helvetica Neue&quot;, sans-serif; font-size: 12px; font-weight: 200;" x="0" y="98.31111060248482" dx="0em" dy="0.3em" fill="rgb(33, 33, 33)" stroke="none" stroke-width="1px">4</text><text style="text-anchor: end; visibility: inherit; font-family: &quot;Helvetica Neue&quot;, sans-serif; font-size: 12px; font-weight: 200;" x="0" y="78.64888848198784" dx="0em" dy="0.3em" fill="rgb(33, 33, 33)" stroke="none" stroke-width="1px">5</text><text style="text-anchor: end; visibility: hidden; font-family: &quot;Helvetica Neue&quot;, sans-serif; font-size: 12px; font-weight: 200;" x="0" y="58.98666636149089" dx="0em" dy="0.3em" fill="rgb(33, 33, 33)" stroke="none" stroke-width="1px">6</text><text style="text-anchor: end; visibility: inherit; font-family: &quot;Helvetica Neue&quot;, sans-serif; font-size: 12px; font-weight: 200;" x="0" y="39.32444424099393" dx="0em" dy="0.3em" fill="rgb(33, 33, 33)" stroke="none" stroke-width="1px">7</text><text style="text-anchor: end; visibility: hidden; font-family: &quot;Helvetica Neue&quot;, sans-serif; font-size: 12px; font-weight: 200;" x="0" y="19.662222120496978" dx="0em" dy="0.3em" fill="rgb(33, 33, 33)" stroke="none" stroke-width="1px">8</text><text style="text-anchor: end; visibility: hidden; font-family: &quot;Helvetica Neue&quot;, sans-serif; font-size: 12px; font-weight: 200;" x="0" y="0" dx="0em" dy="0.3em" fill="rgb(33, 33, 33)" stroke="none" stroke-width="1px">9</text></g><line x1="20.354000091552734" y1="0" x2="20.354000091552734" y2="176.95999908447266" fill="rgb(0, 0, 0)" stroke="rgb(204, 204, 204)" stroke-width="1px"></line></g></g><g transform="translate(20, 0)" clip-path="url(#clip_0)"><clipPath id="clip_0"><rect width="309" height="176"></rect></clipPath><g><g><g><line x1="0" y1="0" x2="0" y2="176.95999908447266" fill="rgb(0, 0, 0)" stroke="rgb(66, 66, 66)" stroke-width="1px" opacity="0.25"></line><line x1="25.803833325703938" y1="0" x2="25.803833325703938" y2="176.95999908447266" fill="rgb(0, 0, 0)" stroke="rgb(66, 66, 66)" stroke-width="1px" opacity="0.25"></line><line x1="51.607666651407875" y1="0" x2="51.607666651407875" y2="176.95999908447266" fill="rgb(0, 0, 0)" stroke="rgb(66, 66, 66)" stroke-width="1px" opacity="0.25"></line><line x1="77.41149997711182" y1="0" x2="77.41149997711182" y2="176.95999908447266" fill="rgb(0, 0, 0)" stroke="rgb(66, 66, 66)" stroke-width="1px" opacity="0.25"></line><line x1="103.21533330281575" y1="0" x2="103.21533330281575" y2="176.95999908447266" fill="rgb(0, 0, 0)" stroke="rgb(66, 66, 66)" stroke-width="1px" opacity="0.25"></line><line x1="129.0191666285197" y1="0" x2="129.0191666285197" y2="176.95999908447266" fill="rgb(0, 0, 0)" stroke="rgb(66, 66, 66)" stroke-width="1px" opacity="0.25"></line><line x1="154.82299995422363" y1="0" x2="154.82299995422363" y2="176.95999908447266" fill="rgb(0, 0, 0)" stroke="rgb(66, 66, 66)" stroke-width="1px" opacity="0.25"></line><line x1="180.62683327992758" y1="0" x2="180.62683327992758" y2="176.95999908447266" fill="rgb(0, 0, 0)" stroke="rgb(66, 66, 66)" stroke-width="1px" opacity="0.25"></line><line x1="206.4306666056315" y1="0" x2="206.4306666056315" y2="176.95999908447266" fill="rgb(0, 0, 0)" stroke="rgb(66, 66, 66)" stroke-width="1px" opacity="0.25"></line><line x1="232.23449993133545" y1="0" x2="232.23449993133545" y2="176.95999908447266" fill="rgb(0, 0, 0)" stroke="rgb(66, 66, 66)" stroke-width="1px" opacity="0.25"></line><line x1="258.0383332570394" y1="0" x2="258.0383332570394" y2="176.95999908447266" fill="rgb(0, 0, 0)" stroke="rgb(66, 66, 66)" stroke-width="1px" opacity="0.25"></line><line x1="283.8421665827433" y1="0" x2="283.8421665827433" y2="176.95999908447266" fill="rgb(0, 0, 0)" stroke="rgb(66, 66, 66)" stroke-width="1px" opacity="0.25"></line><line x1="309.64599990844727" y1="0" x2="309.64599990844727" y2="176.95999908447266" fill="rgb(0, 0, 0)" stroke="rgb(66, 66, 66)" stroke-width="1px" opacity="0.25"></line></g><g><line x1="0" y1="176.95999908447266" x2="309.64599990844727" y2="176.95999908447266" fill="rgb(0, 0, 0)" stroke="rgb(66, 66, 66)" stroke-width="1px" opacity="0.25"></line><line x1="0" y1="157.2977769639757" x2="309.64599990844727" y2="157.2977769639757" fill="rgb(0, 0, 0)" stroke="rgb(66, 66, 66)" stroke-width="1px" opacity="0.25"></line><line x1="0" y1="137.63555484347873" x2="309.64599990844727" y2="137.63555484347873" fill="rgb(0, 0, 0)" stroke="rgb(66, 66, 66)" stroke-width="1px" opacity="0.25"></line><line x1="0" y1="117.97333272298178" x2="309.64599990844727" y2="117.97333272298178" fill="rgb(0, 0, 0)" stroke="rgb(66, 66, 66)" stroke-width="1px" opacity="0.25"></line><line x1="0" y1="98.31111060248482" x2="309.64599990844727" y2="98.31111060248482" fill="rgb(0, 0, 0)" stroke="rgb(66, 66, 66)" stroke-width="1px" opacity="0.25"></line><line x1="0" y1="78.64888848198784" x2="309.64599990844727" y2="78.64888848198784" fill="rgb(0, 0, 0)" stroke="rgb(66, 66, 66)" stroke-width="1px" opacity="0.25"></line><line x1="0" y1="58.98666636149089" x2="309.64599990844727" y2="58.98666636149089" fill="rgb(0, 0, 0)" stroke="rgb(66, 66, 66)" stroke-width="1px" opacity="0.25"></line><line x1="0" y1="39.32444424099393" x2="309.64599990844727" y2="39.32444424099393" fill="rgb(0, 0, 0)" stroke="rgb(66, 66, 66)" stroke-width="1px" opacity="0.25"></line><line x1="0" y1="19.662222120496978" x2="309.64599990844727" y2="19.662222120496978" fill="rgb(0, 0, 0)" stroke="rgb(66, 66, 66)" stroke-width="1px" opacity="0.25"></line><line x1="0" y1="0" x2="309.64599990844727" y2="0" fill="rgb(0, 0, 0)" stroke="rgb(66, 66, 66)" stroke-width="1px" opacity="0.25"></line></g></g></g><g><g><line x1="0" y1="176.95999908447266" x2="309.64599990844727" y2="176.95999908447266" fill="rgb(0, 0, 0)" stroke="rgb(153, 153, 153)" stroke-width="1.5px"></line></g></g><g><g><line x1="25.803833325703938" y1="0" x2="25.803833325703938" y2="176.95999908447266" fill="rgb(0, 0, 0)" stroke="rgb(153, 153, 153)" stroke-width="1.5px"></line></g></g><g><g><g><g><g><path style="fill: none;" stroke="rgb(0, 153, 136)" stroke-width="2px" d="M25.803833325703938,125.11147244469146L27.094024991989134,83.69542370491352L28.38421665827433,34.26594767823039L29.674408324559533,68.99387922586742L30.96459999084473,84.20572625392641L32.25479165712993,98.22722203782197L33.544983323415124,110.02133208022617L34.83517498970032,79.2861396378153L36.125366655985516,99.00109773040985L37.41555832227071,87.20751339224796L38.70574998855591,98.61378914944346L39.99594165484111,88.22228215921449L41.2861333211263,112.66140338518541L42.5763249874115,85.98500160255352L43.86651665369669,93.8131792033065L45.156708319981895,97.58580891052624L46.44689998626709,92.85304101066427L47.73709165255229,115.15798574361176L49.02728331883748,100.28847235223206L50.31747498512268,122.85351309904446L51.607666651407875,147.77256444823888L52.89785831769308,137.37814459417172L54.18804998397827,109.29276010802748L55.47824165026347,101.13947304349199L56.76843331654866,92.88801113282298L58.05862498283386,81.98213119060904L59.348816649119065,98.92920780812847L60.639008315404254,87.3273235327252L61.92919998168946,78.14411029845003L63.219391647974646,98.20127520002964L64.50958331425986,92.49215876217973L65.79977498054504,85.59741116867548L67.08996664683025,97.58316966794196L68.38015831311543,91.04170379552245L69.67034997940064,76.67785388795592L70.96054164568582,92.97250379407305L72.25073331197103,93.0584386106063L73.54092497825623,85.32638715456507L74.83111664454142,90.39477486796126L76.12130831082662,83.64172521135937L77.41149997711182,82.48411384727918L78.70169164339701,69.01646955384668L79.99188330968222,68.5311329904158L81.2820749759674,89.78578461259286L82.5722666422526,98.58088952603015L83.8624583085378,83.73613714412777L85.152649974823,90.46796577283145L86.4428416411082,92.46787098219828L87.73303330739338,93.67022292092955L89.02322497367858,95.4279302344331L90.31341663996379,100.61955627879489L91.60360830624899,109.29787322050204L92.89379997253418,111.01299021926663L94.18399163881936,116.20061086599574L95.47418330510457,117.88865573905859L96.76437497138977,130.32588454906934L98.05456663767497,126.49645746499776L99.34475830396018,126.0222099344069L100.63494997024536,125.73298618190209L101.92514163653055,106.80453595350832L103.21533330281575,105.87851305659231L104.50552496910096,107.89432331129382L105.79571663538616,107.30755028355486L107.08590830167134,113.1255459522771L108.37609996795653,101.68294169649353L109.66629163424174,104.88804735787247L110.95648330052694,105.98589941506152L112.24667496681214,96.79900490020194L113.53686663309732,97.12009713052676L114.82705829938253,87.32597525726437L116.11724996566772,93.05704008231771L117.40744163195292,93.94192016659781L118.69763329823813,88.52155669953676L119.98782496452331,90.79200594545254L121.27801663080851,87.48682748415676L122.5682082970937,86.0824821645449L123.85839996337891,85.10667489867724L125.14859162966411,80.12070484099536L126.43878329594929,87.28187263128244L127.72897496223449,84.7626636914934L129.0191666285197,81.3729579681353L130.3093582948049,83.45510649618345L131.59954996109008,88.19837301196024L132.8897416273753,82.32605613697785L134.1799332936605,79.592575717783L135.47012495994568,75.44837512939452L136.76031662623086,77.20889063035331L138.05050829251607,80.19722449235631L139.34069995880128,78.82798084970119L140.63089162508646,79.83787092329764L141.92108329137164,79.65540536809897L143.21127495765685,84.78099569643861L144.50146662394206,81.01636192819825L145.79165829022725,78.34848070181424L147.08184995651246,81.1729182224572L148.37204162279767,86.334620801752L149.66223328908285,88.56837418120965L150.95242495536803,86.55655142689855L152.24261662165324,82.817579942622L153.53280828793845,79.3281750150886L154.82299995422363,73.38996009905465L156.11319162050881,74.41818633559173L157.40338328679402,78.83860221425167L158.6935749530792,71.54982085331966L159.98376661936445,70.58141693530949L161.27395828564963,71.07830741944413L162.5641499519348,68.43196741446123L163.85434161822002,68.79845397552108L165.1445332845052,71.13272310149848L166.4347249507904,68.7896151992651L167.7249166170756,68.68381759986252L169.01510828336077,67.06522942180517L170.305299949646,60.54759162684107L171.5954916159312,58.91883696413751L172.8856832822164,60.23513120756773L174.1758749485016,59.84993560157643L175.46606661478677,63.033471812794076L176.75625828107198,65.24319428334442L178.04644994735716,64.55871561065842L179.3366416136424,64.62474951651868L180.62683327992758,65.18181336420533L181.91702494621276,64.47865476097896L183.20721661249797,62.805863599616785L184.49740827878315,61.506227168472876L185.78759994506837,63.450958093616634L187.07779161135355,64.47858334163858L188.36798327763873,63.485039834767946L189.65817494392397,63.12586599887743L190.94836661020915,61.251197182821656L192.23855827649436,57.55663000566648L193.52874994277954,56.6830793779786L194.81894160906472,57.37633811929459L196.10913327534993,57.90488964030341L197.39932494163511,56.81877202206688L198.68951660792035,56.00296756333631L199.97970827420554,51.43630652954019L201.26989994049072,49.86636221621035L202.56009160677593,43.6173460679193L203.8502832730611,43.55946366355951L205.14047493934632,42.319238563449574L206.4306666056315,39.28767681894411L207.72085827191668,37.95633426233695L209.01104993820192,36.0262314226205L210.3012416044871,37.05665171743058L211.5914332707723,35.20478913716914L212.8816249370575,34.4092272720803L214.17181660334268,33.05569831610089L215.4620082696279,30.649973841213466L216.75219993591307,29.502252554704057L218.0423916021983,27.926784722648165L219.3325832684835,28.285920024255148L220.62277493476867,27.08623156271466L221.91296660105388,26.340911556136376L223.20315826733906,24.54242136669589L224.49334993362427,26.264466939763565L225.78354159990946,22.157135162407712L227.07373326619464,23.47910596217821L228.36392493247988,21.171402903143502L229.65411659876506,22.087220151645397L230.94430826505027,17.6543590270484L232.23449993133545,14.830895756109868L233.52469159762063,12.180512476745605L234.81488326390584,12.366820164492452L236.10507493019102,11.493938588955729L237.39526659647626,8.50945511330346L238.68545826276144,7.646537572288736L239.97564992904663,5.08289026139434L241.26584159533184,8.66967843760051L242.55603326161702,9.336940016312468L243.84622492790223,9.097192049157286L245.1364165941874,10.806410402479656L246.4266082604726,7.418850851859872L247.71679992675783,4.657936852045708L249.006991593043,-0.5051242864297762" fill="none"></path></g><g><path style="fill: none;" stroke="rgb(238, 51, 119)" stroke-width="2px" d="M25.803833325703938,103.55930581662486L27.094024991989134,108.61858746667144L28.38421665827433,79.78331476909814L29.674408324559533,90.460532377197L30.96459999084473,101.94062605776307L32.25479165712993,88.22278699896236L33.544983323415124,68.55339617819193L34.83517498970032,66.08828811675293L36.125366655985516,85.47902858273605L37.41555832227071,87.95251206702177L38.70574998855591,92.10550104931494L39.99594165484111,97.11782111175573L41.2861333211263,100.0359999235103L42.5763249874115,90.86327471503391L43.86651665369669,90.75856270829942L45.156708319981895,91.69292186093196L46.44689998626709,93.09470188632928L47.73709165255229,94.66492183488951L49.02728331883748,105.09642784901689L50.31747498512268,110.26757842785771L51.607666651407875,114.07997851564059L52.89785831769308,117.56640477818902L54.18804998397827,115.5031382192085L55.47824165026347,118.19467784003032L56.76843331654866,115.28664879238595L58.05862498283386,116.51447694092553L59.348816649119065,116.14923826211495L60.639008315404254,116.97105232191787L61.92919998168946,116.97277995099319L63.219391647974646,122.82150643217716L64.50958331425986,124.44856175037725L65.79977498054504,126.78128488774286L67.08996664683025,123.41780295474686L68.38015831311543,124.55452261734493L69.67034997940064,117.16058627098246L70.96054164568582,116.05879971860878L72.25073331197103,116.16660448455895L73.54092497825623,113.59929767844008L74.83111664454142,113.46259535967098L76.12130831082662,108.41569248313135L77.41149997711182,101.6309886494443L78.70169164339701,102.94532409435683L79.99188330968222,102.86013153188608L81.2820749759674,105.04659475779818L82.5722666422526,109.08528485796265L83.8624583085378,103.0279144642703L85.152649974823,109.74676757453607L86.4428416411082,111.8276293671165L87.73303330739338,112.22113746746598L89.02322497367858,115.96558427236533L90.31341663996379,115.35558715394265L91.60360830624899,117.03869349905335L92.89379997253418,118.1856243153407L94.18399163881936,119.65536536101324L95.47418330510457,123.17478835138212L96.76437497138977,123.01423108637806L98.05456663767497,125.72697943435277L99.34475830396018,127.90177011655409L100.63494997024536,128.4573094031398L101.92514163653055,126.97085876463757L103.21533330281575,129.4430227198052L104.50552496910096,129.77768329118754L105.79571663538616,132.0170992018714L107.08590830167134,129.5681897126246L108.37609996795653,131.10112954313638L109.66629163424174,131.81379833578063L110.95648330052694,128.18700211325938L112.24667496681214,129.08438607185818L113.53686663309732,128.7897528579957L114.82705829938253,128.03438814609655L116.11724996566772,130.5932471494267L117.40744163195292,130.61247588094915L118.69763329823813,130.7786308526488L119.98782496452331,130.07571605292134L121.27801663080851,128.4553648570135L122.5682082970937,130.11143452582016L123.85839996337891,129.12712254388674L125.14859162966411,129.24844956587285L126.43878329594929,129.72554098912877L127.72897496223449,129.7926345503298L129.0191666285197,127.92444304614683L130.3093582948049,129.75629863265996L131.59954996109008,133.36077828018318L132.8897416273753,134.07972247247613L134.1799332936605,134.77913070311504L135.47012495994568,140.04090410483823L136.76031662623086,137.91958039823052L138.05050829251607,140.61244653175333L139.34069995880128,140.8748413686216L140.63089162508646,141.99622943043084L141.92108329137164,140.6735489401148L143.21127495765685,137.53538329891987L144.50146662394206,132.98308780758512L145.79165829022725,131.70319311294583L147.08184995651246,132.3727492706424L148.37204162279767,133.27705683384778L149.66223328908285,134.82917772585785L150.95242495536803,134.05493139709498L152.24261662165324,134.0855634375039L153.53280828793845,134.41328239300785L154.82299995422363,135.576511650265L156.11319162050881,134.79452071209823L157.40338328679402,136.22594729988614L158.6935749530792,135.12663690528018L159.98376661936445,134.08603244683044L161.27395828564963,134.08200478542642L162.5641499519348,136.90367956287227L163.85434161822002,135.07450041285034L165.1445332845052,136.48093125919723L166.4347249507904,135.38738400073203L167.7249166170756,137.89898716678428L169.01510828336077,137.60717777723133L170.305299949646,140.56106920313948L171.5954916159312,143.51212441033232L172.8856832822164,145.7403736216846L174.1758749485016,146.59627386541598L175.46606661478677,147.09361409403692L176.75625828107198,148.94518796706103L178.04644994735716,153.18374938065813L179.3366416136424,157.9190013177514L180.62683327992758,158.2461526875395L181.91702494621276,161.52715119210112L183.20721661249797,164.22697639763248L184.49740827878315,164.56715921838827L185.78759994506837,163.82054232036955L187.07779161135355,161.765287685191L188.36798327763873,162.13630157758348L189.65817494392397,167.8912845631374L190.94836661020915,170.279756497327L192.23855827649436,168.98370188088802L193.52874994277954,169.57507725920047L194.81894160906472,169.09484661326414L196.10913327534993,165.79468564323514L197.39932494163511,168.7302337982392L198.68951660792035,172.72777523388115L199.97970827420554,173.90284785572942L201.26989994049072,172.33545780502644L202.56009160677593,171.95194188185442L203.8502832730611,168.2461879399267L205.14047493934632,166.0286862108813L206.4306666056315,166.02546165001206L207.72085827191668,165.83554566244771L209.01104993820192,163.5050203139194L210.3012416044871,162.29480244359095L211.5914332707723,162.72662333628838L212.8816249370575,161.26556760036974L214.17181660334268,162.15974622750306L215.4620082696279,160.4754595729635L216.75219993591307,152.5559681065515L218.0423916021983,155.96758544036126L219.3325832684835,155.1543095057487L220.62277493476867,152.73537082411087L221.91296660105388,154.86820091441263L223.20315826733906,155.92173220847863L224.49334993362427,157.38310671653798L225.78354159990946,159.49402801235678L227.07373326619464,160.9324747118455L228.36392493247988,166.05046260550154L229.65411659876506,166.302143604431L230.94430826505027,164.88118627117592L232.23449993133545,164.65032526266756L233.52469159762063,166.28101733319238L234.81488326390584,165.60307174649475L236.10507493019102,161.05440382337187L237.39526659647626,160.15343357210955L238.68545826276144,162.24308219454502L239.97564992904663,164.02980396673712L241.26584159533184,165.04249293261594L242.55603326161702,165.88193125881017L243.84622492790223,167.19671753068457L245.1364165941874,166.89673306380664L246.4266082604726,166.65232198098244L247.71679992675783,164.51477842950428L249.006991593043,161.1236481902265L250.29718325932822,162.18204201859567L251.5873749256134,161.6844941696862L252.87756659189859,163.1648322484962L254.1677582581838,164.05031713896906L255.45794992446898,166.82310187900316L256.7481415907542,165.99844758212237L258.0383332570394,165.09512941313437L259.3285249233246,165.3693657882022L260.6187165896098,167.1325059923225L261.90890825589497,166.92717240475312L263.19909992218015,168.72784129394506L264.48929158846533,171.18904849636957L265.7794832547506,169.6371174693412L267.06967492103576,168.83405896588502L268.359866587321,166.3063585515071L269.6500582536062,165.69457073651446L270.94024991989136,165.90754677364657L272.23044158617654,165.76657325623526L273.5206332524617,165.84703427401587L274.81082491874696,160.33885223072778L276.10101658503214,157.98913490352828L277.3912082513174,156.22671825915504L278.68139991760256,154.7271703328547L279.97159158388774,152.33817451402632L281.2617832501729,150.30168058928854" fill="none"></path></g><g><path style="fill: none;" stroke="rgb(51, 187, 238)" stroke-width="2px" d="M25.803833325703938,124.91813189834203L27.094024991989134,114.750791945995L28.38421665827433,127.21918494333173L29.674408324559533,127.24638922125902L30.96459999084473,163.1044298737206L32.25479165712993,120.01725897730859L33.544983323415124,75.64697066910666L34.83517498970032,64.43807997246807L36.125366655985516,59.59378456687699L37.41555832227071,58.993448953787095L38.70574998855591,61.356431693598225L39.99594165484111,70.33173293267708L41.2861333211263,73.41409773588475L42.5763249874115,50.76111467193883L43.86651665369669,57.05272929885385L45.156708319981895,59.64727452215442L46.44689998626709,63.220350490314175L47.73709165255229,57.87224709925894L49.02728331883748,55.2109950616408L50.31747498512268,58.30638425971168L51.607666651407875,55.92608950922428L52.89785831769308,49.43344825639747L54.18804998397827,36.42195251628007L55.47824165026347,41.35633091063369L56.76843331654866,40.087828157251806L58.05862498283386,45.727139162531785L59.348816649119065,44.40510424347116L60.639008315404254,44.30052294705865L61.92919998168946,48.89981560360462L63.219391647974646,54.88134313124948L64.50958331425986,55.475062793840394L65.79977498054504,50.76774758884538L67.08996664683025,51.73643541802805L68.38015831311543,44.62079559456615L69.67034997940064,50.698940786268835L70.96054164568582,51.09999423945864L72.25073331197103,55.159989908125L73.54092497825623,51.61299704508208L74.83111664454142,55.482955087416016L76.12130831082662,49.8607768147169L77.41149997711182,47.472290883225554L78.70169164339701,51.288413049350595L79.99188330968222,51.87808417348988L81.2820749759674,56.498334566019665L82.5722666422526,58.30810901504222L83.8624583085378,57.78214675237683L85.152649974823,52.53943349215933L86.4428416411082,51.950172928664685L87.73303330739338,53.406035119160265L89.02322497367858,54.017783556483394L90.31341663996379,57.094742030124394L91.60360830624899,58.25113514028625L92.89379997253418,57.59964823229144L94.18399163881936,57.07655755970565L95.47418330510457,57.09248605703074L96.76437497138977,58.42286085910908L98.05456663767497,62.14476901817524L99.34475830396018,58.203462798702034L100.63494997024536,60.138690535600844L101.92514163653055,57.191748121463704L103.21533330281575,57.953403964201954L104.50552496910096,59.713664955017535L105.79571663538616,59.110742748677566L107.08590830167134,59.86819833512007L108.37609996795653,62.64974667115084L109.66629163424174,62.039932565324094L110.95648330052694,61.40010054640332L112.24667496681214,59.73342960554925L113.53686663309732,59.87375655078657L114.82705829938253,59.549040458172115L116.11724996566772,58.817084797189494L117.40744163195292,56.230470424566064L118.69763329823813,58.02966258641109L119.98782496452331,55.80996360515405L121.27801663080851,58.2584604446223L122.5682082970937,57.36615623737366L123.85839996337891,57.672985443250596L125.14859162966411,64.57449022065619L126.43878329594929,62.79265626776734L127.72897496223449,58.20771934828174L129.0191666285197,58.372349869796054L130.3093582948049,60.07340931763348L131.59954996109008,60.08990984249054L132.8897416273753,61.25732756583359L134.1799332936605,63.016624479850535L135.47012495994568,63.30332780828121L136.76031662623086,64.35624521553599L138.05050829251607,67.31311435539725L139.34069995880128,64.22869056401446L140.63089162508646,66.05055091735115L141.92108329137164,64.4400965645188L143.21127495765685,64.77800027753553L144.50146662394206,57.11691786415216L145.79165829022725,54.36956244932152L147.08184995651246,57.78276152033368L148.37204162279767,59.1759272250942L149.66223328908285,60.29335574675876L150.95242495536803,62.24489513554086L152.24261662165324,63.28066595392305L153.53280828793845,65.57720803400555L154.82299995422363,65.71074745695462L156.11319162050881,66.0788501109373L157.40338328679402,68.0530753616888L158.6935749530792,72.46094752160354L159.98376661936445,76.53619397003835L161.27395828564963,72.77490101452743L162.5641499519348,74.06756794054758L163.85434161822002,74.04226139242357L165.1445332845052,73.15774846303177L166.4347249507904,68.84650936851081L167.7249166170756,71.0407705453697L169.01510828336077,69.9071859154046L170.305299949646,69.45054635075819L171.5954916159312,72.97230071734126L172.8856832822164,77.80305475657111L174.1758749485016,73.9254067784258L175.46606661478677,71.69342264184652L176.75625828107198,73.42056422569085L178.04644994735716,72.55582110666987L179.3366416136424,76.48722167129104L180.62683327992758,74.90792451282746L181.91702494621276,78.28369625184831L183.20721661249797,78.89741018866542L184.49740827878315,76.52754606724737L185.78759994506837,77.08104527309119L187.07779161135355,76.18932453778824L188.36798327763873,76.5236707902872L189.65817494392397,81.10577080982645L190.94836661020915,81.22215340995416L192.23855827649436,82.28020421106142L193.52874994277954,82.7517933235565L194.81894160906472,81.91272525163834L196.10913327534993,81.61122823695007L197.39932494163511,84.02436254017528L198.68951660792035,84.57044206567564L199.97970827420554,83.17581617584598L201.26989994049072,81.7987958598913L202.56009160677593,82.14364841620426L203.8502832730611,81.33196986647098L205.14047493934632,80.04450405221948L206.4306666056315,81.52305436612185L207.72085827191668,82.82931567065044L209.01104993820192,82.80208900922793L210.3012416044871,84.06274013513688L211.5914332707723,85.18062924283086L212.8816249370575,85.7906840416723L214.17181660334268,85.3200566791078L215.4620082696279,84.5871915535338L216.75219993591307,84.80901691665615L218.0423916021983,86.71637381007453L219.3325832684835,89.85295853672406L220.62277493476867,88.4799317579376L221.91296660105388,88.23220066070495L223.20315826733906,87.94361755815275L224.49334993362427,88.12521633181221L225.78354159990946,87.93914692806938L227.07373326619464,88.78540371435237L228.36392493247988,88.78177353731654L229.65411659876506,89.98564648540773L230.94430826505027,88.42900009377794L232.23449993133545,89.88204702289708L233.52469159762063,89.17066899906176L234.81488326390584,88.69686416212534L236.10507493019102,86.39393471889461L237.39526659647626,82.93111849712244L238.68545826276144,82.54803243885983L239.97564992904663,83.47994899951534L241.26584159533184,84.40980094111002L242.55603326161702,84.51864204823471L243.84622492790223,84.94285050397825L245.1364165941874,84.27352892444331L246.4266082604726,84.7690810336543L247.71679992675783,83.85607614385248L249.006991593043,83.13927223058715L250.29718325932822,87.30320666930308L251.5873749256134,88.73831528841049L252.87756659189859,90.11640109280299L254.1677582581838,87.73968875100736L255.45794992446898,85.18518354653742L256.7481415907542,84.91039485842434L258.0383332570394,84.63892553630403L259.3285249233246,84.59146880524547L260.6187165896098,85.21235902590354L261.90890825589497,85.30533240734364L263.19909992218015,85.62388717727163L264.48929158846533,85.45063930378309L265.7794832547506,85.52576463877851L267.06967492103576,85.15025784481806L268.359866587321,81.81741557106294L269.6500582536062,80.60289230990018L270.94024991989136,77.98465309841234L272.23044158617654,76.78486669229909L273.5206332524617,78.55970458029105L274.81082491874696,75.51960986415229L276.10101658503214,74.03604743861376L277.3912082513174,76.12406378228587L278.68139991760256,76.9701927179797L279.97159158388774,75.64146359955974L281.2617832501729,65.72848744473791" fill="none"></path></g><g><path style="fill: none;" stroke="rgb(204, 51, 17)" stroke-width="2px" d="M25.803833325703938,108.69679302352515L27.094024991989134,299.6015854130648L30.96459999084473,181.31359583906487L32.25479165712993,168.1412283133212L33.544983323415124,141.96331709044645L34.83517498970032,116.24960599510361L36.125366655985516,88.40051827800951L37.41555832227071,81.2904514838751L38.70574998855591,81.47269900306325L39.99594165484111,90.56488086658858L41.2861333211263,90.82957383158329L42.5763249874115,85.56126040167007L43.86651665369669,85.63594493839233L45.156708319981895,86.79588459657207L46.44689998626709,92.4723499296946L47.73709165255229,92.55137195879296L49.02728331883748,102.1027627564475L50.31747498512268,94.58956478791919L51.607666651407875,93.00442994546545L52.89785831769308,96.97205747079563L54.18804998397827,94.58651432744487L55.47824165026347,94.4792252015071L56.76843331654866,99.4064927161971L58.05862498283386,96.71130336791161L59.348816649119065,97.7213361672381L60.639008315404254,98.97945615872834L61.92919998168946,101.95812469219491L63.219391647974646,106.89898427511685L64.50958331425986,101.69852133748434L65.79977498054504,99.85708165568873L67.08996664683025,98.03363417632664L68.38015831311543,90.4357572049277L69.67034997940064,95.33899269026642L70.96054164568582,95.92189804908061L72.25073331197103,96.5399101756613L73.54092497825623,95.12128177040957L74.83111664454142,95.25255479071569L76.12130831082662,92.17259346691232L77.41149997711182,90.74598935781735L78.70169164339701,95.46830465167864L79.99188330968222,96.34222857339931L81.2820749759674,96.66630704765358L82.5722666422526,95.00017623011647L83.8624583085378,100.11521330845775L85.152649974823,101.50746320152611L86.4428416411082,101.39207830649484L87.73303330739338,101.18183036650107L89.02322497367858,102.12019259245244L90.31341663996379,103.9853716907986L91.60360830624899,106.30694434370758L92.89379997253418,105.73186136887009L94.18399163881936,109.12818061184537L95.47418330510457,108.19439770832753L96.76437497138977,107.08190229629794L98.05456663767497,107.20683484854814L99.34475830396018,107.10170682031253L100.63494997024536,105.07225332015847" fill="none"></path></g><g><path style="fill: none;" stroke="rgb(0, 119, 187)" stroke-width="2px" d="M25.803833325703938,120.35996784247013L27.094024991989134,254.47755942731007L30.96459999084473,198.48165232505696L32.25479165712993,161.60368393847978L33.544983323415124,127.0874007015299L34.83517498970032,100.82084527308679L36.125366655985516,93.94420894404865L37.41555832227071,99.64344328960158L38.70574998855591,89.97207823577195L39.99594165484111,89.11003602552935L41.2861333211263,91.63732458382684L42.5763249874115,75.0397520497873L43.86651665369669,82.68530293194644L45.156708319981895,86.41740784539003L46.44689998626709,82.57922114573509L47.73709165255229,82.82946094555327L49.02728331883748,95.8638384600766L50.31747498512268,97.1093997883751L51.607666651407875,90.48763461126262L52.89785831769308,84.2895014347691L54.18804998397827,87.02883403799089L55.47824165026347,90.54367640628067L56.76843331654866,91.93524797277351L58.05862498283386,89.93470786048456L59.348816649119065,89.75305650209228L60.639008315404254,89.6068597272592L61.92919998168946,92.20737116154075L63.219391647974646,92.8990594346952L64.50958331425986,87.78512665514685L65.79977498054504,84.30348631157281L67.08996664683025,85.6222403140328L68.38015831311543,99.31610365118185L69.67034997940064,106.71442473306344L70.96054164568582,105.76483041154029L72.25073331197103,107.3869801902507L73.54092497825623,100.80816419890046L74.83111664454142,101.39506170062971L76.12130831082662,96.60102409511155L77.41149997711182,90.14498110266923L78.70169164339701,89.69712046764914L79.99188330968222,88.19132953469922L81.2820749759674,83.98237095061897L82.5722666422526,84.0852132028954L83.8624583085378,87.48617438048373L85.152649974823,82.25216678393424L86.4428416411082,84.02295608525358L87.73303330739338,83.98884871865621L89.02322497367858,87.10578629333433L90.31341663996379,84.32144817671355L91.60360830624899,79.77772411848845L92.89379997253418,75.43161198972312L94.18399163881936,72.69995158835619L95.47418330510457,71.9905231153935L96.76437497138977,74.87081481522911L98.05456663767497,78.22032558109792L99.34475830396018,77.85972219829875L100.63494997024536,75.26347294603104" fill="none"></path></g><g><path style="fill: none;" stroke="rgb(255, 112, 67)" stroke-width="2px" d="M25.803833325703938,114.38674206364036L27.094024991989134,200.7460505930073L28.38421665827433,184.83719600217233L29.674408324559533,170.56401166873255L30.96459999084473,159.7961990930929L32.25479165712993,144.3007519420897L33.544983323415124,111.63538613178277L34.83517498970032,88.84084868007874L36.125366655985516,78.46240833370119L37.41555832227071,80.31180231179275L38.70574998855591,78.7668273326441L39.99594165484111,85.78532691057886L41.2861333211263,88.25502343927629L42.5763249874115,72.22717409294633L43.86651665369669,70.13581509712631L45.156708319981895,68.05100860023062L46.44689998626709,76.00280820498241L47.73709165255229,75.8064601849405L49.02728331883748,76.81032984876252L50.31747498512268,67.67562821874712L51.607666651407875,73.36487602185565L52.89785831769308,77.00801884271276L54.18804998397827,76.67591797177023L55.47824165026347,78.78790925715316L56.76843331654866,76.15268942416496L58.05862498283386,73.27710259992325L59.348816649119065,72.39913739433803L60.639008315404254,67.06921730429454L61.92919998168946,66.48742407982529L63.219391647974646,71.63344072455851L64.50958331425986,75.45149021120216L65.79977498054504,78.35760349946406L67.08996664683025,73.72627123131052L68.38015831311543,75.68077935454944L69.67034997940064,78.24779288419771L70.96054164568582,75.56127031680096L72.25073331197103,75.24235881489737L73.54092497825623,75.86424535550299L74.83111664454142,70.38038345466543L76.12130831082662,69.33661009557295L77.41149997711182,71.18904504723488L78.70169164339701,72.75058285948293L79.99188330968222,73.91632813629084L81.2820749759674,74.9564331067811L82.5722666422526,74.14296690849905L83.8624583085378,77.94173384899759L85.152649974823,81.37177092754155L86.4428416411082,82.4568801723299L87.73303330739338,84.85703704870319L89.02322497367858,86.73470762088162L90.31341663996379,87.09695475484375L91.60360830624899,82.76199094809041L92.89379997253418,81.08460134270636L94.18399163881936,82.92651033344835L95.47418330510457,83.39100087029641L96.76437497138977,86.07482793242592L98.05456663767497,81.9875009528059L99.34475830396018,83.87047160084312L100.63494997024536,81.64811583172688" fill="none"></path></g></g></g></g><g opacity="0.2"><g><g><g><path style="fill: none;" stroke="rgb(0, 153, 136)" stroke-width="2px" d="M25.803833325703938,125.11147244469147L27.094024991989134,44.515841597083636L28.38421665827433,-56.72956561090706L29.674408324559533,162.3254222419026L30.96459999084473,137.2704471861337L32.25479165712993,157.76261370948203L33.544983323415124,168.55224663633825L34.83517498970032,-94.08299854346762L36.125366655985516,222.8531699879206L37.41555832227071,5.962668765266756L38.70574998855591,183.73769730664165L39.99594165484111,5.0288699758812925L41.2861333211263,320.87258918057825L42.5763249874115,-154.25008153160968L43.86651665369669,167.90867665099324L45.156708319981895,134.93524703681112L46.44689998626709,44.05109860835847L47.73709165255229,353.836067098416L51.607666651407875,440.48672182861065L52.89785831769308,12.03927077104646L54.18804998397827,-237.64985113322393L63.219391647974646,379.3289859389641L64.50958331425986,11.391636429236513L65.79977498054504,-13.579038388677048L70.96054164568582,337.52979395551097L72.25073331197103,94.3598341913138L73.54092497825623,-32.75912563753644L74.83111664454142,168.41505468232933L76.12130831082662,-21.086331372840505L77.41149997711182,64.4059114472503L78.70169164339701,-142.68825779314085L79.99188330968222,60.85473272416775L81.2820749759674,427.9165626597031L85.152649974823,199.2242789366993L86.4428416411082,124.92461049192288L87.73303330739338,113.26707514336704L89.02322497367858,124.19216376584032L90.31341663996379,185.90209603981504L91.60360830624899,252.36762657147017L92.89379997253418,139.38385394993253L94.18399163881936,202.28606366935998L95.47418330510457,145.98498529988845L96.76437497138977,337.92201607397874L98.05456663767497,62.40651996114805L99.34475830396018,118.06508779690213L100.63494997024536,120.86871088861194L101.92514163653055,-212.25698952957134L103.21533330281575,90.23617656223037L104.50552496910096,142.01350195844952L105.79571663538616,97.35717285649784L107.08590830167134,211.96209398174676L108.37609996795653,-93.03264132369566L109.66629163424174,159.51527953802017L110.95648330052694,124.72563047518432L112.24667496681214,-60.239013190677895L113.53686663309732,102.61611728560233L114.82705829938253,-80.52903071808316L116.11724996566772,191.39564278869477L117.40744163195292,109.14264870867778L118.69763329823813,-4.69061426067168L119.98782496452331,129.8756201488575L121.27801663080851,30.536996166339833L122.5682082970937,61.863086905962604L123.85839996337891,68.26350608264734L125.14859162966411,-6.010297210115823L126.43878329594929,211.0829999302714L127.72897496223449,41.1796002948997L129.0191666285197,22.6900973693175L130.3093582948049,119.52464180037795L131.59954996109008,170.41708483584247L132.8897416273753,-19.521943224467066L134.1799332936605,32.15797590784496L135.47012495994568,3.496284127690558L136.76031662623086,107.7900336898375L138.05050829251607,132.13013790011934L139.34069995880128,55.02216086849269L140.63089162508646,97.4031511819978L141.92108329137164,76.48050039777445L143.21127495765685,173.9991857173242L144.50146662394206,15.464768528931842L145.79165829022725,31.878786964790663L147.08184995651246,130.38484135458344L148.37204162279767,176.29661125950173L149.66223328908285,127.51071785125109L150.95242495536803,51.47402924079911L152.24261662165324,17.60051050193175L153.53280828793845,18.449853182813143L154.82299995422363,-30.234874314604298L156.11319162050881,92.36502741181216L157.40338328679402,156.00867513263913L158.6935749530792,-55.71913002856954L159.98376661936445,53.66916613468857L161.27395828564963,79.75748741424063L162.5641499519348,22.20101512019309L163.85434161822002,75.2018547914611L165.1445332845052,111.92382642696853L166.4347249507904,27.83853536826183L167.7249166170756,66.83453085335957L169.01510828336077,38.76974162070837L170.305299949646,-53.40405008449224L171.5954916159312,30.43930160033051L172.8856832822164,83.25349964726573L174.1758749485016,53.113272803281774L175.46606661478677,118.71523013260916L176.75625828107198,103.8957660894745L178.04644994735716,52.584803330375706L179.3366416136424,65.78000145682422L180.62683327992758,74.92826312824441L181.91702494621276,52.17526433442052L183.20721661249797,33.5345879748331L184.49740827878315,38.76317864602444L185.78759994506837,97.48486021681269L187.07779161135355,82.46360814134258L188.36798327763873,46.095587106217465L189.65817494392397,56.839129785416134L190.94836661020915,28.436722383667473L192.23855827649436,-7.1164772174136885L193.52874994277954,41.39100308514713L194.81894160906472,69.51276831373293L196.10913327534993,67.15824489180523L197.39932494163511,37.80342797960313L198.68951660792035,41.71968623299634L199.97970827420554,-28.520325305462563L201.26989994049072,22.377737277075028L202.56009160677593,-65.80165927328116L203.8502832730611,42.54592724299033L205.14047493934632,20.602011968200998L206.4306666056315,-13.798410505326416L207.72085827191668,14.642484055104433L209.01104993820192,2.226442283131803L210.3012416044871,55.10164786759317L211.5914332707723,2.7738506258400832L212.8816249370575,20.4766122733474L214.17181660334268,9.35103883779729L215.4620082696279,-11.482711766493196L216.75219993591307,9.401311223876206L218.0423916021983,0.33398040598694934L219.3325832684835,34.57591641657564L220.62277493476867,6.074276837605993L221.91296660105388,13.28683600439237L223.20315826733906,-6.9580095058312L224.49334993362427,56.426309302118995L225.78354159990946,-49.78404450833153L227.07373326619464,46.63406042767747L228.36392493247988,-19.249504769659154L229.65411659876506,38.128492115698066L230.94430826505027,-59.991401531531494L233.52469159762063,-34.24417679765935L234.81488326390584,15.630249247747997L236.10507493019102,-3.7958557949774843L239.97564992904663,-39.82394286850953L241.26584159533184,71.49897759639862L242.55603326161702,21.025333210992443L243.84622492790223,4.8975167254215535L245.1364165941874,40.74699713076956L246.4266082604726,-51.92169911966795L252.87756659189859,-88.86265846902177L254.1677582581838,25.91230229852914L255.45794992446898,-42.141497991610464L256.7481415907542,-172.7864722234695L258.0383332570394,43.593434256613875L259.3285249233246,-30.791152048814013L263.19909992218015,-43.7834417493917L264.48929158846533,4.9043609704490905L265.7794832547506,-21.475609528378612L267.06967492103576,20.056056855601327L268.359866587321,-75.71392620333549" fill="none"></path></g><g><path style="fill: none;" stroke="rgb(238, 51, 119)" stroke-width="2px" d="M25.803833325703938,103.55930581662486L27.094024991989134,113.40466790761558L28.38421665827433,26.699999895772237L29.674408324559533,119.15562448525694L30.96459999084473,141.9875688327699L32.25479165712993,29.97672439325106L33.544983323415124,-29.060364365168596L34.83517498970032,52.18326178785678L36.125366655985516,207.29432121689467L37.41555832227071,104.99209694690742L38.70574998855591,123.09884718892297L39.99594165484111,137.24597666624078L41.2861333211263,124.8976741686844L42.5763249874115,8.258041033936024L43.86651665369669,89.76743953462615L45.156708319981895,100.94317753595674L46.44689998626709,107.54915845542018L47.73709165255229,111.46734341066703L49.02728331883748,220.561135460662L50.31747498512268,169.30725593181631L51.607666651407875,158.86272179323748L52.89785831769308,159.60672521456257L54.18804998397827,90.01532308843808L55.47824165026347,152.19438909839744L56.76843331654866,77.78489161620503L58.05862498283386,132.65496023423677L59.348816649119065,111.26172541381958L60.639008315404254,128.15190172651455L61.92919998168946,116.99664958187591L63.219391647974646,204.79914855965137L64.50958331425986,147.56160167644975L65.79977498054504,160.33598655400388L67.08996664683025,74.46705477017046L68.38015831311543,141.27987389692387L69.67034997940064,7.248543019410533L70.96054164568582,99.52270135888466L72.25073331197103,117.79919825326093L73.54092497825623,74.39084925841193L74.83111664454142,111.35826677142015L76.12130831082662,30.14700545926462L77.41149997711182,-4.324475278733502L78.70169164339701,123.60602918465783L79.99188330968222,101.51267028847643L81.2820749759674,139.83006356693414L82.5722666422526,173.68612127726297L83.8624583085378,5.639114113349109L85.152649974823,218.29345425731987L86.4428416411082,145.59822451392554L87.73303330739338,118.63483369273106L89.02322497367858,177.24207866628728L90.31341663996379,105.33519988770503L91.60360830624899,144.7861946880418L92.89379997253418,137.15775153513258L94.18399163881936,144.04483637990626L95.47418330510457,181.75312935362683L96.76437497138977,120.33428786009972L98.05456663767497,171.12799328536408L99.34475830396018,164.39131189703L100.63494997024536,137.80058084190608L101.92514163653055,101.914966573084L103.21533330281575,171.20270337646247L104.50552496910096,135.44207744461647L105.79571663538616,169.99265784901274L107.08590830167134,87.96593111092241L108.37609996795653,157.1867361201627L109.66629163424174,143.96039433491944L110.95648330052694,66.2795844654429L112.24667496681214,144.423998178753L113.53686663309732,123.74662216590472L114.82705829938253,115.0886897087989L116.11724996566772,174.50037899865998L117.40744163195292,130.94279264733754L118.69763329823813,133.63594212376057L119.98782496452331,117.97570945738516L121.27801663080851,100.5359262054628L122.5682082970937,158.67207792630728L123.85839996337891,112.13715591906961L125.14859162966411,131.34433418985645L126.43878329594929,137.97342146804638L127.72897496223449,130.95337310009583L129.0191666285197,95.58216009916092L130.3093582948049,161.48995204875933L131.59954996109008,195.84001541118525L132.8897416273753,146.54891124352446L134.1799332936605,146.9160932696535L135.47012495994568,231.39642383810295L136.76031662623086,101.0709961557653L138.05050829251607,187.41055885418317L139.34069995880128,145.4368667495626L140.63089162508646,161.50082314753934L141.92108329137164,117.6588771666795L143.21127495765685,82.9111467607177L144.50146662394206,53.716353922666L145.79165829022725,109.4097289634402L147.08184995651246,144.0388406337486L148.37204162279767,149.0380014295875L149.66223328908285,161.88821913569487L150.95242495536803,120.55348652670384L152.24261662165324,134.619863288375L153.53280828793845,140.13087047981338L154.82299995422363,155.8754467465554L156.11319162050881,121.1455137215847L157.40338328679402,161.21529155823697L158.6935749530792,115.93164755288066L159.98376661936445,115.9128680696065L161.27395828564963,134.0116536730592L162.5641499519348,186.19769007565958L163.85434161822002,103.11434550873268L165.1445332845052,161.05815988078655L166.4347249507904,116.27518646271083L167.7249166170756,181.800497916398L169.01510828336077,132.50588695213042L170.305299949646,192.20566621946085L172.8856832822164,184.70632791220225L174.1758749485016,161.5650617781376L175.46606661478677,155.7923618309764L176.75625828107198,181.33300726800385L179.3366416136424,240.76142774845982L180.62683327992758,163.97002869226986L181.91702494621276,218.93582884370454L183.20721661249797,211.46977009191244L184.49740827878315,170.5202044036039L185.78759994506837,150.7543200979743L187.07779161135355,125.79516564455056L188.36798327763873,168.62995635845513L189.65817494392397,268.62261944289844L190.94836661020915,212.08791558211578L192.23855827649436,146.2963679776869L193.52874994277954,179.92749086434188L194.81894160906472,160.68776082510263L196.10913327534993,108.01874398189425L197.39932494163511,220.12472108337613L199.97970827420554,194.47692775988506L201.26989994049072,144.89155621483366L202.56009160677593,165.23665585119326L203.8502832730611,103.35744277886442L205.14047493934632,127.19864840503033L206.4306666056315,165.9689959289372L207.72085827191668,162.50982542308424L209.01104993820192,122.69306783989386L210.3012416044871,141.10114300100474L211.5914332707723,170.2889322075009L212.8816249370575,135.67820858590514L214.17181660334268,177.8196992527671L215.4620082696279,130.97768423346074L216.75219993591307,13.855714649995207L218.0423916021983,215.7187828813784L219.3325832684835,140.9103667026211L220.62277493476867,110.36884677158842L221.91296660105388,192.22413513339728L223.20315826733906,174.37425972051065L224.49334993362427,182.97926295875038L228.36392493247988,255.69532194304782L229.65411659876506,170.7105377011964L230.94430826505027,139.9917729192266L232.23449993133545,160.60654401338903L233.52469159762063,194.84457388208102L234.81488326390584,153.7279453292736L236.10507493019102,81.37784836098986L237.39526659647626,144.3715248522355L238.68545826276144,198.84677897679933L243.84622492790223,190.22788449946518L245.1364165941874,161.64186850525553L246.4266082604726,162.370924751738L247.71679992675783,127.07085322441708L249.006991593043,101.72007903984478L250.29718325932822,180.7223503077088L251.5873749256134,152.9687193225611L252.87756659189859,189.09668080726533L255.45794992446898,215.3956993572863L256.7481415907542,151.5524246979305L258.0383332570394,149.2710573484528L259.3285249233246,170.17337287281399L260.6187165896098,198.0188456569047L261.90890825589497,163.33017147546036L263.19909992218015,200.2717367280127L264.48929158846533,214.30425791599293L265.7794832547506,142.45047653250305L267.06967492103576,154.76610010397255L268.359866587321,122.02609147412254L269.6500582536062,154.97725209483028L270.94024991989136,169.6384734426573L272.23044158617654,163.29698743471474L273.5206332524617,167.25655897710234L274.81082491874696,63.845808436367705L276.10101658503214,116.82643414560921L277.3912082513174,125.3524039331775L278.68139991760256,128.45780666437147L279.97159158388774,110.4872522105646L281.2617832501729,114.62592498815704" fill="none"></path></g><g><path style="fill: none;" stroke="rgb(51, 187, 238)" stroke-width="2px" d="M25.803833325703938,124.91813189834203L27.094024991989134,105.13248835107474L28.38421665827433,150.17244910641682L29.674408324559533,127.31950089599579L30.96459999084473,288.1909441470246L33.544983323415124,-144.5505299867396L34.83517498970032,1.2116751375029366L36.125366655985516,29.161256037416848L37.41555832227071,54.8577958553728L38.70574998855591,78.99113823607654L39.99594165484111,142.18713717331048L41.2861333211263,99.67456859307075L42.5763249874115,-153.24095854420904L43.86651665369669,116.60430557959262L45.156708319981895,85.33355009223347L46.44689998626709,100.06412801895245L47.73709165255229,0.6439028219182603L49.02728331883748,25.754012724830943L50.31747498512268,93.64683262165191L51.607666651407875,27.96571644195825L52.89785831769308,-28.856668382335727L54.18804998397827,-124.31084109948199L55.47824165026347,103.6877338555112L56.76843331654866,23.72929753212682L58.05862498283386,119.85901598484593L59.348816649119065,26.71403528591773L60.639008315404254,42.877685613262855L61.92919998168946,112.44552666027207L63.219391647974646,138.72036768034133L64.50958331425986,63.90911301503324L65.79977498054504,-16.94391301183913L67.08996664683025,65.83432413585089L68.38015831311543,-60.07658894292885L69.67034997940064,141.05153863199192L70.96054164568582,57.119181290857426L72.25073331197103,116.64450379953168L73.54092497825623,-2.557422472120379L74.83111664454142,115.05519509871556L76.12130831082662,-37.329431196573665L77.41149997711182,10.171748197700538L78.70169164339701,111.27597175672277L79.99188330968222,61.20470803702726L81.2820749759674,129.999838508268L82.5722666422526,87.25634228809618L83.8624583085378,49.325864494290315L85.152649974823,-32.159419762275405L86.4428416411082,42.38698137182374L87.73303330739338,77.13479147104954L89.02322497367858,64.02882167326808L90.31341663996379,107.6397603209318L91.60360830624899,77.3153014018919L92.89379997253418,46.8229803417934L94.18399163881936,48.39618162759953L95.47418330510457,57.35760478544641L96.76437497138977,80.62882543599133L98.05456663767497,124.43525166029394L99.34475830396018,-7.92541072559834L100.63494997024536,92.6860881333499L101.92514163653055,7.517531224670364L103.21533330281575,70.81925968406237L104.50552496910096,89.50747073171765L105.79571663538616,48.88651084191386L107.08590830167134,72.73591081075656L108.37609996795653,109.98257352088775L109.66629163424174,51.646372955999055L110.95648330052694,50.47851973802851L112.24667496681214,31.24385666683318L113.53686663309732,62.2756823729849L114.82705829938253,53.983945151885976L116.11724996566772,46.25755194573867L117.40744163195292,11.796853237578432L118.69763329823813,88.96976621586347L119.98782496452331,17.599966712600775L121.27801663080851,100.44725104180483L122.5682082970937,41.97744237586852L123.85839996337891,62.96908877537619L125.14859162966411,183.79572806636475L126.43878329594929,31.988594906930928L127.72897496223449,-21.1130520554822L129.0191666285197,61.222446820030115L130.3093582948049,89.54125129998364L131.59954996109008,60.37592621826278L132.8897416273753,81.50472941298639L134.1799332936605,93.5460347061849L135.47012495994568,68.28110423047838L136.76031662623086,82.64601195916516L138.05050829251607,118.69921647438039L139.34069995880128,10.602560607309812L140.63089162508646,97.73864107216205L141.92108329137164,36.41815278603218L143.21127495765685,70.65969501813986L144.50146662394206,-76.28149225400153L145.79165829022725,6.515571255353279L147.08184995651246,117.25304156358166L148.37204162279767,83.45705499492678L149.66223328908285,79.77414799425969L150.95242495536803,96.27618529630813L152.24261662165324,81.34711488811283L153.53280828793845,105.64410504256031L154.82299995422363,68.04107749493092L156.11319162050881,72.50377839618605L157.40338328679402,102.51840865607583L158.6935749530792,149.42652484303693L159.98376661936445,147.70648637435605L161.27395828564963,7.076443071841737L162.5641499519348,96.65016234515456L163.85434161822002,73.60009519010175L165.1445332845052,57.70097962090949L166.4347249507904,-6.502089030216837L167.7249166170756,109.3953091704918L169.01510828336077,50.09032916115231L170.305299949646,61.46685199725955L171.5954916159312,134.55181930441984L172.8856832822164,162.2796654167982L174.1758749485016,6.109454381911831L175.46606661478677,32.65482121845261L176.75625828107198,103.63180793552601L178.04644994735716,57.42845678499846L179.3366416136424,145.26640520174521L180.62683327992758,47.27636938431533L181.91702494621276,137.35065142461036L183.20721661249797,89.63646131129119L184.49740827878315,35.055998014704926L185.78759994506837,86.76759756338409L187.07779161135355,60.58283805869078L188.36798327763873,82.3755517724405L189.65817494392397,161.3077544958554L190.94836661020915,83.25933131905632L192.23855827649436,100.8013000868074L193.52874994277954,91.00726983352311L194.81894160906472,67.22370587643834L196.10913327534993,76.33291784848916L197.39932494163511,126.27262205280627L198.68951660792035,94.13132078849756L199.97970827420554,58.75762792069993L201.26989994049072,57.68813494188524L202.56009160677593,88.18194673480482L203.8502832730611,67.1192608221827L205.14047493934632,57.50005883880013L206.4306666056315,107.41414869049368L207.72085827191668,105.70395468383867L209.01104993820192,82.32529813771787L210.3012416044871,106.13960025551873L211.5914332707723,104.75777999933497L212.8816249370575,96.47452776693454L214.17181660334268,77.0778529778274L215.4620082696279,71.75214903267018L216.75219993591307,88.69401814667921L218.0423916021983,120.12189593581066L219.3325832684835,144.78798309864317L220.62277493476867,64.43204146217047L221.91296660105388,83.89325841945497L223.20315826733906,82.88910454145783L224.49334993362427,91.30594143571054L225.78354159990946,84.68008407863292L227.07373326619464,103.60799840094055L228.36392493247988,88.7181886448723L229.65411659876506,111.07244453609606L230.94430826505027,61.16286438557816L232.23449993133545,115.33374180781861L233.52469159762063,76.71001699814951L234.81488326390584,80.3975368324516L236.10507493019102,46.05476540368343L237.39526659647626,22.27445480690625L238.68545826276144,75.83763827612752L239.97564992904663,99.80412171333147L241.26584159533184,100.69789573282307L242.55603326161702,86.4252071741236L243.84622492790223,92.37372804110741L245.1364165941874,72.54894103768956L246.4266082604726,93.4497652432498L247.71679992675783,67.86272397005612L249.006991593043,70.5827769548442L250.29718325932822,160.24451275042713L251.5873749256134,113.87777400122367L252.87756659189859,114.25704362036878L254.1677582581838,46.105459695277716L255.45794992446898,40.436324660588696L256.7481415907542,80.09673695133097L258.0383332570394,79.88340277139085L259.3285249233246,83.76013316583058L260.6187165896098,96.08899050696628L261.90890825589497,86.93402522569038L263.19909992218015,91.20429033353462L264.48929158846533,82.4156984261499L265.7794832547506,86.84180605570307L267.06967492103576,78.57213918089838L268.359866587321,23.43266982776953L269.6500582536062,59.326834715036966L270.94024991989136,32.11818552990411L272.23044158617654,55.76690848426854L273.5206332524617,109.65150426295703L274.81082491874696,22.262838341715707L276.10101658503214,48.04677823110532L277.3912082513174,112.70228898126354L278.68139991760256,91.79283915183301L279.97159158388774,52.364512397270616L281.2617832501729,-107.92924375856171" fill="none"></path></g><g><path style="fill: none;" stroke="rgb(204, 51, 17)" stroke-width="2px" d="M25.803833325703938,108.69679302352516L27.094024991989134,480.1975190135692L28.38421665827433,109.56176495983244L29.674408324559533,127.6586707398221L30.96459999084473,101.40767206921171L32.25479165712993,112.21124252757303L33.544983323415124,12.049565265622107L34.83517498970032,-28.79467639860701L36.125366655985516,-86.55127254212368L37.41555832227071,32.30989939609975L38.70574998855591,82.83279421866973L39.99594165484111,163.3560202200369L41.2861333211263,93.08464821022667L42.5763249874115,38.11731630737913L43.86651665369669,86.34285121751843L45.156708319981895,98.27941143476144L46.44689998626709,151.00522965189944L47.73709165255229,93.39696142407855L49.02728331883748,207.82561276891485L50.31747498512268,8.810437237404074L51.607666651407875,74.38448317296852L52.89785831769308,144.81483972861759L54.18804998397827,65.11757229494106L55.47824165026347,93.12394167722718L56.76843331654866,162.94822041237296L58.05862498283386,61.2815417192198L59.348816649119065,111.23728770880007L60.639008315404254,116.09628446066604L61.92919998168946,143.1126291118817L63.219391647974646,176.15167030752673L64.50958331425986,27.82364679140747L65.79977498054504,73.36917223800872L67.08996664683025,71.49592112533153L68.38015831311543,-21.357119708299336L69.67034997940064,168.22637033212618L70.96054164568582,104.67039867925754L72.25073331197103,105.8990766090309L73.54092497825623,73.45569099569911L74.83111664454142,97.27330741571537L76.12130831082662,44.40774940403935L77.41149997711182,68.46697704920533L78.70169164339701,169.7007724798445L79.99188330968222,110.16478044946982L81.2820749759674,101.82192703126121L82.5722666422526,68.34959355914422L83.8624583085378,182.35342765454908L85.152649974823,124.00000924277306L86.4428416411082,99.51948081345049L87.73303330739338,97.75504850887187L89.02322497367858,117.47614520012272L90.31341663996379,134.62456050311306L91.60360830624899,144.5801290025641L92.89379997253418,96.21904053816738L94.18399163881936,165.488061144099L95.47418330510457,92.65223255965894L96.76437497138977,88.51267378048416L98.05456663767497,109.29772711261992L99.34475830396018,105.3378250775786L100.63494997024536,70.94013092638406" fill="none"></path></g><g><path style="fill: none;" stroke="rgb(0, 119, 187)" stroke-width="2px" d="M25.803833325703938,120.35996784247013L27.094024991989134,381.35280106656865L28.38421665827433,185.45700623036885L29.674408324559533,147.5926187635899L30.96459999084473,166.0273349140785L32.25479165712993,5.0195130491176485L33.544983323415124,-44.20739116261717L34.83517498970032,-47.34188662301716L36.125366655985516,50.74423583162449L37.41555832227071,138.90490915277525L38.70574998855591,17.79563711496303L39.99594165484111,82.20860844783763L41.2861333211263,113.16877584611898L42.5763249874115,-74.43015210109056L43.86651665369669,155.05219657788166L45.156708319981895,123.3656461733418L46.44689998626709,43.001753961823454L47.73709165255229,85.50719702669205L49.02728331883748,240.13932337817036L50.31747498512268,111.33013036138234L51.607666651407875,12.704400128228173L52.89785831769308,9.55064702496992L54.18804998397827,120.86818585063722L55.47824165026347,134.94340387677545L56.76843331654866,109.88086616464311L58.05862498283386,63.636496422341025L59.348816649119065,87.32225330527903L60.639008315404254,87.61784030936501L61.92919998168946,128.1371022186023L63.219391647974646,102.59398599740032L64.50958331425986,15.139451249527667L65.79977498054504,34.222359594674344L67.08996664683025,104.81484975205078L68.38015831311543,300.80349075671216L69.67034997940064,216.69164777756993L70.96054164568582,91.51290015452913L72.25073331197103,131.95279226064244L73.54092497825623,0.33510548736131796L74.83111664454142,110.42947459415073L76.12130831082662,22.253837690720587L77.41149997711182,-10.677847302612548L78.70169164339701,82.65697212688731L79.99188330968222,64.37475606885792L81.2820749759674,17.02392504891435L82.5722666422526,85.73022565780816L83.8624583085378,142.1659293894033L85.152649974823,-2.306041790369733L86.4428416411082,112.7613416899017L87.73303330739338,83.43294075080242L89.02322497367858,138.11332299303194L90.31341663996379,38.583287509937975L91.60360830624899,4.870402264298804L92.89379997253418,3.53974977145441L94.18399163881936,27.36968583252019L95.47418330510457,60.18258098407428L96.76437497138977,122.94723309804613L98.05456663767497,134.2783026466281L99.34475830396018,71.80936879623592L100.63494997024536,31.59876358638374" fill="none"></path></g><g><path style="fill: none;" stroke="rgb(255, 112, 67)" stroke-width="2px" d="M25.803833325703938,114.38674206364036L27.094024991989134,282.44195646178844L28.38421665827433,155.5503310442308L29.674408324559533,132.2047354830803L30.96459999084473,122.23396432155782L32.25479165712993,78.50695009093074L33.544983323415124,-50.47381314761233L34.83517498970032,-39.737142840475514L36.125366655985516,13.263621825367494L37.41555832227071,93.0520958557944L38.70574998855591,67.23683182580619L39.99594165484111,141.97476400037766L41.2861333211263,109.29581447428346L42.5763249874115,-72.11207194001491L43.86651665369669,50.34062226424108L45.156708319981895,47.411201011357576L46.44689998626709,157.99780025120012L47.73709165255229,73.70540280674443L49.02728331883748,87.92200605893069L50.31747498512268,-36.616410875555545L51.607666651407875,140.19420084159376L52.89785831769308,120.93807215534294L54.18804998397827,72.57343030893874L55.47824165026347,105.46672658821L56.76843331654866,42.16906248528295L58.05862498283386,35.47591588633887L59.348816649119065,60.65047420064771L60.639008315404254,-5.4447938086361205L61.92919998168946,58.44913060784286L63.219391647974646,143.76167449324868L64.50958331425986,129.68857068252652L65.79977498054504,120.16014870253983L67.08996664683025,6.323744881020218L68.38015831311543,104.43882411753516L69.67034997940064,116.40685848622665L70.96054164568582,35.24075512773561L72.25073331197103,70.41276778349614L73.54092497825623,85.36182713744306L74.83111664454142,-14.03550265362233L76.12130831082662,53.14950042353708L77.41149997711182,100.11817880331364L78.70169164339701,97.29718726788674L79.99188330968222,92.35451727663975L81.2820749759674,91.50299943843451L82.5722666422526,61.131174593532904L83.8624583085378,139.01730478207656L85.152649974823,136.7858652625069L86.4428416411082,100.0672688711226L87.73303330739338,123.97663098938109L89.02322497367858,117.46209574646005L90.31341663996379,93.04756740326249L91.60360830624899,11.29626703140093L92.89379997253418,53.33781091857517L94.18399163881936,113.49188515332591L95.47418330510457,91.12212189049185L96.76437497138977,130.87195471130266L98.05456663767497,13.58130730278208L99.34475830396018,115.46373558495098L100.63494997024536,44.27168956316342" fill="none"></path></g></g></g></g></g></g><g transform="translate(20, 176)" clip-path="url(#clip_1)"><clipPath id="clip_1"><rect width="309" height="23"></rect></clipPath><g><g><line x1="0" y1="0" x2="0" y2="5" style="visibility: inherit;" fill="rgb(0, 0, 0)" stroke="rgb(204, 204, 204)" stroke-width="1px"></line><line x1="25.803833325703938" y1="0" x2="25.803833325703938" y2="5" style="visibility: inherit;" fill="rgb(0, 0, 0)" stroke="rgb(204, 204, 204)" stroke-width="1px"></line><line x1="51.607666651407875" y1="0" x2="51.607666651407875" y2="5" style="visibility: inherit;" fill="rgb(0, 0, 0)" stroke="rgb(204, 204, 204)" stroke-width="1px"></line><line x1="77.41149997711182" y1="0" x2="77.41149997711182" y2="5" style="visibility: inherit;" fill="rgb(0, 0, 0)" stroke="rgb(204, 204, 204)" stroke-width="1px"></line><line x1="103.21533330281575" y1="0" x2="103.21533330281575" y2="5" style="visibility: inherit;" fill="rgb(0, 0, 0)" stroke="rgb(204, 204, 204)" stroke-width="1px"></line><line x1="129.0191666285197" y1="0" x2="129.0191666285197" y2="5" style="visibility: inherit;" fill="rgb(0, 0, 0)" stroke="rgb(204, 204, 204)" stroke-width="1px"></line><line x1="154.82299995422363" y1="0" x2="154.82299995422363" y2="5" style="visibility: inherit;" fill="rgb(0, 0, 0)" stroke="rgb(204, 204, 204)" stroke-width="1px"></line><line x1="180.62683327992758" y1="0" x2="180.62683327992758" y2="5" style="visibility: inherit;" fill="rgb(0, 0, 0)" stroke="rgb(204, 204, 204)" stroke-width="1px"></line><line x1="206.4306666056315" y1="0" x2="206.4306666056315" y2="5" style="visibility: inherit;" fill="rgb(0, 0, 0)" stroke="rgb(204, 204, 204)" stroke-width="1px"></line><line x1="232.23449993133545" y1="0" x2="232.23449993133545" y2="5" style="visibility: inherit;" fill="rgb(0, 0, 0)" stroke="rgb(204, 204, 204)" stroke-width="1px"></line><line x1="258.0383332570394" y1="0" x2="258.0383332570394" y2="5" style="visibility: inherit;" fill="rgb(0, 0, 0)" stroke="rgb(204, 204, 204)" stroke-width="1px"></line><line x1="283.8421665827433" y1="0" x2="283.8421665827433" y2="5" style="visibility: inherit;" fill="rgb(0, 0, 0)" stroke="rgb(204, 204, 204)" stroke-width="1px"></line><line x1="309.64599990844727" y1="0" x2="309.64599990844727" y2="5" style="visibility: inherit;" fill="rgb(0, 0, 0)" stroke="rgb(204, 204, 204)" stroke-width="1px"></line></g><g transform="translate(0, 8)"><text style="text-anchor: middle; visibility: hidden; font-family: &quot;Helvetica Neue&quot;, sans-serif; font-size: 12px; font-weight: 200;" x="0" y="0" dx="0em" dy="0.95em" fill="rgb(33, 33, 33)" stroke="none" stroke-width="1px">-200</text><text style="text-anchor: middle; visibility: inherit; font-family: &quot;Helvetica Neue&quot;, sans-serif; font-size: 12px; font-weight: 200;" x="25.803833325703938" y="0" dx="0em" dy="0.95em" fill="rgb(33, 33, 33)" stroke="none" stroke-width="1px">0</text><text style="text-anchor: middle; visibility: hidden; font-family: &quot;Helvetica Neue&quot;, sans-serif; font-size: 12px; font-weight: 200;" x="51.607666651407875" y="0" dx="0em" dy="0.95em" fill="rgb(33, 33, 33)" stroke="none" stroke-width="1px">200</text><text style="text-anchor: middle; visibility: inherit; font-family: &quot;Helvetica Neue&quot;, sans-serif; font-size: 12px; font-weight: 200;" x="77.41149997711182" y="0" dx="0em" dy="0.95em" fill="rgb(33, 33, 33)" stroke="none" stroke-width="1px">400</text><text style="text-anchor: middle; visibility: hidden; font-family: &quot;Helvetica Neue&quot;, sans-serif; font-size: 12px; font-weight: 200;" x="103.21533330281575" y="0" dx="0em" dy="0.95em" fill="rgb(33, 33, 33)" stroke="none" stroke-width="1px">600</text><text style="text-anchor: middle; visibility: inherit; font-family: &quot;Helvetica Neue&quot;, sans-serif; font-size: 12px; font-weight: 200;" x="129.0191666285197" y="0" dx="0em" dy="0.95em" fill="rgb(33, 33, 33)" stroke="none" stroke-width="1px">800</text><text style="text-anchor: middle; visibility: hidden; font-family: &quot;Helvetica Neue&quot;, sans-serif; font-size: 12px; font-weight: 200;" x="154.82299995422363" y="0" dx="0em" dy="0.95em" fill="rgb(33, 33, 33)" stroke="none" stroke-width="1px">1k</text><text style="text-anchor: middle; visibility: inherit; font-family: &quot;Helvetica Neue&quot;, sans-serif; font-size: 12px; font-weight: 200;" x="180.62683327992758" y="0" dx="0em" dy="0.95em" fill="rgb(33, 33, 33)" stroke="none" stroke-width="1px">1.2k</text><text style="text-anchor: middle; visibility: hidden; font-family: &quot;Helvetica Neue&quot;, sans-serif; font-size: 12px; font-weight: 200;" x="206.4306666056315" y="0" dx="0em" dy="0.95em" fill="rgb(33, 33, 33)" stroke="none" stroke-width="1px">1.4k</text><text style="text-anchor: middle; visibility: inherit; font-family: &quot;Helvetica Neue&quot;, sans-serif; font-size: 12px; font-weight: 200;" x="232.23449993133545" y="0" dx="0em" dy="0.95em" fill="rgb(33, 33, 33)" stroke="none" stroke-width="1px">1.6k</text><text style="text-anchor: middle; visibility: hidden; font-family: &quot;Helvetica Neue&quot;, sans-serif; font-size: 12px; font-weight: 200;" x="258.0383332570394" y="0" dx="0em" dy="0.95em" fill="rgb(33, 33, 33)" stroke="none" stroke-width="1px">1.8k</text><text style="text-anchor: middle; visibility: inherit; font-family: &quot;Helvetica Neue&quot;, sans-serif; font-size: 12px; font-weight: 200;" x="283.8421665827433" y="0" dx="0em" dy="0.95em" fill="rgb(33, 33, 33)" stroke="none" stroke-width="1px">2k</text><text style="text-anchor: middle; visibility: hidden; font-family: &quot;Helvetica Neue&quot;, sans-serif; font-size: 12px; font-weight: 200;" x="309.64599990844727" y="0" dx="0em" dy="0.95em" fill="rgb(33, 33, 33)" stroke="none" stroke-width="1px">2.2k</text></g><line x1="0" y1="0" x2="309.64599990844727" y2="0" fill="rgb(0, 0, 0)" stroke="rgb(204, 204, 204)" stroke-width="1px"></line></g></g></g></g></svg>