<svg viewBox="0 0 330 200" xmlns="http://www.w3.org/2000/svg"><g><g><g><g><g><line x1="72.1240005493164" y1="176.95999908447266" x2="67.1240005493164" y2="176.95999908447266" style="visibility: inherit;" fill="rgb(0, 0, 0)" stroke="rgb(204, 204, 204)" stroke-width="1px"></line><line x1="72.1240005493164" y1="163.34769146259015" x2="67.1240005493164" y2="163.34769146259015" style="visibility: inherit;" fill="rgb(0, 0, 0)" stroke="rgb(204, 204, 204)" stroke-width="1px"></line><line x1="72.1240005493164" y1="149.73538384070764" x2="67.1240005493164" y2="149.73538384070764" style="visibility: inherit;" fill="rgb(0, 0, 0)" stroke="rgb(204, 204, 204)" stroke-width="1px"></line><line x1="72.1240005493164" y1="136.12307621882513" x2="67.1240005493164" y2="136.12307621882513" style="visibility: inherit;" fill="rgb(0, 0, 0)" stroke="rgb(204, 204, 204)" stroke-width="1px"></line><line x1="72.1240005493164" y1="122.5107685969426" x2="67.1240005493164" y2="122.5107685969426" style="visibility: inherit;" fill="rgb(0, 0, 0)" stroke="rgb(204, 204, 204)" stroke-width="1px"></line><line x1="72.1240005493164" y1="108.89846097506009" x2="67.1240005493164" y2="108.89846097506009" style="visibility: inherit;" fill="rgb(0, 0, 0)" stroke="rgb(204, 204, 204)" stroke-width="1px"></line><line x1="72.1240005493164" y1="95.28615335317758" x2="67.1240005493164" y2="95.28615335317758" style="visibility: inherit;" fill="rgb(0, 0, 0)" stroke="rgb(204, 204, 204)" stroke-width="1px"></line><line x1="72.1240005493164" y1="81.67384573129507" x2="67.1240005493164" y2="81.67384573129507" style="visibility: inherit;" fill="rgb(0, 0, 0)" stroke="rgb(204, 204, 204)" stroke-width="1px"></line><line x1="72.1240005493164" y1="68.06153810941255" x2="67.1240005493164" y2="68.06153810941255" style="visibility: inherit;" fill="rgb(0, 0, 0)" stroke="rgb(204, 204, 204)" stroke-width="1px"></line><line x1="72.1240005493164" y1="54.449230487530045" x2="67.1240005493164" y2="54.449230487530045" style="visibility: inherit;" fill="rgb(0, 0, 0)" stroke="rgb(204, 204, 204)" stroke-width="1px"></line><line x1="72.1240005493164" y1="40.83692286564752" x2="67.1240005493164" y2="40.83692286564752" style="visibility: inherit;" fill="rgb(0, 0, 0)" stroke="rgb(204, 204, 204)" stroke-width="1px"></line><line x1="72.1240005493164" y1="27.224615243765015" x2="67.1240005493164" y2="27.224615243765015" style="visibility: inherit;" fill="rgb(0, 0, 0)" stroke="rgb(204, 204, 204)" stroke-width="1px"></line><line x1="72.1240005493164" y1="13.612307621882508" x2="67.1240005493164" y2="13.612307621882508" style="visibility: inherit;" fill="rgb(0, 0, 0)" stroke="rgb(204, 204, 204)" stroke-width="1px"></line><line x1="72.1240005493164" y1="0" x2="67.1240005493164" y2="0" style="visibility: inherit;" fill="rgb(0, 0, 0)" stroke="rgb(204, 204, 204)" stroke-width="1px"></line></g><g transform="translate(62.124000549316406, 0)"><text style="text-anchor: end; visibility: hidden; font-family: &quot;Helvetica Neue&quot;, sans-serif; font-size: 12px; font-weight: 200;" x="0" y="176.95999908447266" dx="0em" dy="0.3em" fill="rgb(33, 33, 33)" stroke="none" stroke-width="1px">-5e+3</text><text style="text-anchor: end; visibility: inherit; font-family: &quot;Helvetica Neue&quot;, sans-serif; font-size: 12px; font-weight: 200;" x="0" y="163.34769146259015" dx="0em" dy="0.3em" fill="rgb(33, 33, 33)" stroke="none" stroke-width="1px">0</text><text style="text-anchor: end; visibility: hidden; font-family: &quot;Helvetica Neue&quot;, sans-serif; font-size: 12px; font-weight: 200;" x="0" y="149.73538384070764" dx="0em" dy="0.3em" fill="rgb(33, 33, 33)" stroke="none" stroke-width="1px">5e+3</text><text style="text-anchor: end; visibility: inherit; font-family: &quot;Helvetica Neue&quot;, sans-serif; font-size: 12px; font-weight: 200;" x="0" y="136.12307621882513" dx="0em" dy="0.3em" fill="rgb(33, 33, 33)" stroke="none" stroke-width="1px">1e+4</text><text style="text-anchor: end; visibility: hidden; font-family: &quot;Helvetica Neue&quot;, sans-serif; font-size: 12px; font-weight: 200;" x="0" y="122.5107685969426" dx="0em" dy="0.3em" fill="rgb(33, 33, 33)" stroke="none" stroke-width="1px">1.5e+4</text><text style="text-anchor: end; visibility: inherit; font-family: &quot;Helvetica Neue&quot;, sans-serif; font-size: 12px; font-weight: 200;" x="0" y="108.89846097506009" dx="0em" dy="0.3em" fill="rgb(33, 33, 33)" stroke="none" stroke-width="1px">2e+4</text><text style="text-anchor: end; visibility: hidden; font-family: &quot;Helvetica Neue&quot;, sans-serif; font-size: 12px; font-weight: 200;" x="0" y="95.28615335317758" dx="0em" dy="0.3em" fill="rgb(33, 33, 33)" stroke="none" stroke-width="1px">2.5e+4</text><text style="text-anchor: end; visibility: inherit; font-family: &quot;Helvetica Neue&quot;, sans-serif; font-size: 12px; font-weight: 200;" x="0" y="81.67384573129507" dx="0em" dy="0.3em" fill="rgb(33, 33, 33)" stroke="none" stroke-width="1px">3e+4</text><text style="text-anchor: end; visibility: hidden; font-family: &quot;Helvetica Neue&quot;, sans-serif; font-size: 12px; font-weight: 200;" x="0" y="68.06153810941255" dx="0em" dy="0.3em" fill="rgb(33, 33, 33)" stroke="none" stroke-width="1px">3.5e+4</text><text style="text-anchor: end; visibility: inherit; font-family: &quot;Helvetica Neue&quot;, sans-serif; font-size: 12px; font-weight: 200;" x="0" y="54.449230487530045" dx="0em" dy="0.3em" fill="rgb(33, 33, 33)" stroke="none" stroke-width="1px">4e+4</text><text style="text-anchor: end; visibility: hidden; font-family: &quot;Helvetica Neue&quot;, sans-serif; font-size: 12px; font-weight: 200;" x="0" y="40.83692286564752" dx="0em" dy="0.3em" fill="rgb(33, 33, 33)" stroke="none" stroke-width="1px">4.5e+4</text><text style="text-anchor: end; visibility: inherit; font-family: &quot;Helvetica Neue&quot;, sans-serif; font-size: 12px; font-weight: 200;" x="0" y="27.224615243765015" dx="0em" dy="0.3em" fill="rgb(33, 33, 33)" stroke="none" stroke-width="1px">5e+4</text><text style="text-anchor: end; visibility: hidden; font-family: &quot;Helvetica Neue&quot;, sans-serif; font-size: 12px; font-weight: 200;" x="0" y="13.612307621882508" dx="0em" dy="0.3em" fill="rgb(33, 33, 33)" stroke="none" stroke-width="1px">5.5e+4</text><text style="text-anchor: end; visibility: hidden; font-family: &quot;Helvetica Neue&quot;, sans-serif; font-size: 12px; font-weight: 200;" x="0" y="0" dx="0em" dy="0.3em" fill="rgb(33, 33, 33)" stroke="none" stroke-width="1px">6e+4</text></g><line x1="72.1240005493164" y1="0" x2="72.1240005493164" y2="176.95999908447266" fill="rgb(0, 0, 0)" stroke="rgb(204, 204, 204)" stroke-width="1px"></line></g></g><g transform="translate(72, 0)" clip-path="url(#clip_0)"><clipPath id="clip_0"><rect width="257" height="176"></rect></clipPath><g><g><g><line x1="0" y1="0" x2="0" y2="176.95999908447266" fill="rgb(0, 0, 0)" stroke="rgb(66, 66, 66)" stroke-width="1px" opacity="0.25"></line><line x1="21.489666620890297" y1="0" x2="21.489666620890297" y2="176.95999908447266" fill="rgb(0, 0, 0)" stroke="rgb(66, 66, 66)" stroke-width="1px" opacity="0.25"></line><line x1="42.979333241780594" y1="0" x2="42.979333241780594" y2="176.95999908447266" fill="rgb(0, 0, 0)" stroke="rgb(66, 66, 66)" stroke-width="1px" opacity="0.25"></line><line x1="64.4689998626709" y1="0" x2="64.4689998626709" y2="176.95999908447266" fill="rgb(0, 0, 0)" stroke="rgb(66, 66, 66)" stroke-width="1px" opacity="0.25"></line><line x1="85.95866648356119" y1="0" x2="85.95866648356119" y2="176.95999908447266" fill="rgb(0, 0, 0)" stroke="rgb(66, 66, 66)" stroke-width="1px" opacity="0.25"></line><line x1="107.4483331044515" y1="0" x2="107.4483331044515" y2="176.95999908447266" fill="rgb(0, 0, 0)" stroke="rgb(66, 66, 66)" stroke-width="1px" opacity="0.25"></line><line x1="128.9379997253418" y1="0" x2="128.9379997253418" y2="176.95999908447266" fill="rgb(0, 0, 0)" stroke="rgb(66, 66, 66)" stroke-width="1px" opacity="0.25"></line><line x1="150.42766634623212" y1="0" x2="150.42766634623212" y2="176.95999908447266" fill="rgb(0, 0, 0)" stroke="rgb(66, 66, 66)" stroke-width="1px" opacity="0.25"></line><line x1="171.91733296712238" y1="0" x2="171.91733296712238" y2="176.95999908447266" fill="rgb(0, 0, 0)" stroke="rgb(66, 66, 66)" stroke-width="1px" opacity="0.25"></line><line x1="193.4069995880127" y1="0" x2="193.4069995880127" y2="176.95999908447266" fill="rgb(0, 0, 0)" stroke="rgb(66, 66, 66)" stroke-width="1px" opacity="0.25"></line><line x1="214.896666208903" y1="0" x2="214.896666208903" y2="176.95999908447266" fill="rgb(0, 0, 0)" stroke="rgb(66, 66, 66)" stroke-width="1px" opacity="0.25"></line><line x1="236.38633282979328" y1="0" x2="236.38633282979328" y2="176.95999908447266" fill="rgb(0, 0, 0)" stroke="rgb(66, 66, 66)" stroke-width="1px" opacity="0.25"></line><line x1="257.8759994506836" y1="0" x2="257.8759994506836" y2="176.95999908447266" fill="rgb(0, 0, 0)" stroke="rgb(66, 66, 66)" stroke-width="1px" opacity="0.25"></line></g><g><line x1="0" y1="176.95999908447266" x2="257.8759994506836" y2="176.95999908447266" fill="rgb(0, 0, 0)" stroke="rgb(66, 66, 66)" stroke-width="1px" opacity="0.25"></line><line x1="0" y1="163.34769146259015" x2="257.8759994506836" y2="163.34769146259015" fill="rgb(0, 0, 0)" stroke="rgb(66, 66, 66)" stroke-width="1px" opacity="0.25"></line><line x1="0" y1="149.73538384070764" x2="257.8759994506836" y2="149.73538384070764" fill="rgb(0, 0, 0)" stroke="rgb(66, 66, 66)" stroke-width="1px" opacity="0.25"></line><line x1="0" y1="136.12307621882513" x2="257.8759994506836" y2="136.12307621882513" fill="rgb(0, 0, 0)" stroke="rgb(66, 66, 66)" stroke-width="1px" opacity="0.25"></line><line x1="0" y1="122.5107685969426" x2="257.8759994506836" y2="122.5107685969426" fill="rgb(0, 0, 0)" stroke="rgb(66, 66, 66)" stroke-width="1px" opacity="0.25"></line><line x1="0" y1="108.89846097506009" x2="257.8759994506836" y2="108.89846097506009" fill="rgb(0, 0, 0)" stroke="rgb(66, 66, 66)" stroke-width="1px" opacity="0.25"></line><line x1="0" y1="95.28615335317758" x2="257.8759994506836" y2="95.28615335317758" fill="rgb(0, 0, 0)" stroke="rgb(66, 66, 66)" stroke-width="1px" opacity="0.25"></line><line x1="0" y1="81.67384573129507" x2="257.8759994506836" y2="81.67384573129507" fill="rgb(0, 0, 0)" stroke="rgb(66, 66, 66)" stroke-width="1px" opacity="0.25"></line><line x1="0" y1="68.06153810941255" x2="257.8759994506836" y2="68.06153810941255" fill="rgb(0, 0, 0)" stroke="rgb(66, 66, 66)" stroke-width="1px" opacity="0.25"></line><line x1="0" y1="54.449230487530045" x2="257.8759994506836" y2="54.449230487530045" fill="rgb(0, 0, 0)" stroke="rgb(66, 66, 66)" stroke-width="1px" opacity="0.25"></line><line x1="0" y1="40.83692286564752" x2="257.8759994506836" y2="40.83692286564752" fill="rgb(0, 0, 0)" stroke="rgb(66, 66, 66)" stroke-width="1px" opacity="0.25"></line><line x1="0" y1="27.224615243765015" x2="257.8759994506836" y2="27.224615243765015" fill="rgb(0, 0, 0)" stroke="rgb(66, 66, 66)" stroke-width="1px" opacity="0.25"></line><line x1="0" y1="13.612307621882508" x2="257.8759994506836" y2="13.612307621882508" fill="rgb(0, 0, 0)" stroke="rgb(66, 66, 66)" stroke-width="1px" opacity="0.25"></line><line x1="0" y1="0" x2="257.8759994506836" y2="0" fill="rgb(0, 0, 0)" stroke="rgb(66, 66, 66)" stroke-width="1px" opacity="0.25"></line></g></g></g><g><g><line x1="0" y1="163.34769146259015" x2="257.8759994506836" y2="163.34769146259015" fill="rgb(0, 0, 0)" stroke="rgb(153, 153, 153)" stroke-width="1.5px"></line></g></g><g><g><line x1="21.489666620890297" y1="0" x2="21.489666620890297" y2="176.95999908447266" fill="rgb(0, 0, 0)" stroke="rgb(153, 153, 153)" stroke-width="1.5px"></line></g></g><g><g><g><g><g><path style="fill: none;" stroke="rgb(0, 153, 136)" stroke-width="2px" d="M21.489666620890297,162.4591504919768L22.564149951934812,161.15255375960152L23.638633282979328,161.52856260093594L24.713116614023846,157.87657245297015L25.78759994506836,151.55999465583463L26.862083276112877,143.2503633068914L27.936566607157392,137.03190122083697L29.011049938201904,131.475759051528L30.08553326924642,130.6075534641569L31.160016600290934,120.53915384730576L32.23449993133545,107.8558213267657L33.30898326237997,94.98848760219394L34.38346659342448,93.45328587205674L35.457949924469,90.21366321404251L36.53243325551351,92.41257010930418L37.60691658655803,83.50554907124767L38.68139991760254,86.36216987742337L39.75588324864706,87.6205143127051L40.830366579691564,77.91716737381483L41.90484991073608,70.20579546625164L42.979333241780594,61.232328799677816L44.05381657282511,64.36666060350197L45.128299903869625,70.77602003113861L46.20278323491414,67.5221469029236L47.277266565958655,56.77663486968966L48.351749897003174,37.99142916127997L49.42623322804769,27.741586751296865L50.500716559092204,16.922772613894494L51.57519989013672,14.934787249099912L52.649683221181235,4.260521945639198L53.72416655222575,0.27327066630505215L54.798649883270265,-2.18064055986585L55.873133214314784,4.240536448162004L56.94761654535929,8.864560992348032L58.02209987640381,12.566129195240165L59.09658320744832,15.81164881943755L60.17106653849284,19.263235074820926L61.24554986953735,21.02590040376799L62.32003320058187,22.580335221396837L63.39451653162638,23.10660024063432L64.4689998626709,25.351118792153187L65.5434831937154,24.472495338906697L66.61796652475994,31.353710419578533L67.69244985580444,32.36817069241161L68.76693318684896,33.62069959231178L69.84141651789346,29.92639443138981L70.915899848938,36.264422102875386L71.9903831799825,36.74652504036766L73.06486651102702,37.72717020175611L74.13934984207152,6.2676874083909695L75.21383317311606,-14.80881404563317L97.77798312505085,-1.6480718077977201L98.85246645609539,6.965965765886523L99.92694978713989,15.041887250161466L101.00143311818441,21.041877724807563L102.07591644922891,25.170174156446166L103.15039978027345,27.242448042216978L104.22488311131795,31.31922769130884L105.29936644236247,36.611554926646164L106.37384977340697,41.078426806577255L107.4483331044515,43.876143343486405L108.52281643549601,49.2762287908709L109.59729976654053,52.27986710432637L110.67178309758503,56.360432437783146L111.74626642862957,59.7845763467338L112.82074975967407,64.79344323120627L113.89523309071858,69.60264013531283L114.96971642176311,73.96775490626976L116.04419975280761,78.55196592009345L117.11868308385213,80.68171766932042L118.19316641489664,84.78083450593789L119.26764974594117,85.87575235876898L120.34213307698568,85.46103415652884L121.4166164080302,87.93487477129733L122.4910997390747,91.2382802017015L123.56558307011923,94.13611670918571L124.64006640116374,97.08160721645268L125.71454973220825,98.53132204128565L126.78903306325276,101.74535218809115L127.86351639429729,104.41870980678681L128.9379997253418,106.91924024790315L130.01248305638632,109.0699401138584L131.0869663874308,111.08653121374789L132.16144971847532,113.1689750318572L133.23593304951987,113.43992502976826L134.3104163805644,114.55302095997223L135.38489971160888,116.12723100553669L136.4593830426534,118.35576207120164L137.53386637369792,119.61103953278439L138.60834970474244,121.91453882103204L139.68283303578693,119.12973137740451L140.75731636683145,120.48143185257186L141.831799697876,119.10006537044703L142.9062830289205,119.93822787002287L143.980766359965,119.802401551084L145.05524969100952,119.82106634825378L146.12973302205404,121.17878621264995L147.20421635309853,122.56484455031163L148.27869968414305,124.66672533409937L149.3531830151876,126.50664222811133L150.42766634623212,127.5747152209683L151.5021496772766,129.38516958635716L152.57663300832112,130.78254048323265L153.65111633936564,131.77175140642572L154.72559967041016,132.57478617477256L155.80008300145465,132.5461950994747L156.87456633249917,132.67605855336183L157.94904966354372,133.53264409849143L159.02353299458824,134.869521911643L160.09801632563273,136.12217529450197L161.17249965667725,137.1983197505008L162.24698298772176,138.322981966858L163.32146631876626,139.54107455879418L164.39594964981077,140.42534361705572L165.47043298085532,141.29119812442258L166.54491631189984,140.8015808544366L167.61939964294433,140.58347825675276L168.69388297398885,141.35367057132174L169.76836630503337,142.28049426720867L170.8428496360779,142.51236613587002L171.91733296712238,143.4726421656523L172.9918162981669,144.29631487892104L174.06629962921144,145.0897493476046L175.14078296025596,145.78650866903803L176.21526629130045,146.34800931619213L177.28974962234497,146.36374041081203L178.3642329533895,147.00930557338057L179.43871628443398,145.86688010843716L180.5131996154785,145.74772000923667L181.58768294652305,146.4568453773191L182.66216627756756,147.12793352039887L183.73664960861205,147.8626788182626L184.81113293965657,148.49840543288113L185.8856162707011,149.15987691082353L186.9600996017456,149.72634036053998L188.0345829327901,150.1820025822136L189.10906626383462,150.65281253899371L190.18354959487917,151.0314931528554L191.2580329259237,151.62790729684616L192.33251625696818,151.88992451625205L193.4069995880127,152.3320888523055L194.4814829190572,152.70733874533767L195.5559662501017,153.13101470515826L196.63044958114622,153.45963145720464L197.70493291219077,153.85668892089112L198.7794162432353,154.21248301465744L199.85389957427978,154.16013664602877L200.9283829053243,154.41580226779038L202.00286623636882,154.84801953222248L203.07734956741334,154.89336415133224L204.15183289845783,154.49414886093103L205.22631622950234,154.76368387077238L206.3007995605469,154.65317800566257L207.3752828915914,154.3257635040091L208.4497662226359,154.6443965840169L209.52424955368042,154.61130283133198L210.59873288472494,152.60106807495194L211.67321621576943,152.34546107033515L212.74769954681395,152.6402695094678L213.8221828778585,152.00993335721452L214.896666208903,152.02231610441032L215.9711495399475,152.46221934920843L217.04563287099202,153.02608624618475L218.12011620203654,153.2850635122932L219.19459953308106,152.92042239853947L220.26908286412555,152.94566179270478L221.34356619517007,152.24100506070207L222.41804952621462,152.22546792125627L223.49253285725914,152.53374619976867L224.56701618830363,152.9667912454864L225.64149951934814,152.68126145208785L226.71598285039266,152.39187298797057L227.79046618143715,152.1340252825745L228.86494951248167,151.31764140848975L229.93943284352622,151.65451356327998L231.01391617457074,151.94931176419166L232.08839950561523,152.38700598774795L233.16288283665975,152.745901741839L234.23736616770427,153.167893884073" fill="none"></path></g><g><path style="fill: none;" stroke="rgb(238, 51, 119)" stroke-width="2px" d="M21.489666620890297,161.44686945770076L22.564149951934812,124.3067768239907L23.638633282979328,-342.70750805505975L29.011049938201904,-3.6191570242498585L30.08553326924642,19.168056499941912L31.160016600290934,35.35268204623827L32.23449993133545,49.97030783182747L33.30898326237997,62.15352680414085L34.38346659342448,72.72410169076016L35.457949924469,81.53208690681453L36.53243325551351,88.87822983875785L37.60691658655803,95.27076633831868L38.68139991760254,99.95512840669694L39.75588324864706,104.59237804068331L40.830366579691564,108.55468453279654L41.90484991073608,112.27065100439364L42.979333241780594,115.97748632187036L44.05381657282511,117.5543575523422L45.128299903869625,120.41310863024944L46.20278323491414,123.11365479618499L47.277266565958655,125.10804487237809L48.351749897003174,127.54101868923783L49.42623322804769,128.9862141554436L50.500716559092204,130.90499655740155L51.57519989013672,132.12574741286247L52.649683221181235,133.85287836829355L53.72416655222575,135.0180572814744L54.798649883270265,136.20935558176276L55.873133214314784,137.59772791068775L56.94761654535929,135.5998459909296L58.02209987640381,134.6652698899444L59.09658320744832,136.15037551070373L60.17106653849284,137.04994701829193L61.24554986953735,137.86510177666705L62.32003320058187,139.25339000931632L63.39451653162638,139.66958852705025L64.4689998626709,140.30539876389815L65.5434831937154,141.28621930935074L66.61796652475994,142.3728491776916L67.69244985580444,143.20495871679137L68.76693318684896,144.1269094135356L69.84141651789346,144.84108081914312L70.915899848938,145.01335466275822L71.9903831799825,145.95994676405846L73.06486651102702,146.33007053124524L74.13934984207152,147.1131079918509L75.21383317311606,147.81934704084117L76.28831650416056,148.49287642100586L77.36279983520508,148.88493913036103L78.43728316624959,148.56948547354332L79.51176649729412,149.18591073891753L80.58624982833862,149.67789610947708L81.66073315938313,150.22427172691937L82.73521649042766,150.83613786388534L83.80969982147217,151.45123812327165L84.88418315251668,151.60682488788154L85.95866648356119,150.88090213989867L87.03314981460572,151.36712522002773L88.10763314565023,151.65870663709484L89.18211647669474,151.55669921178287L90.25659980773925,151.57997777835067L91.33108313878378,152.15955022734622L92.40556646982829,152.3562868578722L93.4800498008728,152.86963061544935L94.55453313191731,152.98860874758026L95.62901646296184,153.25563090576728L96.70349979400635,153.7465095392773L97.77798312505085,153.968329449432L98.85246645609539,154.2812698156794L99.92694978713989,154.66218607577008L101.00143311818441,154.98801788581434L102.07591644922891,155.31601848043587L103.15039978027345,155.4150552937769L104.22488311131795,155.69590725914205L105.29936644236247,154.87316784494692L106.37384977340697,155.18794566953326L107.4483331044515,155.17301361293735L108.52281643549601,155.27962000872856L109.59729976654053,155.45653326773655L110.67178309758503,155.6890326071695L111.74626642862957,156.016128686193L112.82074975967407,156.31175210841175L113.89523309071858,156.40794317903348L114.96971642176311,156.65410488659793L116.04419975280761,156.93724139159062L117.11868308385213,157.10242933980416L118.19316641489664,157.33569876902845L119.26764974594117,157.38827188168725L120.34213307698568,157.49136009313943L121.4166164080302,157.62717901234606L122.4910997390747,157.77156049088504L123.56558307011923,157.95490577410163L124.64006640116374,158.16498570191652L125.71454973220825,158.24716742704317L126.78903306325276,158.16167235516994L127.86351639429729,158.27464092009012L128.9379997253418,158.43107166450739L130.01248305638632,158.00744111445147L131.0869663874308,158.11958533150852L132.16144971847532,158.2321397077405L133.23593304951987,156.7636771091226L134.3104163805644,156.400792739493L135.38489971160888,156.1340538836643L136.4593830426534,156.22347136298458L137.53386637369792,156.55305954320835L138.60834970474244,156.82736659246197L139.68283303578693,157.05867523182621L140.75731636683145,157.12892094021552L141.831799697876,157.34088417443823L142.9062830289205,157.28414850028918L143.980766359965,157.13464481396045L145.05524969100952,157.41077428156927L146.12973302205404,156.65623240560694L147.20421635309853,156.6025848142175L148.27869968414305,156.5252201102786L149.3531830151876,156.7586370285572L150.42766634623212,156.86767727168944L151.5021496772766,156.44984319252998L152.57663300832112,156.38197786920028L153.65111633936564,156.56143171712995L154.72559967041016,156.70719004911768L155.80008300145465,156.77321586684855L156.87456633249917,156.54520882442105L157.94904966354372,156.5510539973002L159.02353299458824,156.50143826688648L160.09801632563273,156.59938300847767L161.17249965667725,156.88348738908476L162.24698298772176,157.08804097242177L163.32146631876626,157.33293577838373L164.39594964981077,157.45996139398665L165.47043298085532,157.4415864504411L166.54491631189984,157.60138834503735L167.61939964294433,157.88309037117224L168.69388297398885,158.07980008184182L169.76836630503337,158.27013014873768L170.8428496360779,158.25460303219782L171.91733296712238,158.45945223024285L172.9918162981669,158.5667774405902L174.06629962921144,158.2036875046503L175.14078296025596,158.39843156419118L176.21526629130045,158.50743137010218L177.28974962234497,158.65912175630737L178.3642329533895,158.3021713932183L179.43871628443398,158.04472459247674L180.5131996154785,157.98951404749414L181.58768294652305,157.3538695446468L182.66216627756756,157.47799456206883L183.73664960861205,157.64968513326153L184.81113293965657,157.52362602952138L185.8856162707011,157.51077999517184L186.9600996017456,157.74125361477832L188.0345829327901,157.7043408829359L189.10906626383462,157.60403894681653L190.18354959487917,157.76408647461062L191.2580329259237,157.10980209048194L192.33251625696818,157.12557315104243L193.4069995880127,157.03974184220655L194.4814829190572,157.12809963616786L195.5559662501017,157.2207049856701L196.63044958114622,157.36144158279757L197.70493291219077,157.27954836589313L198.7794162432353,157.35318499643242L199.85389957427978,157.41747430460475L200.9283829053243,157.59790823629558L202.00286623636882,157.8353407360685L203.07734956741334,157.89987937908353L204.15183289845783,158.02531518072584L205.22631622950234,157.7414576596003L206.3007995605469,157.9251378503077L207.3752828915914,158.0465467510936L208.4497662226359,158.24622073409603L209.52424955368042,158.22614287789332L210.59873288472494,158.3947770385135L211.67321621576943,158.59974412073626L212.74769954681395,158.77297546518622L213.8221828778585,158.91729046516804L214.896666208903,158.8652663115705L215.9711495399475,158.92816408697024L217.04563287099202,158.93807348193525L218.12011620203654,158.68081864731155L219.19459953308106,158.8482198555969L220.26908286412555,158.86994725959366L221.34356619517007,158.9041123245736L222.41804952621462,158.99233076948644L223.49253285725914,159.00053618360903L224.56701618830363,159.10621191924258L225.64149951934814,159.1013224412249L226.71598285039266,159.16092299304674L227.79046618143715,158.885531240008L228.86494951248167,158.9128758196667L229.93943284352622,159.01868424466787L231.01391617457074,159.14152174557032L232.08839950561523,159.17736935808608L233.16288283665975,159.15456154359617L234.23736616770427,159.0725107017173" fill="none"></path></g><g><path style="fill: none;" stroke="rgb(51, 187, 238)" stroke-width="2px" d="M21.489666620890297,161.02131302901302L22.564149951934812,89.72794098869521L23.638633282979328,-106.06881669510881L25.78759994506836,-6.784021045014413L26.862083276112877,24.31414494277803L27.936566607157392,47.25318560916452L29.011049938201904,64.14409491129673L30.08553326924642,77.59378454310338L31.160016600290934,87.62883983667207L32.23449993133545,95.48730571452316L33.30898326237997,101.74362914213633L34.38346659342448,107.81670321668818L35.457949924469,113.2695810762626L36.53243325551351,117.748751382845L37.60691658655803,121.84473396757897L38.68139991760254,125.21742146583327L39.75588324864706,128.1720155733649L40.830366579691564,129.4567938273246L41.90484991073608,131.73328164813003L42.979333241780594,134.108696732974L44.05381657282511,134.81179037704536L45.128299903869625,135.50900182597948L46.20278323491414,136.51228992110032L47.277266565958655,137.69017300453658L48.351749897003174,138.74770336902662L49.42623322804769,138.650413003727L50.500716559092204,138.32960194832822L51.57519989013672,138.82931546926972L52.649683221181235,139.8577805970386L53.72416655222575,141.09287171026818L54.798649883270265,141.7022054850623L55.873133214314784,142.27594863157867L56.94761654535929,138.59200157517205L58.02209987640381,136.20112187039547L59.09658320744832,134.8329295092699L60.17106653849284,136.0153597935742L61.24554986953735,137.41418833385364L62.32003320058187,138.30283005195216L63.39451653162638,139.258868055251L64.4689998626709,140.0964601777269L65.5434831937154,140.81943344541526L66.61796652475994,140.93936610594318L67.69244985580444,141.59866767450848L68.76693318684896,142.59715952489458L69.84141651789346,143.4451898136313L70.915899848938,142.86208835900112L71.9903831799825,143.88391298110142L73.06486651102702,143.67480014570296L74.13934984207152,144.584028542848L75.21383317311606,144.7793708816484L76.28831650416056,145.38982813023642L77.36279983520508,146.00698799387877L78.43728316624959,146.61703495372913L79.51176649729412,146.57216780439637L80.58624982833862,146.86859533817986L81.66073315938313,147.3312619855346L82.73521649042766,147.52508784593232L83.80969982147217,147.4219500215298L84.88418315251668,147.0043984218181L85.95866648356119,146.06490857970766L87.03314981460572,145.79596218259113L88.10763314565023,145.86606738623573L89.18211647669474,146.46044097796403L90.25659980773925,147.19795891435004L91.33108313878378,147.21152934784504L92.40556646982829,147.33518190548122L93.4800498008728,148.11538181817096L94.55453313191731,147.9865653293155L95.62901646296184,148.30857298414003L96.70349979400635,148.82096178304232L97.77798312505085,149.34067265050385L98.85246645609539,149.77629463006684L99.92694978713989,150.01281224442135L101.00143311818441,150.5462373240589L102.07591644922891,151.14536209834066L103.15039978027345,150.28034633096098L104.22488311131795,150.41061573873267L105.29936644236247,147.0248008787262L106.37384977340697,147.74768639357592L107.4483331044515,148.066107748638L108.52281643549601,148.13833075353872L109.59729976654053,148.89136165737293L110.67178309758503,149.03739876043656L111.74626642862957,149.62023251187506L112.82074975967407,148.3004033747352L113.89523309071858,148.99656684012982L114.96971642176311,149.5617909487922L116.04419975280761,149.87969752565476L117.11868308385213,150.4453696041838L118.19316641489664,150.96371333440413L119.26764974594117,151.34596693078865L120.34213307698568,151.85723859983256L121.4166164080302,152.00074491097195L122.4910997390747,151.28558532606715L123.56558307011923,151.7917164476383L124.64006640116374,151.5724478890417L125.71454973220825,152.01144147467872L126.78903306325276,151.69041800204548L127.86351639429729,151.73929782106836L128.9379997253418,152.22016000770924L130.01248305638632,152.47765290107964L131.0869663874308,152.8828529104031L132.16144971847532,152.9654418781569L133.23593304951987,151.86465663605338L134.3104163805644,152.01565903783649L135.38489971160888,152.3249228193918L136.4593830426534,152.78684071613952L137.53386637369792,152.96209435054115L138.60834970474244,153.49141721168672L139.68283303578693,153.54266718646775L140.75731636683145,153.74093960518388L141.831799697876,153.9732359172271L142.9062830289205,153.65385966470498L143.980766359965,153.2444031922336L145.05524969100952,153.72244142144217L146.12973302205404,152.00790398093454L147.20421635309853,151.78345686548394L148.27869968414305,151.8861390764673L149.3531830151876,151.9651562681181L150.42766634623212,152.2865103171274L151.5021496772766,152.0670641675193L152.57663300832112,152.15421361363258L153.65111633936564,152.57277499638138L154.72559967041016,153.06938094571512L155.80008300145465,153.39937626447409L156.87456633249917,153.5508145992956L157.94904966354372,153.8370551267114L159.02353299458824,153.8438914091256L160.09801632563273,153.98326623307344L161.17249965667725,154.34529299441994L162.24698298772176,154.58519103068394L163.32146631876626,154.9567084972338L164.39594964981077,155.1478726534648L165.47043298085532,154.92521738383337L166.54491631189984,155.19142744649204L167.61939964294433,155.52018185865214L168.69388297398885,155.67759064999925L169.76836630503337,155.97933873954378L170.8428496360779,156.3080774568153L171.91733296712238,156.5269273789899L172.9918162981669,156.02047106677807L174.06629962921144,155.96901123006L175.14078296025596,156.15987793073612L176.21526629130045,156.4271567135976L177.28974962234497,156.36769644984565L178.3642329533895,156.39043376884436L179.43871628443398,156.70943534246058L180.5131996154785,156.9136192514813L181.58768294652305,156.8556341267813L182.66216627756756,156.90791413180932L183.73664960861205,157.02015456753864L184.81113293965657,157.21255658218968L185.8856162707011,157.421728304706L186.9600996017456,157.59359928799444L188.0345829327901,157.62542396495164L189.10906626383462,157.64027705704072L190.18354959487917,157.80786551542323L191.2580329259237,157.83522241892888L192.33251625696818,157.9230445192518L193.4069995880127,157.83152277339147L194.4814829190572,157.96981596896046L195.5559662501017,157.82895882513344L196.63044958114622,157.9267860072601L197.70493291219077,157.07449857564453L198.7794162432353,157.13046728161405L199.85389957427978,157.41556822815772L200.9283829053243,157.4201040243967L202.00286623636882,157.65585982221793L203.07734956741334,157.69406636524292L204.15183289845783,157.59296534091962L205.22631622950234,157.53629902161404L206.3007995605469,157.63393099525084L207.3752828915914,157.78793291356862L208.4497662226359,157.37606750572033L209.52424955368042,157.52673390301814L210.59873288472494,157.6216390763779L211.67321621576943,157.79462665661802L212.74769954681395,157.8580600406313L213.8221828778585,158.06683315267466L214.896666208903,158.11931383975778L215.9711495399475,158.29907100877153L217.04563287099202,158.37973313542363L218.12011620203654,158.51961999436367L219.19459953308106,158.65932096664304L220.26908286412555,158.5617992429255L221.34356619517007,158.680155213683L222.41804952621462,158.56118300052884L223.49253285725914,158.68495112088576L224.56701618830363,158.77782817845167L225.64149951934814,158.47897827581764L226.71598285039266,158.60691358124083L227.79046618143715,158.759761962791L228.86494951248167,158.66608036418282L229.93943284352622,158.577548910113L231.01391617457074,158.7733834664047L232.08839950561523,158.55133750976776L233.16288283665975,158.23531090823812L234.23736616770427,157.7475328837729" fill="none"></path></g><g><path style="fill: none;" stroke="rgb(204, 51, 17)" stroke-width="2px" d="M21.489666620890297,162.53376295312924L22.564149951934812,151.46516691545523L23.638633282979328,72.53429816622761L24.713116614023846,95.04307671562245L25.78759994506836,107.96956250690722L26.862083276112877,117.9766712451048L27.936566607157392,125.49167545814748L29.011049938201904,130.65808902101247L30.08553326924642,134.47472687915442L31.160016600290934,136.59972240924589L32.23449993133545,139.66919469884735L33.30898326237997,141.18141058774262L34.38346659342448,143.26682806305803L35.457949924469,145.22860129007856L36.53243325551351,146.23253885866816L37.60691658655803,147.46636088305988L38.68139991760254,147.6971940267867L39.75588324864706,148.71008965923235L40.830366579691564,148.5385811563925L41.90484991073608,148.35221994220876L42.979333241780594,148.82966085755973L44.05381657282511,149.52818409720612L45.128299903869625,150.4248645211143L46.20278323491414,150.8477694582202L47.277266565958655,151.42446877906943L48.351749897003174,151.96466492157904L49.42623322804769,151.6754029314448L50.500716559092204,151.53643700264405L51.57519989013672,151.58446393752018L52.649683221181235,151.37152650530297L53.72416655222575,150.33926904188604L54.798649883270265,150.1634418049651L55.873133214314784,150.51980867465065L56.94761654535929,145.76527145697534L58.02209987640381,144.84715361975492L59.09658320744832,144.27651673086524L60.17106653849284,144.69743382776446L61.24554986953735,145.4094477663577L62.32003320058187,146.43763977125383L63.39451653162638,147.2055663964309L64.4689998626709,146.63159808642425L65.5434831937154,146.48418840755747L66.61796652475994,147.24779268379282L67.69244985580444,147.9589445371201L68.76693318684896,148.62287333100574L69.84141651789346,148.73478080424724L70.915899848938,149.42233586710984L71.9903831799825,150.11338604719137L73.06486651102702,150.37402751907265L74.13934984207152,150.9553385838775L75.21383317311606,151.26290245745218L76.28831650416056,151.53254171447196L77.36279983520508,151.95426354286775L78.43728316624959,151.894913979134L79.51176649729412,151.8216252019638L80.58624982833862,151.78781676219688L81.66073315938313,152.31240035848228L82.73521649042766,152.72387404512315L83.80969982147217,153.05334070120966" fill="none"></path></g><g><path style="fill: none;" stroke="rgb(0, 119, 187)" stroke-width="2px" d="M21.489666620890297,162.43651305158912L22.564149951934812,154.3377728693823L23.638633282979328,56.39998819091109L24.713116614023846,83.78378851651144L25.78759994506836,91.78030973655406L26.862083276112877,104.82463346908567L27.936566607157392,114.40209851003883L29.011049938201904,120.83141091324049L30.08553326924642,124.8726145920539L31.160016600290934,128.60602511079566L32.23449993133545,130.02384868684138L33.30898326237997,132.63584317036967L34.38346659342448,135.4298505193058L35.457949924469,138.01791442321655L36.53243325551351,139.42281103019633L37.60691658655803,141.44316965885287L38.68139991760254,140.48579142414005L39.75588324864706,141.8989424544959L40.830366579691564,142.84572903389068L41.90484991073608,141.9004169107206L42.979333241780594,143.15090894368635L44.05381657282511,144.182435867771L45.128299903869625,145.32536149937255L46.20278323491414,145.67229607338453L47.277266565958655,145.9919734988636L48.351749897003174,146.71781968188446L49.42623322804769,147.44123862623283L50.500716559092204,146.61341127767358L51.57519989013672,147.42323253610667L52.649683221181235,147.87822022770283L53.72416655222575,148.24158706998873L54.798649883270265,148.7243171600007L55.873133214314784,149.29642834288535L56.94761654535929,125.79304832775986L58.02209987640381,122.73388392459736L59.09658320744832,124.44651705350144L60.17106653849284,126.5174329232799L61.24554986953735,128.34706390982092L62.32003320058187,130.44410954862386L63.39451653162638,132.01158488235507L64.4689998626709,131.56780491349377L65.5434831937154,132.94996243157368L66.61796652475994,134.5091147693555L67.69244985580444,135.13804412031715L68.76693318684896,136.48398529081769L69.84141651789346,137.35317627306188L70.915899848938,138.45819217242112L71.9903831799825,139.26151998041038L73.06486651102702,139.21770493061152L74.13934984207152,140.1729624473621L75.21383317311606,141.21810830729066L76.28831650416056,142.26033739515034L77.36279983520508,143.36380443618881L78.43728316624959,143.58013994497207L79.51176649729412,144.17642986331293L80.58624982833862,144.4777783260385L81.66073315938313,145.4116140864507L82.73521649042766,146.2495490673162L83.80969982147217,146.86144497210645" fill="none"></path></g><g><path style="fill: none;" stroke="rgb(255, 112, 67)" stroke-width="2px" d="M21.489666620890297,161.0799775551518L22.564149951934812,152.33841349745313L23.638633282979328,66.75381608483337L24.713116614023846,92.67524408806129L25.78759994506836,98.40058222770232L26.862083276112877,110.36481907151705L27.936566607157392,119.10125978461429L29.011049938201904,125.60014056360373L30.08553326924642,130.308251586818L31.160016600290934,133.53823237876213L32.23449993133545,136.2842441660151L33.30898326237997,137.85585245323784L34.38346659342448,140.06892528182502L35.457949924469,142.17928997718712L36.53243325551351,143.96409849852304L37.60691658655803,145.16170685565035L38.68139991760254,144.76024301487885L39.75588324864706,146.0301479503359L40.830366579691564,144.84030554480668L41.90484991073608,144.35152796549193L42.979333241780594,145.52521984047885L44.05381657282511,146.00566806647612L45.128299903869625,146.94373536853482L46.20278323491414,147.6741600196689L47.277266565958655,148.55334475494732L48.351749897003174,149.1591090668485L49.42623322804769,149.6528531037229L50.500716559092204,149.42399416899747L51.57519989013672,149.3394352291598L52.649683221181235,150.0601702687936L53.72416655222575,150.2294934035132L54.798649883270265,149.9243899638846L55.873133214314784,150.30721575758758L56.94761654535929,145.0965661257125L58.02209987640381,141.3732201944853L59.09658320744832,142.00442603775986L60.17106653849284,143.14366463508534L61.24554986953735,143.8866886973487L62.32003320058187,144.38326670437365L63.39451653162638,145.1385331571017L64.4689998626709,145.5349160868961L65.5434831937154,146.0020021165122L66.61796652475994,146.44185319910903L67.69244985580444,147.22713931817452L68.76693318684896,147.96224607724739L69.84141651789346,148.53236749607774L70.915899848938,149.02066770229177L71.9903831799825,149.1817011889283L73.06486651102702,148.75549575184854L74.13934984207152,149.25067121844745L75.21383317311606,149.46428425475148L76.28831650416056,150.14546271132676L77.36279983520508,150.71550374318443L78.43728316624959,150.98624134403477L79.51176649729412,150.93906125115564L80.58624982833862,151.09473680186855L81.66073315938313,151.66421288817838L82.73521649042766,151.99394288218332L83.80969982147217,151.96388926738678" fill="none"></path></g></g></g></g><g opacity="0.2"><g><g><g><path style="fill: none;" stroke="rgb(0, 153, 136)" stroke-width="2px" d="M21.489666620890297,162.4591504919768L22.564149951934812,159.91651325077453L23.638633282979328,162.22076329308993L24.713116614023846,148.06182506090448L25.78759994506836,129.52536352699778L26.862083276112877,107.96759714333758L27.936566607157392,106.17138934493822L29.011049938201904,100.13502216462975L30.08553326924642,125.15336681884767L31.160016600290934,51.17893738906476L32.23449993133545,13.201364816316271L33.30898326237997,-8.026156881552481L34.38346659342448,80.37400328609691L35.457949924469,61.03915066497463L36.53243325551351,113.2257284911339L37.60691658655803,-4.6749130911982775L38.68139991760254,115.81821906425975L39.75588324864706,101.08565574624997L40.830366579691564,-29.48766138590301L42.979333241780594,-44.175405117606175L44.05381657282511,102.16132581760792L45.128299903869625,149.951717173723L46.20278323491414,26.41900059408684L47.277266565958655,-81.79680315373588L54.798649883270265,-37.47855388302253L55.873133214314784,97.69173524457813L56.94761654535929,76.90106759252618L58.02209987640381,67.59053099646476L59.09658320744832,64.52183830080261L60.17106653849284,71.5340058799088L61.24554986953735,47.94569529040777L62.32003320058187,46.508544009381524L63.39451653162638,31.26805551130724L64.4689998626709,60.40334955287943L65.5434831937154,10.660967906382467L66.61796652475994,140.19150517373808L67.69244985580444,48.5067669605819L68.76693318684896,53.65551597240568L69.84141651789346,-29.46966761676532L70.915899848938,138.6586689412838L71.9903831799825,44.570640596330634L73.06486651102702,53.710475664429026L74.13934984207152,-508.55517467661093L83.80969982147217,-12.738695241786871L84.88418315251668,159.564172492982L85.95866648356119,-61.631913488830975L87.03314981460572,131.07959128818752L88.10763314565023,139.0420468239157L89.18211647669474,130.44400818570656L90.25659980773925,100.19134840472294L91.33108313878378,107.10885195547273L92.40556646982829,105.2300131959624L93.4800498008728,57.198629492536426L94.55453313191731,146.12299111901223L95.62901646296184,117.16029688423941L96.70349979400635,88.41422976373045L97.77798312505085,135.98115461859783L98.85246645609539,155.0986782408445L99.92694978713989,154.06115852265455L101.00143311818441,124.42462980338713L102.07591644922891,96.36693867450907L103.15039978027345,63.011457058616784L104.22488311131795,101.74426279091949L105.29936644236247,128.104464596849L106.37384977340697,118.35663793574227L107.4483331044515,92.31043909934209L108.52281643549601,142.823144424546L109.59729976654053,104.34425608516038L110.67178309758503,127.13273991437634L111.74626642862957,119.20438959001015L112.82074975967407,151.7579706956281L113.89523309071858,153.14109148414542L114.96971642176311,149.82712600850223L116.04419975280761,158.253560838104L117.11868308385213,117.72504281400992L118.19316641489664,156.10556428491407L119.26764974594117,104.93435493787665L120.34213307698568,78.23976360483101L121.4166164080302,131.02472996635598L122.4910997390747,148.7955576869161L123.56558307011923,144.64176600407941L124.64006640116374,148.43208514552737L125.71454973220825,123.81170640751972L126.78903306325276,157.80612402070733L127.86351639429729,151.05976433145193L128.9379997253418,150.55475303598774L130.01248305638632,146.60863279198048L131.0869663874308,146.2914726710252L132.16144971847532,149.5303949835951L133.23593304951987,118.1718083213139L134.3104163805644,133.99545392694807L135.38489971160888,143.62831906701493L136.4593830426534,157.29355450472937L137.53386637369792,141.54687892153356L138.60834970474244,162.17336904979547L139.68283303578693,70.45275263550282L140.75731636683145,144.11129942749693L141.831799697876,94.94883398953814L142.9062830289205,134.59389031808274L143.980766359965,117.42717255593561L145.05524969100952,120.14749386397703L146.12973302205404,144.9260359184741L147.20421635309853,146.80984370199718L148.27869968414305,161.43592959567803L149.3531830151876,158.6956750305282L150.42766634623212,146.26183665675543L151.5021496772766,161.06326725115173L152.57663300832112,155.2343845730751L153.65111633936564,149.08249423110468L154.72559967041016,146.6283533567823L155.80008300145465,132.04580723991944L156.87456633249917,134.94898809989942L157.94904966354372,148.52573888542744L159.02353299458824,158.27042501169464L160.09801632563273,158.04977402485542L161.17249965667725,156.03693379488453L162.24698298772176,158.01171240425907L163.32146631876626,160.866230261486L164.39594964981077,155.90679800709626L165.47043298085532,156.4507665571666L166.54491631189984,132.22898317166408L167.61939964294433,136.76465458569814L168.69388297398885,154.8395817902619L169.76836630503337,158.50942569495334L170.8428496360779,146.57260803255147L171.91733296712238,160.28816547301037L172.9918162981669,158.72008745468074L174.06629962921144,158.98430314321763L175.14078296025596,157.98834449873095L176.21526629130045,156.18134854774314L177.28974962234497,146.63923788557213L178.3642329533895,158.31523462804935L179.43871628443398,125.85899747385085L180.5131996154785,143.66077591300086L181.58768294652305,158.87649439798213L182.66216627756756,158.88155946586457L183.73664960861205,160.7313821759457L184.81113293965657,159.63298277447697L185.8856162707011,160.74550394810822L186.9600996017456,159.64801812656265L188.0345829327901,158.163066575952L189.10906626383462,158.89927540567675L190.18354959487917,157.66432837420535L191.2580329259237,162.0745782921936L192.33251625696818,156.47940424692226L193.4069995880127,160.0770773316746L194.4814829190572,159.28029738868145L195.5559662501017,160.55226750409594L196.63044958114622,159.215833341539L197.70493291219077,160.81177388586633L198.7794162432353,160.44481269215186L199.85389957427978,153.2431970845787L200.9283829053243,158.89426351087096L202.00286623636882,162.41915129431715L203.07734956741334,155.6876677702492L204.15183289845783,147.5010458426519L205.22631622950234,159.48518189363108L206.3007995605469,152.71741705003927L207.3752828915914,148.5903335389394L208.4497662226359,160.22601977200978L209.52424955368042,154.03158432208642L210.59873288472494,117.38674506576015L211.67321621576943,147.86784701863883L212.74769954681395,157.80461257600362L213.8221828778585,140.96791185241352L214.896666208903,152.2392335657344L215.9711495399475,160.16833894778898L217.04563287099202,162.90379447660547L218.12011620203654,157.82178581810226L219.19459953308106,146.53268435727725L220.26908286412555,153.38780326051324L221.34356619517007,139.89686783872395L222.41804952621462,151.9532886994253L223.49253285725914,157.9341664509343L224.56701618830363,160.5528882997658L225.64149951934814,147.67933383932566L226.71598285039266,147.32234176665338L227.79046618143715,147.61702164012883L228.86494951248167,137.01612335843558L229.93943284352622,157.55589052500676L231.01391617457074,157.11363675325634L232.08839950561523,160.0546160271033L233.16288283665975,159.033111707268L234.23736616770427,160.56044652027958" fill="none"></path></g><g><path style="fill: none;" stroke="rgb(238, 51, 119)" stroke-width="2px" d="M21.489666620890297,161.44686945770076L22.564149951934812,89.17224919250104L23.638633282979328,-1202.4415773174615L24.713116614023846,158.27399990410402L25.78759994506836,150.5723759229158L26.862083276112877,161.46234631248848L27.936566607157392,161.05265124639897L29.011049938201904,162.51281176393476L30.08553326924642,162.32045898999002L31.160016600290934,146.8469784494012L32.23449993133545,159.06020372215187L33.30898326237997,159.6912139400411L34.38346659342448,162.78101950428393L35.457949924469,160.8526443742366L36.53243325551351,158.41115852599057L37.60691658655803,158.55756228424755L38.68139991760254,148.2579340142168L39.75588324864706,154.21410356633442L40.830366579691564,152.4128350203651L41.90484991073608,154.69630826456083L42.979333241780594,159.52020234657488L44.05381657282511,136.56871977421184L45.128299903869625,155.727653259225L46.20278323491414,157.22713734401532L47.277266565958655,150.82757212832627L48.351749897003174,159.52381146915238L49.42623322804769,148.32538007396403L50.500716559092204,157.01019252061846L51.57519989013672,148.99214120993753L52.649683221181235,158.06090447912476L53.72416655222575,151.5699387326586L54.798649883270265,153.34540504318454L55.873133214314784,157.80353415954283L56.94761654535929,106.20361222938689L58.02209987640381,120.77264706747349L59.09658320744832,158.43949545553147L60.17106653849284,150.67304452095266L61.24554986953735,150.31431634732783L62.32003320058187,160.62401958605645L63.39451653162638,146.1241037656411L64.4689998626709,150.23472954485496L65.5434831937154,156.704234637586L66.61796652475994,159.55969731391863L67.69244985580444,156.44261844783375L68.76693318684896,158.8739646888606L69.84141651789346,156.32333993763353L70.915899848938,147.79653128823855L71.9903831799825,161.32232149560474L73.06486651102702,152.36263099538442L74.13934984207152,159.92722795805082L75.21383317311606,159.4206949155993L76.28831650416056,159.59660574341518L77.36279983520508,155.37030293294882L78.43728316624959,143.33472126564928L79.51176649729412,159.44587934635845L80.58624982833862,157.8898749397452L81.66073315938313,159.36850620553278L82.73521649042766,161.10228216531286L83.80969982147217,161.7962287013861L84.88418315251668,154.22942472370707L85.95866648356119,138.61864822514468L87.03314981460572,159.59683438764478L88.10763314565023,156.60328488690635L89.18211647669474,149.82378939794256L90.25659980773925,151.9761026079611L91.33108313878378,162.03767659241456L92.40556646982829,155.7144729828509L93.4800498008728,161.64457476647357L94.55453313191731,155.02511461862895L95.62901646296184,157.83194785771315L96.70349979400635,162.16943274663075L97.77798312505085,157.77881665486302L98.85246645609539,159.6628002418708L99.92694978713989,161.21929550244786L101.00143311818441,160.6022583382724L102.07591644922891,160.97272978587495L103.15039978027345,157.1245053301232L104.22488311131795,160.54753310628388L105.29936644236247,140.64977999348253L106.37384977340697,160.63369559051358L107.4483331044515,154.91450863723L108.52281643549601,157.12638699237309L109.59729976654053,158.5231077922383L110.67178309758503,159.72144316644722L111.74626642862957,161.6922884636426L112.82074975967407,161.4444002329539L113.89523309071858,158.0788361022291L114.96971642176311,160.93203875663835L116.04419975280761,161.85988368693415L117.11868308385213,159.9755862126083L118.19316641489664,161.3945923473943L119.26764974594117,158.30338168460105L120.34213307698568,159.28638105331345L121.4166164080302,159.9929003633601L122.4910997390747,160.2872083576307L123.56558307011923,161.15038369360965L124.64006640116374,161.82743332141695L125.71454973220825,159.68026693288618L126.78903306325276,156.67042320747245L127.86351639429729,160.2455605453462L128.9379997253418,161.16086676567082L130.01248305638632,150.61331919193475L131.0869663874308,160.07735981364428L132.16144971847532,160.19744456061915L133.23593304951987,131.1183783889484L134.3104163805644,150.06229590392016L135.38489971160888,151.47418731488477L136.4593830426534,157.78580957910572L137.53386637369792,162.3125777430356L138.60834970474244,161.62149914670113L139.68283303578693,161.10182936333203L140.75731636683145,158.3569273051173L141.831799697876,161.04676033416982L142.9062830289205,156.29209876111247L143.980766359965,154.5202362558564L145.05524969100952,162.2399859418787L146.12973302205404,143.45888970491072L147.20421635309853,155.66417856363995L148.27869968414305,155.17184240032174L149.3531830151876,160.84222627302847L150.42766634623212,158.77545724405775L151.5021496772766,149.13886699763995L152.57663300832112,155.19443896390675L153.65111633936564,159.7017927236402L154.72559967041016,159.25804412377255L155.80008300145465,157.92876938365455L156.87456633249917,152.55452531770894L157.94904966354372,156.65336395515686L159.02353299458824,155.63295732702264L160.09801632563273,158.3138979898351L161.17249965667725,161.8569207834038L162.24698298772176,160.6690276044534L163.32146631876626,161.6203108946039L164.39594964981077,159.6838787141175L165.47043298085532,157.11987395514717L166.54491631189984,160.39932345741124L167.61939964294433,162.81549547323115L168.69388297398885,161.52414721932018L169.76836630503337,161.6028606540091L170.8428496360779,157.982712140587L171.91733296712238,162.04659421586604L172.9918162981669,160.4462064914235L174.06629962921144,151.8452888634456L175.14078296025596,161.80884168749873L176.21526629130045,160.4163019531167L177.28974962234497,161.31566406024254L178.3642329533895,152.050818756613L179.43871628443398,153.53592683546808L180.5131996154785,157.02256855420828L181.58768294652305,146.22116722908123L182.66216627756756,159.65195492822497L183.73664960861205,160.65676124033416L184.81113293965657,155.31573539236575L185.8856162707011,157.28578259491383L186.9600996017456,161.77802772341533L188.0345829327901,157.0578030287856L189.10906626383462,155.84720228745266L190.18354959487917,160.56742216327234L191.2580329259237,145.64948753011583L192.33251625696818,157.40181821210194L193.4069995880127,155.53631326622457L194.4814829190572,158.67579394950124L195.5559662501017,158.84281191257946L196.63044958114622,159.82664842491732L197.70493291219077,155.84506007712721L198.7794162432353,158.64305395688217L199.85389957427978,158.54361565090625L200.9283829053243,160.7585458083172L202.00286623636882,161.9944359141527L203.07734956741334,159.03040552999835L204.15183289845783,160.22258944390254L205.22631622950234,152.76906937669514L206.3007995605469,161.14271314497148L207.3752828915914,160.17330730713826L208.4497662226359,161.74398980922845L209.52424955368042,157.8744298226376L210.59873288472494,161.34882893897722L211.67321621576943,162.19026969679337L212.74769954681395,161.80757683293794L213.8221828778585,161.44535319418696L214.896666208903,157.9539219105677L215.9711495399475,160.02999223997108L217.04563287099202,159.11166429340005L218.12011620203654,154.17426962062706L219.19459953308106,161.78073356835327L220.26908286412555,159.25056599520548L221.34356619517007,159.50261402214664L222.41804952621462,160.53773929022879L223.49253285725914,159.14427866462555L224.56701618830363,160.95744285867036L225.64149951934814,159.01566827947363L226.71598285039266,160.20501042476272L227.79046618143715,154.06118909717364L228.86494951248167,159.39190169459442L229.93943284352622,160.87225211241642L231.01391617457074,161.29340996450432L232.08839950561523,159.80535460171018L233.16288283665975,158.75500953743276L234.23736616770427,157.6351257205103" fill="none"></path></g><g><path style="fill: none;" stroke="rgb(51, 187, 238)" stroke-width="2px" d="M21.489666620890297,161.02131302901302L22.564149951934812,22.28441103855465L23.638633282979328,-466.5142006633465L24.713116614023846,158.36901288077593L25.78759994506836,89.4010050855483L26.862083276112877,156.3572251453909L27.936566607157392,161.09331635376068L29.011049938201904,159.4212725081444L30.08553326924642,162.08658053567117L31.160016600290934,156.759350525522L32.23449993133545,154.13425953910328L33.30898326237997,151.83115678899946L34.38346659342448,159.55677777967892L35.457949924469,162.3756253092659L36.53243325551351,160.1451262411783L37.60691658655803,162.3954002103054L38.68139991760254,159.99489302440747L39.75588324864706,159.78818235660674L40.830366579691564,143.67780326147044L41.90484991073608,157.72422983903968L42.979333241780594,162.01175031415326L44.05381657282511,143.2898937033812L45.128299903869625,144.1217505957121L46.20278323491414,149.18589326662743L47.277266565958655,152.88007814414965L48.351749897003174,152.6495276597655L49.42623322804769,137.34850294325443L50.500716559092204,133.96494055691363L51.57519989013672,145.7335621402578L52.649683221181235,154.27308048429853L53.72416655222575,158.6378868631589L54.798649883270265,150.46707462057597L55.873133214314784,150.62597305485005L56.94761654535929,84.387512428794L58.02209987640381,100.66031367152746L59.09658320744832,114.29849531250687L60.17106653849284,153.9220663947684L61.24554986953735,158.7773914147208L62.32003320058187,151.98214572812216L63.39451653162638,154.08535493118322L64.4689998626709,153.17698131689244L65.5434831937154,152.18421671265364L66.61796652475994,142.8362994437087L67.69244985580444,152.0872024343094L68.76693318684896,158.568528234311L69.84141651789346,157.07959667891325L70.915899848938,133.44177065577415L71.9903831799825,160.46724674552138L73.06486651102702,140.26651909161922L74.13934984207152,159.46321676033125L75.21383317311606,147.98824814541976L76.28831650416056,155.45375741208437L77.36279983520508,156.21582995862244L78.43728316624959,156.74039831167775L79.51176649729412,145.82538539699425L80.58624982833862,151.81641854147958L81.66073315938313,155.07452902342135L82.73521649042766,150.77717867426009L83.80969982147217,145.68733878472767L84.88418315251668,139.96606993932747L85.95866648356119,130.1950890619944L87.03314981460572,141.24383226444755L88.10763314565023,147.05489714303704L89.18211647669474,156.55770426094026L90.25659980773925,159.74809450945835L91.33108313878378,147.44282132372237L92.40556646982829,149.44586308499396L93.4800498008728,161.45188500815559L94.55453313191731,145.7816598467397L95.62901646296184,153.8272501584801L96.70349979400635,157.61297514610567L97.77798312505085,158.26841772805116L98.85246645609539,157.26753957697935L99.92694978713989,154.08423696724668L101.00143311818441,159.73741070903287L102.07591644922891,161.47789179377824L103.15039978027345,135.34952227571182L104.22488311131795,152.66097715249475L105.29936644236247,88.49137326333134L106.37384977340697,160.2538206504717L107.4483331044515,153.57864409125668L108.52281643549601,149.3894663905742L109.59729976654053,161.94422947976702L110.67178309758503,151.57022985525327L111.74626642862957,159.73425621626072L112.82074975967407,125.3853769041858L113.89523309071858,161.08931723989917L114.96971642176311,159.38456713333431L116.04419975280761,155.40685609982702L117.11868308385213,160.2842509375739L118.19316641489664,159.9829064836041L119.26764974594117,157.9996344722302L120.34213307698568,160.75974403036628L121.4166164080302,154.50036680643993L122.4910997390747,138.82491722407752L123.56558307011923,160.61294596051277L124.64006640116374,147.7498094351149L125.71454973220825,159.66668952009587L126.78903306325276,146.09096098696642L127.86351639429729,152.59208544972617L128.9379997253418,160.61144681208302L130.01248305638632,156.97197902442196L131.0869663874308,159.9566928214801L132.16144971847532,154.40752262663182L133.23593304951987,132.6404922704966L134.3104163805644,154.65321613858185L135.38489971160888,157.72769007700253L136.4593830426534,160.8576562690424L137.53386637369792,156.02463286826548L138.60834970474244,162.74252456465436L139.68283303578693,154.43848996180816L140.75731636683145,157.20705586695573L141.831799697876,158.03460706940504L142.9062830289205,148.0694168469229L143.980766359965,146.08413489325173L145.05524969100952,162.08282327622547L146.12973302205404,122.01972321006002L147.20421635309853,147.85741711965431L148.27869968414305,153.6824080270179L149.3531830151876,153.3475485828369L150.42766634623212,157.90895576596859L151.5021496772766,148.22734487254814L152.57663300832112,153.67919504386145L153.65111633936564,159.89740949366183L154.72559967041016,161.76026874664424L155.80008300145465,159.17480266927532L156.87456633249917,156.20135757648578L157.94904966354372,158.84721597265283L159.02353299458824,153.96355468782298L160.09801632563273,156.42301154048326L161.17249965667725,160.68280873659364L162.24698298772176,158.78493002766257L163.32146631876626,161.4608674362942L164.39594964981077,158.49470373168813L165.47043298085532,151.02692065133337L166.54491631189984,159.85243902875024L167.61939964294433,161.2764412725849L168.69388297398885,158.43378666108984L169.76836630503337,161.26302869633219L170.8428496360779,162.06452700213143L171.91733296712238,160.35923793658498L172.9918162981669,147.15164422667112L174.06629962921144,155.06785114965783L175.14078296025596,159.50238670724397L176.21526629130045,161.1079045535049L177.28974962234497,155.32637333101263L178.3642329533895,156.78863759147626L179.43871628443398,162.29627338224253L180.5131996154785,160.48965188603046L181.58768294652305,155.84008041849913L182.66216627756756,157.82356080186713L183.73664960861205,158.98599072373776L184.81113293965657,160.58242511301444L185.8856162707011,161.08535651035234L186.9600996017456,160.60394093381657L188.0345829327901,158.18284297248428L189.10906626383462,157.90043610976267L190.18354959487917,160.74328546765094L191.2580329259237,158.31440047540943L192.33251625696818,159.4613317747641L193.4069995880127,156.22842001384578L194.4814829190572,160.39218962451545L195.5559662501017,155.36165699068584L196.63044958114622,159.64037183814068L197.70493291219077,142.1453458871873L198.7794162432353,158.1108529410058L199.85389957427978,162.40961736167418L200.9283829053243,157.4995569736155L202.00286623636882,161.7855842822705L203.07734956741334,158.36333200219954L204.15183289845783,155.82196634527554L205.22631622950234,156.54366391005135L206.3007995605469,159.34417653198076L207.3752828915914,160.48563632174836L208.4497662226359,150.1612563168697L209.52424955368042,160.16602658361825L210.59873288472494,159.28414213445484L211.67321621576943,160.82494901109862L212.74769954681395,158.96926214149255L213.8221828778585,161.72405189947585L214.896666208903,159.038655665172L215.9711495399475,161.4480140081756L217.04563287099202,159.79275623819365L218.12011620203654,160.97013560439797L219.19459953308106,161.10658536270645L220.26908286412555,156.85342233873723L221.34356619517007,160.7535084901341L222.41804952621462,156.4770307337134L223.49253285725914,160.85312160259951L224.56701618830363,160.40485146339228L225.64149951934814,153.24370821077798L226.71598285039266,160.84809491903178L227.79046618143715,161.4373762356946L228.86494951248167,157.0249540313594L229.93943284352622,157.0266416118795L231.01391617457074,162.20404650862113L232.08839950561523,154.66149452195248L233.16288283665975,152.699091613836L234.23736616770427,149.20252846365673" fill="none"></path></g><g><path style="fill: none;" stroke="rgb(204, 51, 17)" stroke-width="2px" d="M21.489666620890297,162.53376295312924L22.564149951934812,140.9942750638156L23.638633282979328,-72.77080100812546L24.713116614023846,155.53556618449767L25.78759994506836,153.06207230426577L26.862083276112877,160.46694100033065L27.936566607157392,162.78656823945653L29.011049938201904,159.80046932529316L30.08553326924642,158.45136966821042L31.160016600290934,151.23860798677663L32.23449993133545,162.5763628958175L33.30898326237997,153.28806652064463L34.38346659342448,161.03372080028294L35.457949924469,162.8954050113544L36.53243325551351,155.73503833490796L37.60691658655803,159.68133105908262L38.68139991760254,150.0774302908611L39.75588324864706,159.54876193837424L40.830366579691564,146.64018037835572L41.90484991073608,146.22451048627548L42.979333241780594,154.43796886565698L44.05381657282511,157.95117618582228L45.128299903869625,161.50168092977296L46.20278323491414,156.18993334096797L47.277266565958655,158.8615464491412L48.351749897003174,159.06584339159386L49.42623322804769,147.8045870093507L50.500716559092204,149.64579385319038L51.57519989013672,152.24802373996775L52.649683221181235,148.38692658085714L53.72416655222575,135.67559553364023L54.798649883270265,147.63428162080874L55.873133214314784,155.7062271679897L56.94761654535929,75.80844062702518L58.02209987640381,131.19918551353032L59.09658320744832,135.71214670652805L60.17106653849284,151.07179606937044L61.24554986953735,156.28347408808017L62.32003320058187,162.26512426161042L63.39451653162638,159.11477292439358L64.4689998626709,137.66804123006278L65.5434831937154,144.16698094403577L66.61796652475994,159.32545695034685L67.69244985580444,159.2723423640832L68.76693318684896,159.242741244645L69.84141651789346,150.53399958417202L70.915899848938,160.53015780649397L71.9903831799825,161.3285354342745L73.06486651102702,154.62216173249251L74.13934984207152,160.46828029719873L75.21383317311606,156.31523636075238L76.28831650416056,155.97778406442131L77.36279983520508,158.93023808820888L78.43728316624959,150.91004357020728L79.51176649729412,150.60178462228288L80.58624982833862,151.22350284502787L81.66073315938313,161.09191989583522L82.73521649042766,159.6277505437348L83.80969982147217,158.594436483576" fill="none"></path></g><g><path style="fill: none;" stroke="rgb(0, 119, 187)" stroke-width="2px" d="M21.489666620890297,162.43651305158912L22.564149951934812,146.67636465701466L23.638633282979328,-123.89524662824135L24.713116614023846,157.3779308720813L25.78759994506836,119.67522389045885L26.862083276112877,160.2109442077849L27.936566607157392,161.93241541913102L29.011049938201904,157.09747147329193L30.08553326924642,150.26001068414726L31.160016600290934,154.32512363306773L32.23449993133545,140.6049258446761L33.30898326237997,153.54722146161154L34.38346659342448,159.23363535526903L35.457949924469,161.32479636999096L36.53243325551351,152.7204798192542L37.60691658655803,161.44493645019872L38.68139991760254,130.6137845021359L39.75588324864706,157.02061976094913L40.830366579691564,153.32556151564296L41.90484991073608,131.10766933131148L42.979333241780594,157.83994010346507L44.05381657282511,156.62088118729608L45.128299903869625,159.44407877305045L46.20278323491414,150.0547971707859L47.277266565958655,150.11451319451538L48.351749897003174,156.2594710966178L49.42623322804769,157.12181078446406L50.500716559092204,135.3507505737824L51.57519989013672,158.61205471785985L52.649683221181235,154.2554748786204L53.72416655222575,153.40337366668268L54.798649883270265,155.66807482083132L55.873133214314784,157.6227018311515L56.94761654535929,-220.0286172462665L58.02209987640381,77.25891708105941L59.09658320744832,150.15047015827167L60.17106653849284,157.87935198787656L61.24554986953735,156.28957237530824L62.32003320058187,162.72500374510858L63.39451653162638,156.32040146048527L64.4689998626709,124.63737528305569L65.5434831937154,154.6767970687483L66.61796652475994,159.16968708697004L67.69244985580444,145.14340080917643L68.76693318684896,158.0129769264881L69.84141651789346,151.32779917621906L70.915899848938,156.3103185158259L71.9903831799825,152.2988385906664L73.06486651102702,138.50357371131696L74.13934984207152,155.80540027324585L75.21383317311606,158.3866586985933L76.28831650416056,159.44240847378023L77.36279983520508,161.61696913290245L78.43728316624959,147.1700979429218L79.51176649729412,154.10125966307209L80.58624982833862,149.5077392649623L81.66073315938313,161.04044686214718L82.73521649042766,160.3087703725432L83.80969982147217,157.15254349343968" fill="none"></path></g><g><path style="fill: none;" stroke="rgb(255, 112, 67)" stroke-width="2px" d="M21.489666620890297,161.0799775551518L22.564149951934812,144.06889389887016L23.638633282979328,-90.8002386456169L24.713116614023846,162.33925126918967L25.78759994506836,118.37274406065895L26.862083276112877,161.1650715928726L27.936566607157392,162.4578049638888L29.011049938201904,162.25861803718496L30.08553326924642,159.88525113735452L31.160016600290934,155.7892529391948L32.23449993133545,156.77745861677448L33.30898326237997,150.43799825293794L34.38346659342448,158.92338873127318L35.457949924469,161.18423832684798L36.53243325551351,160.85772074139783L37.60691658655803,157.01815784750033L38.68139991760254,140.62054809459528L39.75588324864706,159.61899459966955L40.830366579691564,131.67012616013233L41.90484991073608,138.77109277724063L42.979333241780594,159.31211017577647L44.05381657282511,151.7990495559925L45.128299903869625,158.53180956623174L46.20278323491414,156.90093381204912L47.277266565958655,159.89125504237154L48.351749897003174,157.12221755850044L49.42623322804769,156.25998554613437L50.500716559092204,146.31034911323522L51.57519989013672,148.17113428389666L52.649683221181235,160.1622257056331L53.72416655222575,152.63480337017825L54.798649883270265,145.53567587685848L55.873133214314784,155.87870667070314L56.94761654535929,68.42863439597488L58.02209987640381,86.02508898762946L59.09658320744832,151.4778416345774L60.17106653849284,160.39627697245106L61.24554986953735,155.2343081367774L62.32003320058187,152.0273455019268L63.39451653162638,156.85140242648808L64.4689998626709,151.72515493137482L65.5434831937154,153.34436418020914L66.61796652475994,153.39882537463893L67.69244985580444,159.71990613220035L68.76693318684896,159.72064058532155L69.84141651789346,157.69862899662405L70.915899848938,156.90942023508214L71.9903831799825,151.79513601755121L73.06486651102702,141.80887330479345L74.13934984207152,157.35403555609918L75.21383317311606,152.9732932061674L76.28831650416056,161.37529384388836L77.36279983520508,160.1449225218284L78.43728316624959,155.478969426377L79.51176649729412,150.1537815116199L80.58624982833862,153.6931968442698L81.66073315938313,161.1950607096045L82.73521649042766,157.5262897379003L83.80969982147217,151.4584361202547" fill="none"></path></g></g></g></g></g></g><g transform="translate(72, 176)" clip-path="url(#clip_1)"><clipPath id="clip_1"><rect width="257" height="23"></rect></clipPath><g><g><line x1="0" y1="0" x2="0" y2="5" style="visibility: inherit;" fill="rgb(0, 0, 0)" stroke="rgb(204, 204, 204)" stroke-width="1px"></line><line x1="21.489666620890297" y1="0" x2="21.489666620890297" y2="5" style="visibility: inherit;" fill="rgb(0, 0, 0)" stroke="rgb(204, 204, 204)" stroke-width="1px"></line><line x1="42.979333241780594" y1="0" x2="42.979333241780594" y2="5" style="visibility: inherit;" fill="rgb(0, 0, 0)" stroke="rgb(204, 204, 204)" stroke-width="1px"></line><line x1="64.4689998626709" y1="0" x2="64.4689998626709" y2="5" style="visibility: inherit;" fill="rgb(0, 0, 0)" stroke="rgb(204, 204, 204)" stroke-width="1px"></line><line x1="85.95866648356119" y1="0" x2="85.95866648356119" y2="5" style="visibility: inherit;" fill="rgb(0, 0, 0)" stroke="rgb(204, 204, 204)" stroke-width="1px"></line><line x1="107.4483331044515" y1="0" x2="107.4483331044515" y2="5" style="visibility: inherit;" fill="rgb(0, 0, 0)" stroke="rgb(204, 204, 204)" stroke-width="1px"></line><line x1="128.9379997253418" y1="0" x2="128.9379997253418" y2="5" style="visibility: inherit;" fill="rgb(0, 0, 0)" stroke="rgb(204, 204, 204)" stroke-width="1px"></line><line x1="150.42766634623212" y1="0" x2="150.42766634623212" y2="5" style="visibility: inherit;" fill="rgb(0, 0, 0)" stroke="rgb(204, 204, 204)" stroke-width="1px"></line><line x1="171.91733296712238" y1="0" x2="171.91733296712238" y2="5" style="visibility: inherit;" fill="rgb(0, 0, 0)" stroke="rgb(204, 204, 204)" stroke-width="1px"></line><line x1="193.4069995880127" y1="0" x2="193.4069995880127" y2="5" style="visibility: inherit;" fill="rgb(0, 0, 0)" stroke="rgb(204, 204, 204)" stroke-width="1px"></line><line x1="214.896666208903" y1="0" x2="214.896666208903" y2="5" style="visibility: inherit;" fill="rgb(0, 0, 0)" stroke="rgb(204, 204, 204)" stroke-width="1px"></line><line x1="236.38633282979328" y1="0" x2="236.38633282979328" y2="5" style="visibility: inherit;" fill="rgb(0, 0, 0)" stroke="rgb(204, 204, 204)" stroke-width="1px"></line><line x1="257.8759994506836" y1="0" x2="257.8759994506836" y2="5" style="visibility: inherit;" fill="rgb(0, 0, 0)" stroke="rgb(204, 204, 204)" stroke-width="1px"></line></g><g transform="translate(0, 8)"><text style="text-anchor: middle; visibility: hidden; font-family: &quot;Helvetica Neue&quot;, sans-serif; font-size: 12px; font-weight: 200;" x="0" y="0" dx="0em" dy="0.95em" fill="rgb(33, 33, 33)" stroke="none" stroke-width="1px">-200</text><text style="text-anchor: middle; visibility: inherit; font-family: &quot;Helvetica Neue&quot;, sans-serif; font-size: 12px; font-weight: 200;" x="21.489666620890297" y="0" dx="0em" dy="0.95em" fill="rgb(33, 33, 33)" stroke="none" stroke-width="1px">0</text><text style="text-anchor: middle; visibility: hidden; font-family: &quot;Helvetica Neue&quot;, sans-serif; font-size: 12px; font-weight: 200;" x="42.979333241780594" y="0" dx="0em" dy="0.95em" fill="rgb(33, 33, 33)" stroke="none" stroke-width="1px">200</text><text style="text-anchor: middle; visibility: inherit; font-family: &quot;Helvetica Neue&quot;, sans-serif; font-size: 12px; font-weight: 200;" x="64.4689998626709" y="0" dx="0em" dy="0.95em" fill="rgb(33, 33, 33)" stroke="none" stroke-width="1px">400</text><text style="text-anchor: middle; visibility: hidden; font-family: &quot;Helvetica Neue&quot;, sans-serif; font-size: 12px; font-weight: 200;" x="85.95866648356119" y="0" dx="0em" dy="0.95em" fill="rgb(33, 33, 33)" stroke="none" stroke-width="1px">600</text><text style="text-anchor: middle; visibility: inherit; font-family: &quot;Helvetica Neue&quot;, sans-serif; font-size: 12px; font-weight: 200;" x="107.4483331044515" y="0" dx="0em" dy="0.95em" fill="rgb(33, 33, 33)" stroke="none" stroke-width="1px">800</text><text style="text-anchor: middle; visibility: hidden; font-family: &quot;Helvetica Neue&quot;, sans-serif; font-size: 12px; font-weight: 200;" x="128.9379997253418" y="0" dx="0em" dy="0.95em" fill="rgb(33, 33, 33)" stroke="none" stroke-width="1px">1k</text><text style="text-anchor: middle; visibility: inherit; font-family: &quot;Helvetica Neue&quot;, sans-serif; font-size: 12px; font-weight: 200;" x="150.42766634623212" y="0" dx="0em" dy="0.95em" fill="rgb(33, 33, 33)" stroke="none" stroke-width="1px">1.2k</text><text style="text-anchor: middle; visibility: hidden; font-family: &quot;Helvetica Neue&quot;, sans-serif; font-size: 12px; font-weight: 200;" x="171.91733296712238" y="0" dx="0em" dy="0.95em" fill="rgb(33, 33, 33)" stroke="none" stroke-width="1px">1.4k</text><text style="text-anchor: middle; visibility: inherit; font-family: &quot;Helvetica Neue&quot;, sans-serif; font-size: 12px; font-weight: 200;" x="193.4069995880127" y="0" dx="0em" dy="0.95em" fill="rgb(33, 33, 33)" stroke="none" stroke-width="1px">1.6k</text><text style="text-anchor: middle; visibility: hidden; font-family: &quot;Helvetica Neue&quot;, sans-serif; font-size: 12px; font-weight: 200;" x="214.896666208903" y="0" dx="0em" dy="0.95em" fill="rgb(33, 33, 33)" stroke="none" stroke-width="1px">1.8k</text><text style="text-anchor: middle; visibility: inherit; font-family: &quot;Helvetica Neue&quot;, sans-serif; font-size: 12px; font-weight: 200;" x="236.38633282979328" y="0" dx="0em" dy="0.95em" fill="rgb(33, 33, 33)" stroke="none" stroke-width="1px">2k</text><text style="text-anchor: middle; visibility: hidden; font-family: &quot;Helvetica Neue&quot;, sans-serif; font-size: 12px; font-weight: 200;" x="257.8759994506836" y="0" dx="0em" dy="0.95em" fill="rgb(33, 33, 33)" stroke="none" stroke-width="1px">2.2k</text></g><line x1="0" y1="0" x2="257.8759994506836" y2="0" fill="rgb(0, 0, 0)" stroke="rgb(204, 204, 204)" stroke-width="1px"></line></g></g></g></g></svg>