<svg viewBox="0 0 330 200" xmlns="http://www.w3.org/2000/svg"><g><g><g><g><g><line x1="41.0620002746582" y1="176.95999908447266" x2="36.0620002746582" y2="176.95999908447266" style="visibility: inherit;" fill="rgb(0, 0, 0)" stroke="rgb(204, 204, 204)" stroke-width="1px"></line><line x1="41.0620002746582" y1="151.67999921526228" x2="36.0620002746582" y2="151.67999921526228" style="visibility: inherit;" fill="rgb(0, 0, 0)" stroke="rgb(204, 204, 204)" stroke-width="1px"></line><line x1="41.0620002746582" y1="126.3999993460519" x2="36.0620002746582" y2="126.3999993460519" style="visibility: inherit;" fill="rgb(0, 0, 0)" stroke="rgb(204, 204, 204)" stroke-width="1px"></line><line x1="41.0620002746582" y1="101.11999947684153" x2="36.0620002746582" y2="101.11999947684153" style="visibility: inherit;" fill="rgb(0, 0, 0)" stroke="rgb(204, 204, 204)" stroke-width="1px"></line><line x1="41.0620002746582" y1="75.83999960763114" x2="36.0620002746582" y2="75.83999960763114" style="visibility: inherit;" fill="rgb(0, 0, 0)" stroke="rgb(204, 204, 204)" stroke-width="1px"></line><line x1="41.0620002746582" y1="50.55999973842076" x2="36.0620002746582" y2="50.55999973842076" style="visibility: inherit;" fill="rgb(0, 0, 0)" stroke="rgb(204, 204, 204)" stroke-width="1px"></line><line x1="41.0620002746582" y1="25.2799998692104" x2="36.0620002746582" y2="25.2799998692104" style="visibility: inherit;" fill="rgb(0, 0, 0)" stroke="rgb(204, 204, 204)" stroke-width="1px"></line><line x1="41.0620002746582" y1="0" x2="36.0620002746582" y2="0" style="visibility: inherit;" fill="rgb(0, 0, 0)" stroke="rgb(204, 204, 204)" stroke-width="1px"></line></g><g transform="translate(31.062000274658203, 0)"><text style="text-anchor: end; visibility: hidden; font-family: &quot;Helvetica Neue&quot;, sans-serif; font-size: 12px; font-weight: 200;" x="0" y="176.95999908447266" dx="0em" dy="0.3em" fill="rgb(33, 33, 33)" stroke="none" stroke-width="1px">1</text><text style="text-anchor: end; visibility: inherit; font-family: &quot;Helvetica Neue&quot;, sans-serif; font-size: 12px; font-weight: 200;" x="0" y="151.67999921526228" dx="0em" dy="0.3em" fill="rgb(33, 33, 33)" stroke="none" stroke-width="1px">1.5</text><text style="text-anchor: end; visibility: inherit; font-family: &quot;Helvetica Neue&quot;, sans-serif; font-size: 12px; font-weight: 200;" x="0" y="126.3999993460519" dx="0em" dy="0.3em" fill="rgb(33, 33, 33)" stroke="none" stroke-width="1px">2</text><text style="text-anchor: end; visibility: inherit; font-family: &quot;Helvetica Neue&quot;, sans-serif; font-size: 12px; font-weight: 200;" x="0" y="101.11999947684153" dx="0em" dy="0.3em" fill="rgb(33, 33, 33)" stroke="none" stroke-width="1px">2.5</text><text style="text-anchor: end; visibility: inherit; font-family: &quot;Helvetica Neue&quot;, sans-serif; font-size: 12px; font-weight: 200;" x="0" y="75.83999960763114" dx="0em" dy="0.3em" fill="rgb(33, 33, 33)" stroke="none" stroke-width="1px">3</text><text style="text-anchor: end; visibility: inherit; font-family: &quot;Helvetica Neue&quot;, sans-serif; font-size: 12px; font-weight: 200;" x="0" y="50.55999973842076" dx="0em" dy="0.3em" fill="rgb(33, 33, 33)" stroke="none" stroke-width="1px">3.5</text><text style="text-anchor: end; visibility: inherit; font-family: &quot;Helvetica Neue&quot;, sans-serif; font-size: 12px; font-weight: 200;" x="0" y="25.2799998692104" dx="0em" dy="0.3em" fill="rgb(33, 33, 33)" stroke="none" stroke-width="1px">4</text><text style="text-anchor: end; visibility: hidden; font-family: &quot;Helvetica Neue&quot;, sans-serif; font-size: 12px; font-weight: 200;" x="0" y="0" dx="0em" dy="0.3em" fill="rgb(33, 33, 33)" stroke="none" stroke-width="1px">4.5</text></g><line x1="41.0620002746582" y1="0" x2="41.0620002746582" y2="176.95999908447266" fill="rgb(0, 0, 0)" stroke="rgb(204, 204, 204)" stroke-width="1px"></line></g></g><g transform="translate(41, 0)" clip-path="url(#clip_0)"><clipPath id="clip_0"><rect width="288" height="176"></rect></clipPath><g><g><g><line x1="0" y1="0" x2="0" y2="176.95999908447266" fill="rgb(0, 0, 0)" stroke="rgb(66, 66, 66)" stroke-width="1px" opacity="0.25"></line><line x1="24.07816664377848" y1="0" x2="24.07816664377848" y2="176.95999908447266" fill="rgb(0, 0, 0)" stroke="rgb(66, 66, 66)" stroke-width="1px" opacity="0.25"></line><line x1="48.15633328755696" y1="0" x2="48.15633328755696" y2="176.95999908447266" fill="rgb(0, 0, 0)" stroke="rgb(66, 66, 66)" stroke-width="1px" opacity="0.25"></line><line x1="72.23449993133545" y1="0" x2="72.23449993133545" y2="176.95999908447266" fill="rgb(0, 0, 0)" stroke="rgb(66, 66, 66)" stroke-width="1px" opacity="0.25"></line><line x1="96.31266657511392" y1="0" x2="96.31266657511392" y2="176.95999908447266" fill="rgb(0, 0, 0)" stroke="rgb(66, 66, 66)" stroke-width="1px" opacity="0.25"></line><line x1="120.39083321889242" y1="0" x2="120.39083321889242" y2="176.95999908447266" fill="rgb(0, 0, 0)" stroke="rgb(66, 66, 66)" stroke-width="1px" opacity="0.25"></line><line x1="144.4689998626709" y1="0" x2="144.4689998626709" y2="176.95999908447266" fill="rgb(0, 0, 0)" stroke="rgb(66, 66, 66)" stroke-width="1px" opacity="0.25"></line><line x1="168.5471665064494" y1="0" x2="168.5471665064494" y2="176.95999908447266" fill="rgb(0, 0, 0)" stroke="rgb(66, 66, 66)" stroke-width="1px" opacity="0.25"></line><line x1="192.62533315022785" y1="0" x2="192.62533315022785" y2="176.95999908447266" fill="rgb(0, 0, 0)" stroke="rgb(66, 66, 66)" stroke-width="1px" opacity="0.25"></line><line x1="216.70349979400635" y1="0" x2="216.70349979400635" y2="176.95999908447266" fill="rgb(0, 0, 0)" stroke="rgb(66, 66, 66)" stroke-width="1px" opacity="0.25"></line><line x1="240.78166643778485" y1="0" x2="240.78166643778485" y2="176.95999908447266" fill="rgb(0, 0, 0)" stroke="rgb(66, 66, 66)" stroke-width="1px" opacity="0.25"></line><line x1="264.8598330815633" y1="0" x2="264.8598330815633" y2="176.95999908447266" fill="rgb(0, 0, 0)" stroke="rgb(66, 66, 66)" stroke-width="1px" opacity="0.25"></line><line x1="288.9379997253418" y1="0" x2="288.9379997253418" y2="176.95999908447266" fill="rgb(0, 0, 0)" stroke="rgb(66, 66, 66)" stroke-width="1px" opacity="0.25"></line></g><g><line x1="0" y1="176.95999908447266" x2="288.9379997253418" y2="176.95999908447266" fill="rgb(0, 0, 0)" stroke="rgb(66, 66, 66)" stroke-width="1px" opacity="0.25"></line><line x1="0" y1="151.67999921526228" x2="288.9379997253418" y2="151.67999921526228" fill="rgb(0, 0, 0)" stroke="rgb(66, 66, 66)" stroke-width="1px" opacity="0.25"></line><line x1="0" y1="126.3999993460519" x2="288.9379997253418" y2="126.3999993460519" fill="rgb(0, 0, 0)" stroke="rgb(66, 66, 66)" stroke-width="1px" opacity="0.25"></line><line x1="0" y1="101.11999947684153" x2="288.9379997253418" y2="101.11999947684153" fill="rgb(0, 0, 0)" stroke="rgb(66, 66, 66)" stroke-width="1px" opacity="0.25"></line><line x1="0" y1="75.83999960763114" x2="288.9379997253418" y2="75.83999960763114" fill="rgb(0, 0, 0)" stroke="rgb(66, 66, 66)" stroke-width="1px" opacity="0.25"></line><line x1="0" y1="50.55999973842076" x2="288.9379997253418" y2="50.55999973842076" fill="rgb(0, 0, 0)" stroke="rgb(66, 66, 66)" stroke-width="1px" opacity="0.25"></line><line x1="0" y1="25.2799998692104" x2="288.9379997253418" y2="25.2799998692104" fill="rgb(0, 0, 0)" stroke="rgb(66, 66, 66)" stroke-width="1px" opacity="0.25"></line><line x1="0" y1="0" x2="288.9379997253418" y2="0" fill="rgb(0, 0, 0)" stroke="rgb(66, 66, 66)" stroke-width="1px" opacity="0.25"></line></g></g></g><g><g><line x1="0" y1="227.5199988228934" x2="288.9379997253418" y2="227.5199988228934" fill="rgb(0, 0, 0)" stroke="rgb(153, 153, 153)" stroke-width="1.5px"></line></g></g><g><g><line x1="24.07816664377848" y1="0" x2="24.07816664377848" y2="176.95999908447266" fill="rgb(0, 0, 0)" stroke="rgb(153, 153, 153)" stroke-width="1.5px"></line></g></g><g><g><g><g><g><path style="fill: none;" stroke="rgb(0, 153, 136)" stroke-width="2px" d="M24.07816664377848,41.60513955525778L25.282074975967404,35.1950561509162L26.485983308156328,25.680806736139715L27.68989164034526,56.06065274152819L28.893799972534183,83.75050653436553L30.097708304723106,108.87385579330437L31.30161663691203,91.77850510157724L32.505524969100954,74.9347295619014L33.70943330128988,55.45711669997951L34.9133416334788,70.34646330963035L36.117249965667725,60.30493217145383L37.321158297856655,73.80260725386722L38.52506663004557,75.26923831798645L39.7289749622345,76.40144757430143L40.93288329442342,85.25537446489226L42.13679162661235,95.77751374183904L43.34069995880127,103.86319157860325L44.5446082909902,90.02872922458647L45.748516623179114,95.4300858664106L46.952424955368045,94.4045123011945L48.15633328755696,89.92253668189842L49.36024161974589,94.35434457480999L50.56414995193481,68.94424581828369L51.76805828412374,61.17880256751474L52.971966616312656,62.38435511411046L54.17587494850159,63.01636438703969L55.37978328069052,51.952142645648294L56.583691612879434,54.77360652427326L57.787599945068365,58.658351830716924L58.99150827725728,52.79567350915018L60.19541660944621,57.90898784614632L61.39932494163513,60.707514501274744L62.60323327382406,58.62881423671425L63.807141606012976,62.47720382344896L65.01104993820191,65.57340713110275L66.21495827039082,59.376286201369496L67.41886660257975,67.63417038542535L68.62277493476867,71.23381812506189L69.8266832669576,69.18414850139932L71.03059159914652,73.26469938778911L72.23449993133545,72.72312268659422L73.43840826352437,64.01175883439599L74.64231659571331,65.93997971931915L75.84622492790223,56.80610497550303L77.05013326009114,51.07565607095981L78.25404159228006,48.58006444543216L79.457949924469,42.60834729760626L80.66185825665792,47.92768271113928L81.86576658884684,45.145978566311896L83.06967492103576,50.81737570650364L84.2735832532247,52.128259707386974L85.47749158541362,53.318549510526566L86.68139991760253,48.260835706346654L87.88530824979145,45.70706855179898L89.0892165819804,41.957507138001546L90.29312491416931,38.74678872080608L91.49703324635823,27.716031387264167L92.70094157854717,36.51514721890351L93.90484991073609,31.933852012401815L95.108758242925,10.092136587797796L96.31266657511392,17.822908228514308L97.51657490730287,10.317058526350706L98.72048323949178,19.223078466532087L99.9243915716807,23.116414030417985L101.12829990386962,31.1179961486566L102.33220823605856,29.34422565858327L103.53611656824748,32.326188846575974L104.7400249004364,27.003909680975283L105.94393323262531,32.03670990453131L107.14784156481426,5.511112432917969L108.35174989700317,16.50069593792287L109.55565822919209,14.108781085361784L110.75956656138104,8.559158262598686L111.96347489356995,13.1945180189758L113.16738322575887,7.087544687246975L114.37129155794779,11.56293153912199L115.57519989013673,21.37522155505556L116.77910822232565,5.4245683248809655L117.98301655451456,14.59910183276017L119.18692488670348,21.060667497469865L120.39083321889242,29.46642059186823L121.59474155108134,30.951488841063366L122.79864988327026,37.414172446366564L124.00255821545917,35.17812554860731L125.20646654764812,39.12391928561408L126.41037487983704,33.80767451840748L127.61428321202595,38.964685269684054L128.8181915442149,38.97964239704706L130.02209987640381,36.25426300147237L131.22600820859273,38.3303941064178L132.42991654078165,46.766322268819096L133.6338248729706,46.95756933137787L134.8377332051595,52.703067489575275L136.04164153734843,55.488149795007786L137.24554986953734,52.21067073980309L138.4494582017263,52.30645963170511L139.6533665339152,52.201884980262705L140.85727486610412,53.37341756932048L142.06118319829304,59.45961620930514L143.26509153048198,64.9666726186506L144.4689998626709,58.336985286853846L145.67290819485982,62.67743519605666L146.87681652704873,62.773330092761995L148.08072485923765,61.38741058268444L149.28463319142662,57.70675959349387L150.48854152361554,64.02714171209358L151.69244985580445,60.91587589751158L152.89635818799337,62.577058360798304L154.1002665201823,68.02130470068434L155.3041748523712,74.27907320974847L156.50808318456012,79.93990901288238L157.71199151674904,82.57805847030826L158.915899848938,86.60468854327665L160.11980818112693,82.75616493015156L161.32371651331584,86.37290870033196L162.52762484550476,90.27036943955588L163.73153317769368,95.64284914945571L164.9354415098826,96.90221040299593L166.1393498420715,97.34285529714202L167.34325817426048,94.77071936451581L168.5471665064494,97.82680970135154L169.75107483863832,98.53189613572003L170.95498317082723,103.72270895702823L172.15889150301615,105.77600928502987L173.36279983520507,107.22660992745163L174.56670816739398,110.37904708667162L175.7706164995829,108.53493388128183L176.97452483177187,113.05542104044099L178.1784331639608,114.5999484444072L179.3823414961497,107.60581950726115L180.58624982833862,105.80480815853244L181.79015816052754,107.78297712593915L182.99406649271646,110.07955423835921L184.19797482490537,110.32772427237944L185.40188315709435,109.0564077538123L186.60579148928326,110.60817970180884L187.80969982147218,113.79111012439381L189.0136081536611,105.1505592611247L190.21751648585,105.63627921439156L191.42142481803893,108.38408140671378L192.62533315022785,105.68149235998314L193.82924148241676,110.57232896615821L195.03314981460574,109.35814626709497L196.23705814679465,110.63971578327423L197.44096647898357,108.36518094907804L198.64487481117249,111.6020014672432L199.8487831433614,114.92825973575738L201.05269147555032,110.88241903060542L202.25659980773924,105.04314103442196L203.4605081399282,102.27542219301927L204.66441647211713,106.64671202284715L205.86832480430604,106.48948556715496L207.07223313649496,110.95487313358521L208.27614146868387,105.38104222368057L209.4800498008728,101.44210490415124L210.6839581330617,99.88664407986653L211.88786646525062,103.80525487898235L213.0917747974396,103.02525075936785L214.29568312962851,105.59309405021479L215.49959146181743,101.73063237688102L216.70349979400635,103.78469403137501L217.90740812619526,100.86174654524437L219.11131645838418,103.61387628041551L220.3152247905731,103.2690432190958L221.51913312276207,105.36876534699998L222.723041454951,109.3544456383966L223.9269497871399,112.77415695932928L225.13085811932882,109.26331117896396L226.33476645151774,112.67123055065447L227.53867478370665,106.95173546903943L228.74258311589557,100.05716337760225L229.9464914480845,102.25581820031177L231.15039978027346,104.60129153915281L232.35430811246238,106.54392843358417L233.5582164446513,85.79848222423007L234.7621247768402,83.09968047837745L235.96603310902913,71.36933990013387L237.16994144121804,73.03661273409928L238.37384977340696,74.18984145413603L239.57775810559593,72.08458656915724L240.78166643778485,73.1347613052443L241.98557476997377,64.12649967181918L243.18948310216268,61.08500715467487L244.3933914343516,56.63030138201161L245.59729976654052,59.743445713485514L246.80120809872943,65.40963875034178L248.00511643091835,59.758128564732445L249.20902476310732,65.43077127836216L250.41293309529624,49.70653554311062L251.61684142748516,45.488857857643495L252.82074975967407,40.85260948145711L254.024658091863,14.888475866889792L255.2285664240519,-9.443941392098537" fill="none"></path></g><g><path style="fill: none;" stroke="rgb(238, 51, 119)" stroke-width="2px" d="M24.07816664377848,13.868709339869383L25.282074975967404,57.931552552274496L26.485983308156328,22.10228772363874L27.68989164034526,61.517857301953896L28.893799972534183,60.397234185063965L30.097708304723106,51.87906956985398L31.30161663691203,39.81763163969501L32.505524969100954,48.22564059648968L33.70943330128988,67.36100616610686L34.9133416334788,76.87046523189777L36.117249965667725,91.3926371297133L37.321158297856655,99.41165273550436L38.52506663004557,101.46649833523347L39.7289749622345,98.21447935708531L40.93288329442342,94.07497999148455L42.13679162661235,91.11312556156109L43.34069995880127,100.30878925543448L44.5446082909902,107.86049476335235L45.748516623179114,111.62650787844797L46.952424955368045,112.53638047156082L48.15633328755696,119.16319622095537L49.36024161974589,122.29203167316211L50.56414995193481,113.25622161677953L51.76805828412374,118.15182183180002L52.971966616312656,118.65846882771584L54.17587494850159,124.56090378120467L55.37978328069052,130.2412474980555L56.583691612879434,135.67669661019883L57.787599945068365,136.73823842440453L58.99150827725728,136.56620106799036L60.19541660944621,132.88077040362808L61.39932494163513,137.00634840193857L62.60323327382406,137.49184384057415L63.807141606012976,137.23160608456612L65.01104993820191,133.80679333633114L66.21495827039082,137.20738167729718L67.41886660257975,141.05072904537036L68.62277493476867,142.55578411811595L69.8266832669576,142.65399221081157L71.03059159914652,138.6622492967116L72.23449993133545,135.33946160221973L73.43840826352437,139.33283765742868L74.64231659571331,141.69431839791753L75.84622492790223,139.81140502988453L77.05013326009114,140.69762034297779L78.25404159228006,138.31644963956947L79.457949924469,140.77603878293078L80.66185825665792,144.52700164073434L81.86576658884684,143.99555643959485L83.06967492103576,139.64424965984182L84.2735832532247,142.56720542271825L85.47749158541362,145.36252412303782L86.68139991760253,141.65840009067858L87.88530824979145,142.33102425165447L89.0892165819804,145.09478101722902L90.29312491416931,145.95787477513105L91.49703324635823,148.8043267028328L92.70094157854717,149.42452820173614L93.90484991073609,152.15873906635812L95.108758242925,154.73833093111392L96.31266657511392,156.4594846243099L97.51657490730287,157.57259129288468L98.72048323949178,158.39069671057794L99.9243915716807,157.78583123919572L101.12829990386962,156.93072367539156L102.33220823605856,158.71322571567873L103.53611656824748,153.939048544818L104.7400249004364,155.08510249548743L105.94393323262531,156.43484684842701L107.14784156481426,156.794561518922L108.35174989700317,159.56313805011342L109.55565822919209,159.54004097766335L110.75956656138104,159.78775075097855L111.96347489356995,161.37433095327407L113.16738322575887,161.57235788387928L114.37129155794779,164.62750034103033L115.57519989013673,166.40811610289586L116.77910822232565,168.32189969462968L117.98301655451456,170.4907549600391L119.18692488670348,170.68003453687408L120.39083321889242,169.65531810886824L121.59474155108134,171.40349114445442L122.79864988327026,170.29221712340296L124.00255821545917,171.87624661497364L125.20646654764812,174.03190365591558L126.41037487983704,167.89126700889426L127.61428321202595,168.67416913479727L128.8181915442149,170.30356151293253L130.02209987640381,168.89652922495304L131.22600820859273,166.70138793337878L132.42991654078165,166.7167027695275L133.6338248729706,163.8738250339858L134.8377332051595,161.21862307924712L136.04164153734843,156.40551277081823L137.24554986953734,158.71246566487463L138.4494582017263,157.12226887933753L139.6533665339152,159.96320712119297L140.85727486610412,157.71822447512375L142.06118319829304,159.53306432059236L143.26509153048198,160.74422074038722L144.4689998626709,162.9540279519351L145.67290819485982,159.50429895409957L146.87681652704873,162.13725794706355L148.08072485923765,161.06865775224335L149.28463319142662,162.55808720613862L150.48854152361554,156.66312556727175L151.69244985580445,159.46846784039792L152.89635818799337,161.7458412078083L154.1002665201823,160.33670766241718L155.3041748523712,159.22269968574392L156.50808318456012,161.6609914544983L157.71199151674904,163.44958655876025L158.915899848938,160.99208322740097L160.11980818112693,161.35167270007247L161.32371651331584,161.65868668929076L162.52762484550476,160.92269230210988L163.73153317769368,162.2368995883506L164.9354415098826,164.18162010179614L166.1393498420715,158.74592388793604L167.34325817426048,156.5977060848176L168.5471665064494,157.02261845640962L169.75107483863832,155.0843131375473L170.95498317082723,153.03179192988563L172.15889150301615,150.46881074343804L173.36279983520507,148.26593936282453L174.56670816739398,145.78605428423523L175.7706164995829,148.8109986649536L176.97452483177187,140.63236720914892L178.1784331639608,136.51894183494446L179.3823414961497,140.12091677733486L180.58624982833862,142.80780383634317L181.79015816052754,143.49997502480286L182.99406649271646,143.63232240453533L184.19797482490537,136.8509203682482L185.40188315709435,136.9254399863857L186.60579148928326,134.2453104394025L187.80969982147218,134.6841842159588L189.0136081536611,134.13091775112647L190.21751648585,133.4917220775994L191.42142481803893,135.1397342264309L192.62533315022785,138.66346263550685L193.82924148241676,140.6626148596613L195.03314981460574,142.15666860335767L196.23705814679465,141.70788871860287L197.44096647898357,144.40348505748287L198.64487481117249,147.0318016377339L199.8487831433614,147.97471435954287L201.05269147555032,149.5576353026142L202.25659980773924,140.62092123927818L203.4605081399282,136.8160044339707L204.66441647211713,139.98314674767195L205.86832480430604,136.76689524896244L207.07223313649496,136.907514255541L208.27614146868387,134.3671348045652L209.4800498008728,135.52477296369875L210.6839581330617,137.00129630894395L211.88786646525062,138.14535670000382L213.0917747974396,137.843240382288L214.29568312962851,138.7813848086115L215.49959146181743,137.97187276558685L216.70349979400635,134.56598915461814L217.90740812619526,138.3881972274565L219.11131645838418,138.07108190842757L220.3152247905731,137.83517290242816L221.51913312276207,137.18078166362022L222.723041454951,137.97558034684283L223.9269497871399,140.7192796885869L225.13085811932882,141.0203789197589L226.33476645151774,139.57210802814046L227.53867478370665,137.41625216708866L228.74258311589557,136.2711195920054L229.9464914480845,135.0963598999263L231.15039978027346,131.25117810150243L232.35430811246238,127.58974242189468L233.5582164446513,125.9617243849705L234.7621247768402,128.31607882945823L235.96603310902913,130.89305423258043L237.16994144121804,129.88209400589147L238.37384977340696,129.2651221738857L239.57775810559593,131.47680782280295L240.78166643778485,131.48059898935693L241.98557476997377,135.4885455348541L243.18948310216268,137.45898730970129L244.3933914343516,139.18103679801152L245.59729976654052,136.61825207964932L246.80120809872943,133.47618355808004L248.00511643091835,135.89794125802086L249.20902476310732,133.55719773679306L250.41293309529624,135.60838827002786L251.61684142748516,135.65284702476282L252.82074975967407,134.41244420933876L254.024658091863,126.7960699941713L255.2285664240519,127.39886821776243L256.4324747562408,129.4793361122745L257.6363830884298,129.1956661895391L258.8402914206187,133.01426303081166L260.04419975280763,133.10237763665265L261.24810808499655,129.54233564873945L262.45201641718546,130.5626353772639" fill="none"></path></g><g><path style="fill: none;" stroke="rgb(51, 187, 238)" stroke-width="2px" d="M24.07816664377848,84.78527650837297L25.282074975967404,78.11459165002051L26.485983308156328,114.22331747077274L27.68989164034526,130.27915054903053L28.893799972534183,38.72627809205187L30.097708304723106,1.6961772429250743L31.30161663691203,-31.70793275247445L32.505524969100954,-20.94085050432875L33.70943330128988,0.3370613613720934L34.9133416334788,7.7727443557851075L36.117249965667725,23.340997961325257L37.321158297856655,40.72869086145468L38.52506663004557,50.539100469483586L39.7289749622345,29.66588189452648L40.93288329442342,35.49253975121928L42.13679162661235,44.87215005777364L43.34069995880127,53.83571192153008L44.5446082909902,52.88976601154624L45.748516623179114,60.5357163438387L46.952424955368045,67.13755192645795L48.15633328755696,72.06196559948327L49.36024161974589,73.94763824186533L50.56414995193481,68.274523811128L51.76805828412374,73.70255271641281L52.971966616312656,78.25605680984977L54.17587494850159,87.31734266016183L55.37978328069052,91.43836684553503L56.583691612879434,90.46626997564441L57.787599945068365,97.36597598334126L58.99150827725728,103.49166501274325L60.19541660944621,108.66726269021171L61.39932494163513,108.80015785875636L62.60323327382406,110.44575166052809L63.807141606012976,110.0751750919589L65.01104993820191,113.88155643768644L66.21495827039082,117.61856512232231L67.41886660257975,122.84780530510784L68.62277493476867,123.77030851845464L69.8266832669576,129.31126530111112L71.03059159914652,123.72061579515312L72.23449993133545,126.04099794360516L73.43840826352437,130.56665919249878L74.64231659571331,132.47123313337693L75.84622492790223,135.88974664213566L77.05013326009114,138.70985968876224L78.25404159228006,139.66335520023156L79.457949924469,139.40265101927537L80.66185825665792,140.97919318892775L81.86576658884684,142.5415294296452L83.06967492103576,143.53947014239753L84.2735832532247,145.6476351967575L85.47749158541362,148.00192853070442L86.68139991760253,149.66640685151745L87.88530824979145,151.10763816461608L89.0892165819804,149.96802489299L90.29312491416931,149.5585387186443L91.49703324635823,149.86169864086847L92.70094157854717,150.13777656625305L93.90484991073609,149.0387059357333L95.108758242925,149.60865255390442L96.31266657511392,153.39669978073414L97.51657490730287,152.11887657393197L98.72048323949178,153.38520730438478L99.9243915716807,156.43266268119527L101.12829990386962,154.77921246281258L102.33220823605856,157.35253624476525L103.53611656824748,158.27524626877766L104.7400249004364,159.82222867083954L105.94393323262531,162.09849912138162L107.14784156481426,163.8325123212738L108.35174989700317,162.43662617701912L109.55565822919209,163.70493336749908L110.75956656138104,164.72464764563773L111.96347489356995,166.08984945655698L113.16738322575887,164.03956008672128L114.37129155794779,162.77346997028522L115.57519989013673,164.96843878408012L116.77910822232565,161.04809243964795L117.98301655451456,160.99527860922322L119.18692488670348,159.8944137285726L120.39083321889242,161.22548979383402L121.59474155108134,163.22438935700305L122.79864988327026,164.64960019941L124.00255821545917,164.9474278526131L125.20646654764812,165.89225300953166L126.41037487983704,165.16855710414498L127.61428321202595,167.59288783056564L128.8181915442149,162.06871568804237L130.02209987640381,162.58830895070543L131.22600820859273,163.32110183905027L132.42991654078165,162.45915488237185L133.6338248729706,163.9897357367877L134.8377332051595,151.0308169376015L136.04164153734843,146.15382326416426L137.24554986953734,141.41415797477435L138.4494582017263,138.61050492576834L139.6533665339152,141.5000564703725L140.85727486610412,141.22316758417878L142.06118319829304,143.87481437541032L143.26509153048198,143.50573864308745L144.4689998626709,145.2875124718858L145.67290819485982,143.26261797277408L146.87681652704873,142.71907777878417L148.08072485923765,142.118540886404L149.28463319142662,136.52033116408393L150.48854152361554,139.525488028853L151.69244985580445,138.2713328102261L152.89635818799337,141.30115940803006L154.1002665201823,143.65564545047621L155.3041748523712,145.4462473436164L156.50808318456012,147.6512867938469L157.71199151674904,150.3875292006274L158.915899848938,153.28205592510724L160.11980818112693,151.10952853905772L161.32371651331584,143.74601191105586L162.52762484550476,140.78817447540624L163.73153317769368,141.44993649269975L164.9354415098826,140.31502712289733L166.1393498420715,140.42882604446032L167.34325817426048,142.2023401365633L168.5471665064494,143.5493913504509L169.75107483863832,141.68232051837043L170.95498317082723,136.1700474804423L172.15889150301615,133.2701207769565L173.36279983520507,136.42503921634972L174.56670816739398,138.62618747902354L175.7706164995829,142.19356762268583L176.97452483177187,138.3611424517311L178.1784331639608,139.26641883774522L179.3823414961497,136.61427623029914L180.58624982833862,139.66259503774862L181.79015816052754,139.74303985712595L182.99406649271646,142.65985406962992L184.19797482490537,136.79766151527616L185.40188315709435,137.73068457690158L186.60579148928326,138.57412643083262L187.80969982147218,138.38450461614565L189.0136081536611,140.51092444966852L190.21751648585,141.7344079843744L191.42142481803893,145.0108351835935L192.62533315022785,148.37448030753757L193.82924148241676,147.97898166305222L195.03314981460574,148.1851002686279L196.23705814679465,148.50488494256126L197.44096647898357,150.4588450927042L198.64487481117249,150.35410145573854L199.8487831433614,151.6132697221649L201.05269147555032,153.978360468128L202.25659980773924,156.0574451994722L203.4605081399282,157.96363773459535L204.66441647211713,156.3433370968003L205.86832480430604,157.921603026181L207.07223313649496,159.85795194067583L208.27614146868387,161.35611302243183L209.4800498008728,162.96835240165873L210.6839581330617,165.19423087923994L211.88786646525062,166.4837113686154L213.0917747974396,163.31619463782184L214.29568312962851,164.61688988924874L215.49959146181743,166.0297485111679L216.70349979400635,165.21787216540133L217.90740812619526,163.8521496983804L219.11131645838418,166.07600226562235L220.3152247905731,166.98299464993605L221.51913312276207,168.5824987458566L222.723041454951,169.16752901555373L223.9269497871399,170.0502692016858L225.13085811932882,170.68660938400677L226.33476645151774,173.03211779720274L227.53867478370665,172.9419958561676L228.74258311589557,171.68763169398585L229.9464914480845,172.29654568611963L231.15039978027346,169.2239662414593L232.35430811246238,166.9779836049536L233.5582164446513,161.53650448985022L234.7621247768402,156.07700817549338L235.96603310902913,150.00475035199946L237.16994144121804,152.6524503419066L238.37384977340696,152.00403262217827L239.57775810559593,153.4197187195349L240.78166643778485,156.07413699101926L241.98557476997377,154.66521170663933L243.18948310216268,155.91108583160803L244.3933914343516,157.45451017612058L245.59729976654052,157.42315663948398L246.80120809872943,159.89572744367723L248.00511643091835,162.18316522616277L249.20902476310732,163.92621432695495L250.41293309529624,164.29331994318008L251.61684142748516,164.7072656204208L252.82074975967407,166.72706886996497L254.024658091863,164.73391801929014L255.2285664240519,165.23329349521183L256.4324747562408,166.58133424370536L257.6363830884298,169.0512823913331L258.8402914206187,167.28018964755287L260.04419975280763,169.71619231348146L261.24810808499655,168.9099184757357L262.45201641718546,158.5581383523244" fill="none"></path></g><g><path style="fill: none;" stroke="rgb(204, 51, 17)" stroke-width="2px" d="M28.893799972534183,-4.139392621757423L30.097708304723106,27.281049283069137L31.30161663691203,23.771932133182418L32.505524969100954,19.663915631279878L33.70943330128988,20.747487840033813L34.9133416334788,15.880710412286959L36.117249965667725,31.997996361298334L37.321158297856655,48.129118953551256L38.52506663004557,57.19831323311263L39.7289749622345,61.575218295994944L40.93288329442342,58.414533010728604L42.13679162661235,70.02167037554032L43.34069995880127,67.76591191498323L44.5446082909902,66.25300114789627L45.748516623179114,76.16643035972308L46.952424955368045,72.97221517399512L48.15633328755696,74.09392977712277L49.36024161974589,82.45675233413367L50.56414995193481,87.92355522828208L51.76805828412374,95.49168574110499L52.971966616312656,98.68553565393641L54.17587494850159,101.05549202123949L55.37978328069052,105.0291896871501L56.583691612879434,108.82341669554L57.787599945068365,109.71949602476194L58.99150827725728,112.25895584467172L60.19541660944621,111.47771190111224L61.39932494163513,110.98603403794274L62.60323327382406,114.71746714296812L63.807141606012976,113.53299944437225L65.01104993820191,117.99851772876224L66.21495827039082,122.66116355998355L67.41886660257975,126.34813926707429L68.62277493476867,126.98494795288278L69.8266832669576,128.9326471807561L71.03059159914652,125.22401717590557L72.23449993133545,129.1238855079761L73.43840826352437,131.59438002760666L74.64231659571331,135.27211915127307L75.84622492790223,137.7647143338248L77.05013326009114,138.3345383970626L78.25404159228006,139.29824802573168L79.457949924469,140.5612477376839L80.66185825665792,141.23302642526772L81.86576658884684,143.6060440397455L83.06967492103576,143.3811673644732L84.2735832532247,147.2007867218051L85.47749158541362,150.27928372336729L86.68139991760253,152.0165545400572L87.88530824979145,151.11808209490886L89.0892165819804,153.6488399580483L90.29312491416931,154.83474905725595L91.49703324635823,156.18943463542354L92.70094157854717,157.56992527155094L93.90484991073609,159.40917517263622" fill="none"></path></g><g><path style="fill: none;" stroke="rgb(0, 119, 187)" stroke-width="2px" d="M24.07816664377848,50.47319569223899L25.282074975967404,-86.83515830346994L26.485983308156328,-20.507223289074005L27.68989164034526,40.027504663146345L28.893799972534183,67.38072955336328L30.097708304723106,52.4692866526305L31.30161663691203,30.368047215949474L32.505524969100954,25.912400872168803L33.70943330128988,44.25230626946643L34.9133416334788,64.34103500024626L36.117249965667725,65.70134728139121L37.321158297856655,63.7218059969084L38.52506663004557,76.02610865382375L39.7289749622345,60.95008487102615L40.93288329442342,69.20006642869458L42.13679162661235,83.20450229697454L43.34069995880127,88.18794831790903L44.5446082909902,97.3321223182685L45.748516623179114,96.2949820668235L46.952424955368045,89.5800280253732L48.15633328755696,88.22442480982201L49.36024161974589,90.39772459770134L50.56414995193481,91.51357320848865L51.76805828412374,95.73625535642877L52.971966616312656,99.49485518723517L54.17587494850159,104.93233024514255L55.37978328069052,111.56800259564514L56.583691612879434,114.18015850623426L57.787599945068365,116.79462865696433L58.99150827725728,121.97976603677861L60.19541660944621,121.78372877294278L61.39932494163513,123.98230580154029L62.60323327382406,124.38060033287475L63.807141606012976,118.52469547611597L65.01104993820191,121.12334730456746L66.21495827039082,125.87939377122595L67.41886660257975,126.98379494274207L68.62277493476867,127.01809624438488L69.8266832669576,132.52591892400653L71.03059159914652,129.45877632901363L72.23449993133545,127.88492028729974L73.43840826352437,132.1071313944597L74.64231659571331,130.62258193183783L75.84622492790223,130.28215300829063L77.05013326009114,132.12687399801004L78.25404159228006,136.88938566327673L79.457949924469,136.00786872407997L80.66185825665792,140.7830765736496L81.86576658884684,141.93844544304994L83.06967492103576,143.87786334071805L84.2735832532247,141.97000424717754L85.47749158541362,136.86194585958492L86.68139991760253,132.20824031843713L87.88530824979145,133.425717891647L89.0892165819804,133.1730146150914L90.29312491416931,135.99159344682423L91.49703324635823,139.1418744201902L92.70094157854717,142.34574078076542L93.90484991073609,143.84611223505073" fill="none"></path></g><g><path style="fill: none;" stroke="rgb(255, 112, 67)" stroke-width="2px" d="M24.07816664377848,50.327421309448255L25.282074975967404,26.933649387566646L26.485983308156328,77.02417775778555L27.68989164034526,104.1219516683401L28.893799972534183,122.70974579793037L30.097708304723106,121.70167848742585L31.30161663691203,92.67926950863375L32.505524969100954,76.82166547797607L33.70943330128988,83.19947472500367L34.9133416334788,87.33111713396745L36.117249965667725,93.13893443088648L37.321158297856655,103.90905285043354L38.52506663004557,105.57107534790809L39.7289749622345,89.60678935489008L40.93288329442342,81.44158333189384L42.13679162661235,81.535724987306L43.34069995880127,88.51419227550042L44.5446082909902,79.37086966822807L45.748516623179114,87.12783795692708L46.952424955368045,80.26297273080289L48.15633328755696,80.96848243273023L49.36024161974589,87.49600915558683L50.56414995193481,93.43502176160719L51.76805828412374,101.05670570045204L52.971966616312656,104.24353149803967L54.17587494850159,105.91125064131714L55.37978328069052,108.96351574060017L56.583691612879434,110.53501092523265L57.787599945068365,113.48279346782333L58.99150827725728,116.99665676717908L60.19541660944621,122.7452363217374L61.39932494163513,126.86345254747616L62.60323327382406,125.95285352188603L63.807141606012976,129.64869302794702L65.01104993820191,134.3824008982825L66.21495827039082,134.9272449322093L67.41886660257975,137.28488431533904L68.62277493476867,140.9378087472431L69.8266832669576,138.4475047182932L71.03059159914652,140.1893161588383L72.23449993133545,144.0496031393776L73.43840826352437,147.64523922990435L74.64231659571331,151.0308514279463L75.84622492790223,153.0322384000301L77.05013326009114,154.66370123648232L78.25404159228006,156.12745636536536L79.457949924469,157.66179234577453L80.66185825665792,159.78294191553533L81.86576658884684,161.30388133977786L83.06967492103576,164.2013133626131L84.2735832532247,165.92207690922663L85.47749158541362,161.8097283140653L86.68139991760253,162.32894212610105L87.88530824979145,165.1051295341802L89.0892165819804,165.5600297165285L90.29312491416931,167.5963210794499L91.49703324635823,164.28161536768505L92.70094157854717,166.11913879077073L93.90484991073609,164.75587240982526" fill="none"></path></g></g></g></g><g opacity="0.2"><g><g><g><path style="fill: none;" stroke="rgb(0, 153, 136)" stroke-width="2px" d="M24.07816664377848,41.60513955525778L25.282074975967404,29.131117250409147L26.485983308156328,8.165872760487105L27.68989164034526,137.70668744368308L28.893799972534183,180.34327146687116L30.097708304723106,215.54781278673445L31.30161663691203,6.93899563060404L32.505524969100954,-20.0765788756232L33.70943330128988,-66.90392024712492L34.9133416334788,172.91771028702664L36.117249965667725,-14.63402183590992L37.321158297856655,181.86370442714465L38.52506663004557,87.76432724369286L39.7289749622345,86.5975897314186L40.93288329442342,169.0598243359166L42.13679162661235,199.94781943825924L44.5446082909902,-58.00942871599338L45.748516623179114,155.21685725970798L46.952424955368045,82.69540972841371L48.15633328755696,37.27455669192048L49.36024161974589,147.7943458540176L50.56414995193481,-244.95019343486427L51.76805828412374,-36.91480388616452L52.971966616312656,77.9310838863634L54.17587494850159,71.3244774752311L55.37978328069052,-96.10590556967713L56.583691612879434,93.1598599001045L57.787599945068365,112.33158404408096L58.99150827725728,-29.377522125843313L60.19541660944621,130.54587800197078L61.39932494163513,100.96249612072279L62.60323327382406,28.37625595670707L63.807141606012976,119.1012509096919L65.01104993820191,111.5989631982619L66.21495827039082,-33.63283704523408L67.41886660257975,192.69144538369906L68.62277493476867,126.20839396984593L69.8266832669576,37.63253749451178L71.03059159914652,136.54694753574273L72.23449993133545,64.26541958938886L73.43840826352437,-72.92658531606347L74.64231659571331,96.43798137362319L75.84622492790223,-88.50063674916078L77.05013326009114,-40.5856952856297L78.25404159228006,8.456601823924387L79.457949924469,-53.86795595909956L80.66185825665792,134.25591620604297L81.86576658884684,-0.1923648061336678L83.06967492103576,143.6277034195196L84.2735832532247,73.66207511938721L85.47749158541362,72.94153282575176L86.68139991760253,-35.40209179682279L87.88530824979145,3.3288345164692146L89.0892165819804,-20.451327408840626L95.108758242925,-358.07593625779555L96.31266657511392,148.41074981201018L97.51657490730287,-116.72536835362445L98.72048323949178,170.24954967155827L99.9243915716807,89.25669143274926L101.12829990386962,167.27867184879375L102.33220823605856,-0.8875927688454226L103.53611656824748,83.22666109895623L104.7400249004364,-63.97353329939506L105.94393323262531,118.18134017836721L107.14784156481426,-449.09363720291833L110.75956656138104,-86.87584244604346L111.96347489356995,92.98780683092627L113.16738322575887,-98.13857401619208L114.37129155794779,88.74563125472923L115.57519989013673,190.7427421619694L116.77910822232565,-270.1177494570002L117.98301655451456,173.20697473560332L119.18692488670348,132.84767394953477L120.39083321889242,174.98750039167473L121.59474155108134,56.67766587498305L122.79864988327026,149.43687224322483L124.00255821545917,-3.6033141903421324L125.20646654764812,107.59602010373732L126.41037487983704,-58.49358337657446L127.61428321202595,128.54485849633213L128.8181915442149,39.23957560265262L130.02209987640381,-11.129481753943509L131.22600820859273,74.44108146301316L132.42991654078165,193.55167155264942L133.6338248729706,50.28649647445491L134.8377332051595,152.74641362319718L136.04164153734843,103.99927558499206L137.24554986953734,-4.894875462956918L138.4494582017263,53.97593966215416L139.6533665339152,50.37877323789351L140.85727486610412,73.8028107448798L142.06118319829304,165.61823255684718L143.26509153048198,161.0461931670491L144.4689998626709,-57.35439026723387L145.67290819485982,138.4364091958892L146.87681652704873,64.4474296287304L148.08072485923765,37.18795757127475L149.28463319142662,-6.572299465509019L150.48854152361554,174.42517869353418L151.69244985580445,6.562776455304373L152.89635818799337,91.60190748506908L154.1002665201823,163.1589272259428L155.3041748523712,183.64765053150157L156.50808318456012,178.8883604331386L157.71199151674904,128.69709406073005L158.915899848938,157.00459750009264L160.11980818112693,15.462933574785524L161.32371651331584,149.6198165019219L162.52762484550476,158.4328260235873L163.73153317769368,189.61040501725398L164.9354415098826,118.93101806145154L166.1393498420715,105.05126685152209L167.34325817426048,49.77163914679633L168.5471665064494,151.2964991562112L169.75107483863832,110.86901843885477L170.95498317082723,194.55395933585507L172.15889150301615,141.70783442615644L173.36279983520507,132.6129498296554L174.56670816739398,165.55155340374975L175.7706164995829,76.25842138891365L176.97452483177187,192.17897483581328L178.1784331639608,141.63558009303415L179.3823414961497,-14.825856246538535L180.58624982833862,74.2769240541945L181.79015816052754,142.41349550954172L182.99406649271646,150.28574614020025L184.19797482490537,114.67259309569012L185.40188315709435,86.7979225245716L186.60579148928326,137.7778026319138L187.80969982147218,169.52199169192394L189.0136081536611,-46.143733892128296L190.21751648585,114.1413658340342L191.42142481803893,156.50005877589632L192.62533315022785,58.35609039632878L193.82924148241676,196.2183796077005L195.03314981460574,88.09548690994832L196.23705814679465,133.08290435603263L197.44096647898357,68.5321500665819L198.64487481117249,168.28819531158842L199.8487831433614,173.18177492189093L201.05269147555032,40.02553736006095L202.25659980773924,2.7752944802705315L203.4605081399282,53.80148775875985L204.66441647211713,183.20670803652942L205.86832480430604,103.73574134563283L207.07223313649496,189.16491196993724L208.27614146868387,7.755780599522836L209.4800498008728,32.451127914384955L210.6839581330617,72.6422692164602L211.88786646525062,172.44160799456793L213.0917747974396,89.36297545929898L214.29568312962851,150.57092413249924L215.49959146181743,34.07595838083216L216.70349979400635,139.76381435564767L217.90740812619526,49.66276341493774L219.11131645838418,151.82112058294038L220.3152247905731,97.22878901723692L221.51913312276207,142.14869555363632L222.723041454951,179.17031386185565L223.9269497871399,172.67647074054523L225.13085811932882,47.76428503120508L226.33476645151774,172.36761179438923L227.53867478370665,6.76309719401408L228.74258311589557,-20.715898330323398L229.9464914480845,140.7700891459738L231.15039978027346,145.6875787445559L232.35430811246238,140.57375240077377L233.5582164446513,-277.60780190848374L234.7621247768402,35.823527188929546L235.96603310902913,-134.1171092914779L237.16994144121804,102.24318428548368L238.37384977340696,94.39166729729601L239.57775810559593,35.20542355443206L240.78166643778485,91.53142515511145L241.98557476997377,-93.67806836299968L243.18948310216268,7.804745748195273L244.3933914343516,-21.40652149569567L245.59729976654052,114.27912401203243L246.80120809872943,164.66950567882097L248.00511643091835,-39.244710795497156L249.20902476310732,164.8039850482424L250.41293309529624,-225.7506958535315L256.4324747562408,-135.30355581854275L257.6363830884298,83.93410021272783L258.8402914206187,89.91370681020948L260.04419975280763,14.831015548269647L261.24810808499655,-90.64717146705931" fill="none"></path></g><g><path style="fill: none;" stroke="rgb(238, 51, 119)" stroke-width="2px" d="M24.07816664377848,13.868709339869383L25.282074975967404,99.61500223120987L26.485983308156328,-43.85637916763412L27.68989164034526,167.4474581638385L28.893799972534183,56.48807359080767L30.097708304723106,15.710869364518402L31.30161663691203,-20.039957476886883L32.505524969100954,95.65300808056521L33.70943330128988,187.57199865572966L34.9133416334788,142.38019510993374L36.117249965667725,199.77017009378037L37.321158297856655,163.6111255573435L38.52506663004557,118.97293136079523L39.7289749622345,68.92833139998142L40.93288329442342,54.8936685392421L42.13679162661235,61.790449509420014L43.34069995880127,195.12988748686712L44.5446082909902,188.66888066909775L45.748516623179114,153.31191769436813L46.952424955368045,122.92451047243127L48.15633328755696,197.00575776219623L49.36024161974589,160.02042031469006L50.56414995193481,1.6356191931980675L51.76805828412374,179.99337618212135L52.971966616312656,125.19215618213482L54.17587494850159,202.15169111569998L56.583691612879434,209.62643894461254L57.787599945068365,151.40493490088946L58.99150827725728,134.15486983510579L60.19541660944621,80.52759891809599L61.39932494163513,196.35009850960694L62.60323327382406,144.55754701212103L63.807141606012976,133.40254600171778L65.01104993820191,82.89640551594805L66.21495827039082,188.2449108302878L67.41886660257975,199.25432430177145L68.62277493476867,165.54130109972564L69.8266832669576,144.16575952330328L71.03059159914652,76.75725836143049L72.23449993133545,83.4481012223223L73.43840826352437,202.1067400966454L74.64231659571331,179.0450410735023L75.84622492790223,109.85697559741102L77.05013326009114,154.87307056409892L78.25404159228006,100.03261636479147L79.457949924469,180.51202463219684L80.66185825665792,205.40189901895903L81.86576658884684,135.33365576345543L83.06967492103576,68.43671503899948L84.2735832532247,190.5824301205625L85.47749158541362,191.44583263532164L86.68139991760253,80.38607975378909L87.88530824979145,153.49281872492637L89.0892165819804,191.09558475810536L90.29312491416931,160.36421303752078L91.49703324635823,196.44302621298357L92.70094157854717,159.8305266694323L93.90484991073609,198.14373939998546L96.31266657511392,185.53313422536004L97.51657490730287,176.4127996854482L98.72048323949178,172.26396166369992L99.9243915716807,147.51033111549674L101.12829990386962,142.37959841499054L102.33220823605856,189.09386308114466L103.53611656824748,72.44646889398688L104.7400249004364,174.6754048274935L105.94393323262531,179.53793520547373L107.14784156481426,162.95947440715048L108.35174989700317,207.0687859312641L109.55565822919209,159.1432727209615L110.75956656138104,164.04753256802516L111.96347489356995,188.68579305304345L113.16738322575887,164.9844581460636L114.37129155794779,217.31660871607514L117.98301655451456,207.98557908219112L119.18692488670348,173.95462747221376L120.39083321889242,151.91534413897145L121.59474155108134,201.68749258599706L122.79864988327026,151.02964391772366L124.00255821545917,199.34925906995704L125.20646654764812,211.43942570967738L126.41037487983704,61.27682173497773L127.61428321202595,182.27361878507028L128.8181915442149,198.62004059075855L130.02209987640381,144.43371171613086L131.22600820859273,128.5207255008515L132.42991654078165,166.98318128025417L133.6338248729706,114.38949449485985L134.8377332051595,114.98498399373213L136.04164153734843,72.56978584891529L137.24554986953734,198.90793384641023L138.4494582017263,129.4071369342538L139.6533665339152,209.4909635768137L140.85727486610412,118.56981872249993L142.06118319829304,191.1884371212114L144.4689998626709,201.51627428701718L145.67290819485982,99.29212396749945L146.87681652704873,208.10253430466952L148.08072485923765,142.40989725821757L149.28463319142662,188.5695520563304L150.48854152361554,53.69590288992133L151.69244985580445,208.47715325262152L152.89635818799337,201.53702601115296L154.1002665201823,135.7122496640846L155.3041748523712,139.7529050844639L156.50808318456012,204.2810572927327L157.71199151674904,194.71706499449607L158.915899848938,118.02612716647491L160.11980818112693,167.63926243835886L161.32371651331584,167.02751752270055L162.52762484550476,148.0509307068161L163.73153317769368,185.22309093015014L164.9354415098826,198.1987649200255L166.1393498420715,63.65669431177646L167.34325817426048,119.01500136790179L168.5471665064494,164.45693159849984L169.75107483863832,121.1691665484073L170.95498317082723,117.11582382645793L172.15889150301615,105.61780157759495L173.36279983520507,109.71443180542389L174.56670816739398,102.38424538094529L175.7706164995829,201.7549582915196L176.97452483177187,-2.520873400043854L178.1784331639608,64.51694760322425L179.3823414961497,203.17320422915893L180.58624982833862,189.84352288256403L181.79015816052754,155.61736613825113L182.99406649271646,145.94932892630717L184.19797482490537,18.12465109031163L185.40188315709435,138.23014561663408L186.60579148928326,87.3195303404765L187.80969982147218,142.36855654493047L189.0136081536611,124.44333416452459L190.21751648585,122.29923444417207L191.42142481803893,163.99760306388893L192.62533315022785,200.36794692326825L193.82924148241676,175.67083664607395L195.03314981460574,168.32040478407802L196.23705814679465,133.84873519313493L197.44096647898357,191.6103998952124L198.64487481117249,193.0613118673812L199.8487831433614,164.48815863386076L201.05269147555032,177.28014098955464L202.25659980773924,-15.894747842570979L203.4605081399282,70.17654489450017L204.66441647211713,195.45336545913153L205.86832480430604,80.43582844127585L207.07223313649496,139.37041759864977L208.27614146868387,89.87256499523677L209.4800498008728,155.80094928244296L210.6839581330617,162.86305694243933L211.88786646525062,158.18412477670506L213.0917747974396,132.5514781960623L214.29568312962851,155.21373515889405L215.49959146181743,123.79250271647574L216.70349979400635,74.90823935854549L217.90740812619526,205.33882414440743L219.11131645838418,132.51638168440306L220.3152247905731,133.70288245646276L221.51913312276207,125.71809154318336L222.723041454951,151.89781095119594L223.9269497871399,188.78004373157196L225.13085811932882,146.29469475398815L226.33476645151774,114.20280733151907L227.53867478370665,99.65203348101828L228.74258311589557,116.211692361409L229.9464914480845,114.5178622615297L231.15039978027346,63.89409451806776L232.35430811246238,63.451141944675854L233.5582164446513,97.44308085572784L234.7621247768402,169.55839008345927L235.96603310902913,176.03526657582916L237.16994144121804,112.17252566477691L238.37384977340696,118.45724227654915L239.57775810559593,170.2203899732228L240.78166643778485,131.54701157223073L241.98557476997377,205.69879242333732L243.18948310216268,171.9767946882569L244.3933914343516,169.34762416963272L245.59729976654052,91.72370558014205L246.80120809872943,78.43370595407552L248.00511643091835,178.3221572042564L249.20902476310732,92.55211103239917L250.41293309529624,171.54115313472462L251.61684142748516,136.43167692171508L252.82074975967407,112.68299517507539L254.024658091863,-6.628207973520546L255.2285664240519,137.95875188024522L256.4324747562408,165.92524114595705L257.6363830884298,124.22629391296192L258.8402914206187,199.90909152555676L260.04419975280763,134.64598593669092L261.24810808499655,67.17678462559603L262.45201641718546,148.436473994006" fill="none"></path></g><g><path style="fill: none;" stroke="rgb(51, 187, 238)" stroke-width="2px" d="M24.07816664377848,84.78527650837297L25.282074975967404,71.80412377401912L26.485983308156328,180.6964485738086L27.68989164034526,173.42930688777338L28.893799972534183,-280.64503944159827L31.30161663691203,-197.48331562868304L32.505524969100954,39.79342905437704L33.70943330128988,134.00782370854722L34.9133416334788,58.99643447870923L36.117249965667725,139.5253352766813L37.321158297856655,179.93289904010024L38.52506663004557,134.11972510567335L39.7289749622345,-158.30847238653536L40.93288329442342,90.6431935007713L42.13679162661235,137.73129658967395L43.34069995880127,146.26349182751386L44.5446082909902,42.76750130461525L45.748516623179114,145.1675440335013L46.952424955368045,142.51154032409795L48.15633328755696,129.90708894277566L49.36024161974589,96.68561580227366L50.56414995193481,-1.8062377836239136L51.76805828412374,142.26978243655478L52.971966616312656,136.9777552575129L54.17587494850159,206.43298034678497L55.37978328069052,146.58465836027608L56.583691612879434,77.24081029984674L57.787599945068365,192.69514007056958L60.19541660944621,182.18891522563302L61.39932494163513,110.7117682260453L62.60323327382406,134.3950546177987L63.807141606012976,104.62262290232371L65.01104993820191,170.46402232669865L66.21495827039082,173.70523912206357L67.41886660257975,202.039340690561L68.62277493476867,137.85897122585422L69.8266832669576,214.60604207589333L71.03059159914652,37.019364127322774L72.23449993133545,162.27797645535404L73.43840826352437,201.70782240461747L74.64231659571331,162.59521926682308L75.84622492790223,190.27335419442716L77.05013326009114,183.81895622519536L78.25404159228006,154.99340404431132L79.457949924469,135.19083471927246L80.66185825665792,166.56511510504893L81.86576658884684,168.00568135125806L83.06967492103576,159.87040276785876L84.2735832532247,180.27834020805182L86.68139991760253,177.19962333555227L87.88530824979145,175.02400727319971L89.0892165819804,130.99995682652582L90.29312491416931,142.7235960633573L91.49703324635823,154.935434226496L92.70094157854717,154.76992672002805L93.90484991073609,130.55411721396428L95.108758242925,159.21578019739303L96.31266657511392,217.38422058172267L97.51657490730287,130.49071084222203L98.72048323949178,174.8593857683141L99.9243915716807,208.20306384135034L101.12829990386962,126.64291446015159L102.33220823605856,201.21179411738882L103.53611656824748,174.0253991088105L104.7400249004364,186.2658816428337L107.14784156481426,193.55062281608258L108.35174989700317,138.4847957312834L109.55565822919209,185.4922847306373L111.96347489356995,189.59049409053816L113.16738322575887,128.71207773374823L114.37129155794779,140.93842944661654L115.57519989013673,202.8552547259516L116.77910822232565,93.32539151545903L117.98301655451456,160.08224152713876L119.18692488670348,140.84912410345063L120.39083321889242,184.26918666872785L122.79864988327026,189.3538834502828L124.00255821545917,170.1128763934568L125.20646654764812,182.28798165425866L126.41037487983704,152.60366490567398L127.61428321202595,209.70487419353535L128.8181915442149,66.06660656127133L130.02209987640381,171.62201434036095L131.22600820859273,176.06675880894258L132.42991654078165,147.46125747683462L133.6338248729706,190.63167252143077L134.8377332051595,-74.61603965302598L136.04164153734843,61.20536299511306L137.24554986953734,58.83203598102462L138.4494582017263,89.7463549739171L139.6533665339152,191.87531738193996L140.85727486610412,136.39473005300974L142.06118319829304,190.12620560510055L143.26509153048198,137.0666145862768L144.4689998626709,176.38036117853594L145.67290819485982,107.91975423292179L146.87681652704873,133.23014335368393L148.08072485923765,131.63260414686113L149.28463319142662,38.75293772675232L150.48854152361554,192.01652614433195L151.69244985580445,116.36152909159085L152.89635818799337,194.2395101416201L154.1002665201823,184.80003722903075L155.3041748523712,176.74104217642576L156.50808318456012,186.19422400465464L158.915899848938,203.88874543563153L160.11980818112693,113.12187334663291L161.32371651331584,14.9783449542457L162.52762484550476,89.05873336492577L163.73153317769368,153.02450963005919L164.9354415098826,120.46313780450146L166.1393498420715,142.41956492174177L167.34325817426048,173.22966722510995L168.5471665064494,167.11754613246427L169.75107483863832,109.01358647213574L170.95498317082723,39.71373712974048L172.15889150301615,82.52271777374075L173.36279983520507,191.63791416203782L175.7706164995829,204.63148598659842L176.97452483177187,71.2809609349289L178.1784331639608,155.11250797130742L179.3823414961497,90.18872893403073L180.58624982833862,193.0254137352427L181.79015816052754,141.15133502412831L182.99406649271646,193.72454131036102L184.19797482490537,34.1645705935085L185.40188315709435,154.06625461978678L186.60579148928326,153.3417584687499L187.80969982147218,135.06435950020023L189.0136081536611,177.74410445761325L190.21751648585,163.1579327343708L191.42142481803893,202.38341367919838L192.62533315022785,207.27572455934387L193.82924148241676,141.05319377402571L195.03314981460574,151.7946309437952L196.23705814679465,154.1050397910949L197.44096647898357,184.67777805150166L198.64487481117249,148.51973403385844L199.8487831433614,173.66536905085871L201.05269147555032,195.3994067573233L203.4605081399282,191.34876724428327L204.66441647211713,127.96493731097793L205.86832480430604,185.5641563351849L211.88786646525062,189.06958241873366L213.0917747974396,107.83509587764689L214.29568312962851,187.39960806213912L215.49959146181743,190.77730526451276L216.70349979400635,150.99697637638877L217.90740812619526,139.92985828484234L219.11131645838418,205.02976328632622L226.33476645151774,214.11829067079347L227.53867478370665,171.36332598720713L228.74258311589557,149.71478140621574L229.9464914480845,182.96301239722627L231.15039978027346,115.40076585193259L232.35430811246238,127.63435023077909L233.5582164446513,66.21593700483469L234.7621247768402,60.4404965134745L235.96603310902913,43.633866198814644L237.16994144121804,199.03372497582535L238.37384977340696,140.6452955217415L239.57775810559593,178.2192423946082L240.78166643778485,202.57348512749482L241.98557476997377,129.98399629101056L243.18948310216268,177.73606113032332L244.3933914343516,184.49197086252155L245.59729976654052,156.87390925308813L246.80120809872943,203.21000343093388L249.20902476310732,194.4609050608238L250.41293309529624,170.7242777574811L251.61684142748516,171.9587793227495L252.82074975967407,202.11010027271445L254.024658091863,129.81773538183654L255.2285664240519,173.98140641799804L256.4324747562408,190.19648602313296L257.6363830884298,212.32020470444917L258.8402914206187,136.25388593752749L260.04419975280763,212.39054690150346L261.24810808499655,154.78544681577296L262.45201641718546,-22.7866588176569" fill="none"></path></g><g><path style="fill: none;" stroke="rgb(204, 51, 17)" stroke-width="2px" d="M25.282074975967404,-421.1761733580955L26.485983308156328,124.56522869514396L27.68989164034526,161.9805812847735L28.893799972534183,79.41054982109199L30.097708304723106,160.69251580071483L31.30161663691203,6.3571517615439745L32.505524969100954,-3.50832517716168L33.70943330128988,27.55463715602619L34.9133416334788,-17.64604147364713L36.117249965667725,152.2797077692885L37.321158297856655,177.27334529714594L38.52506663004557,134.46409041456067L39.7289749622345,100.99155938351187L40.93288329442342,28.497921452903825L42.13679162661235,184.9335733382642L43.34069995880127,44.50565559249765L44.5446082909902,50.06382679787255L45.748516623179114,185.8966269221489L46.952424955368045,36.503458063097355L48.15633328755696,87.27026383072163L49.36024161974589,183.2980475670017L50.56414995193481,155.45572208085989L51.76805828412374,191.09282429059036L52.971966616312656,139.87322048301135L54.17587494850159,132.20988540913328L55.37978328069052,158.2040025537018L56.583691612879434,160.44419426879642L57.787599945068365,122.10009504090547L58.99150827725728,147.852846067338L60.19541660944621,100.37979638618863L61.39932494163513,103.91356849315031L62.60323327382406,169.0232270460669L63.807141606012976,96.10509792197627L65.01104993820191,184.3791593549265L67.41886660257975,182.1836444203014L68.62277493476867,136.71042386851514L69.8266832669576,158.91457582273063L71.03059159914652,67.70961512821044L72.23449993133545,190.02740738783828L73.43840826352437,170.4293356661115L74.64231659571331,193.44164462145596L75.84622492790223,177.4182999777925L77.05013326009114,147.44915481576442L78.25404159228006,154.79251674676667L79.457949924469,160.96568756749002L80.66185825665792,152.1354160830233L81.86576658884684,182.2833015166486L83.06967492103576,139.70114330494653L84.2735832532247,209.94545225244084L86.68139991760253,180.75387895528638L87.88530824979145,136.208470822406L89.0892165819804,195.7715394763453L90.29312491416931,174.62936288132056L91.49703324635823,178.86168093651148" fill="none"></path></g><g><path style="fill: none;" stroke="rgb(0, 119, 187)" stroke-width="2px" d="M24.07816664377848,50.47319569223899L25.282074975967404,-216.7288611834104L26.485983308156328,101.5969335258877L27.68989164034526,202.71498168972053L28.893799972534183,162.79920455629508L30.097708304723106,-10.844828129927919L31.30161663691203,-79.3143071458087L32.505524969100954,0.7792715413785061L33.70943330128988,159.46610879412037L34.9133416334788,202.73031494159432L36.117249965667725,75.85322333192796L37.321158297856655,47.87378759411513L38.52506663004557,180.85366865050986L39.7289749622345,-74.817469400519L40.93288329442342,147.28803512665658L42.13679162661235,221.84991717955992L43.34069995880127,139.57475849419902L44.5446082909902,195.18100435366807L45.748516623179114,84.81503892887329L46.952424955368045,12.914551935137865L48.15633328755696,72.30069451119614L49.36024161974589,116.6039921640669L50.56414995193481,105.29780432583253L51.76805828412374,149.07746298910283L52.971966616312656,147.96551894883513L54.17587494850159,176.41096138284541L55.37978328069052,200.36455058386932L56.583691612879434,149.71875937250374L57.787599945068365,152.91721905749415L58.99150827725728,194.6563286819441L60.19541660944621,118.99893279498689L61.39932494163513,155.60740314086615L62.60323327382406,130.17721696261833L63.807141606012976,32.36267240947146L65.01104993820191,159.75272126517172L66.21495827039082,197.26023610102857L67.41886660257975,143.70882982290848L68.62277493476867,127.54195292290751L69.8266832669576,217.31064553365667L71.03059159914652,81.89272845815243L72.23449993133545,103.30630180317685L73.43840826352437,198.47820801092595L74.64231659571331,107.14197744251214L75.84622492790223,124.86642101536303L77.05013326009114,161.63409439386592L78.25404159228006,213.4597895831969L79.457949924469,121.76648832266073L80.66185825665792,218.2805882318856L81.86576658884684,160.76953163893944L83.06967492103576,175.61572373132003L84.2735832532247,110.62971363052253L85.47749158541362,52.65107196270972L86.68139991760253,55.2282757762805L87.88530824979145,153.62902790696094L89.0892165819804,128.9669448283769L90.29312491416931,183.0379307623172L92.70094157854717,196.10154191604423L93.90484991073609,169.07993114733603" fill="none"></path></g><g><path style="fill: none;" stroke="rgb(255, 112, 67)" stroke-width="2px" d="M24.07816664377848,50.327421309448255L25.282074975967404,4.803141149466683L26.485983308156328,169.2366328829755L27.68989164034526,176.94739616400562L28.893799972534183,187.55105707411192L30.097708304723106,117.42141601848041L31.30161663691203,-51.35093998091074L32.505524969100954,-12.626908809184641L33.70943330128988,123.26574765328301L34.9133416334788,115.79359605009553L36.117249965667725,136.48210065802647L37.321158297856655,190.1335919652308L38.52506663004557,119.73081831976482L39.7289749622345,-54.16003512018611L40.93288329442342,4.156034524396631L42.13679162661235,82.4677374578631L43.34069995880127,160.472666863864L44.5446082909902,-18.46890188198762L45.748516623179114,172.98850603250997L46.952424955368045,1.8859417627037374L48.15633328755696,89.25582351283187L49.36024161974589,166.206784723602L50.56414995193481,166.8004600287581L51.76805828412374,197.33433476397528L52.971966616312656,145.34063378480303L54.17587494850159,127.83434549951977L55.37978328069052,149.80799841623153L56.583691612879434,131.91533508717086L57.787599945068365,154.21056438771691L58.99150827725728,166.24810132800252L60.19541660944621,204.40634966955642L61.39932494163513,186.1013083557213L62.60323327382406,112.70036562786636L63.807141606012976,184.02816410222582L65.01104993820191,204.74972350048256L66.21495827039082,143.1045044170995L67.41886660257975,172.98893999246866L68.62277493476867,196.72603741909995L69.8266832669576,100.11298333825262L71.03059159914652,167.20178258222379L72.23449993133545,204.33499037884894L84.2735832532247,194.18895983365408L85.47749158541362,94.01401364324401L86.68139991760253,170.91759486463525L87.88530824979145,211.1742942565813L89.0892165819804,173.13152597500735L90.29312491416931,201.58509913102145L91.49703324635823,108.80614155743751L92.70094157854717,196.94987034946047L93.90484991073609,141.82793887194617" fill="none"></path></g></g></g></g></g></g><g transform="translate(41, 176)" clip-path="url(#clip_1)"><clipPath id="clip_1"><rect width="288" height="23"></rect></clipPath><g><g><line x1="0" y1="0" x2="0" y2="5" style="visibility: inherit;" fill="rgb(0, 0, 0)" stroke="rgb(204, 204, 204)" stroke-width="1px"></line><line x1="24.07816664377848" y1="0" x2="24.07816664377848" y2="5" style="visibility: inherit;" fill="rgb(0, 0, 0)" stroke="rgb(204, 204, 204)" stroke-width="1px"></line><line x1="48.15633328755696" y1="0" x2="48.15633328755696" y2="5" style="visibility: inherit;" fill="rgb(0, 0, 0)" stroke="rgb(204, 204, 204)" stroke-width="1px"></line><line x1="72.23449993133545" y1="0" x2="72.23449993133545" y2="5" style="visibility: inherit;" fill="rgb(0, 0, 0)" stroke="rgb(204, 204, 204)" stroke-width="1px"></line><line x1="96.31266657511392" y1="0" x2="96.31266657511392" y2="5" style="visibility: inherit;" fill="rgb(0, 0, 0)" stroke="rgb(204, 204, 204)" stroke-width="1px"></line><line x1="120.39083321889242" y1="0" x2="120.39083321889242" y2="5" style="visibility: inherit;" fill="rgb(0, 0, 0)" stroke="rgb(204, 204, 204)" stroke-width="1px"></line><line x1="144.4689998626709" y1="0" x2="144.4689998626709" y2="5" style="visibility: inherit;" fill="rgb(0, 0, 0)" stroke="rgb(204, 204, 204)" stroke-width="1px"></line><line x1="168.5471665064494" y1="0" x2="168.5471665064494" y2="5" style="visibility: inherit;" fill="rgb(0, 0, 0)" stroke="rgb(204, 204, 204)" stroke-width="1px"></line><line x1="192.62533315022785" y1="0" x2="192.62533315022785" y2="5" style="visibility: inherit;" fill="rgb(0, 0, 0)" stroke="rgb(204, 204, 204)" stroke-width="1px"></line><line x1="216.70349979400635" y1="0" x2="216.70349979400635" y2="5" style="visibility: inherit;" fill="rgb(0, 0, 0)" stroke="rgb(204, 204, 204)" stroke-width="1px"></line><line x1="240.78166643778485" y1="0" x2="240.78166643778485" y2="5" style="visibility: inherit;" fill="rgb(0, 0, 0)" stroke="rgb(204, 204, 204)" stroke-width="1px"></line><line x1="264.8598330815633" y1="0" x2="264.8598330815633" y2="5" style="visibility: inherit;" fill="rgb(0, 0, 0)" stroke="rgb(204, 204, 204)" stroke-width="1px"></line><line x1="288.9379997253418" y1="0" x2="288.9379997253418" y2="5" style="visibility: inherit;" fill="rgb(0, 0, 0)" stroke="rgb(204, 204, 204)" stroke-width="1px"></line></g><g transform="translate(0, 8)"><text style="text-anchor: middle; visibility: hidden; font-family: &quot;Helvetica Neue&quot;, sans-serif; font-size: 12px; font-weight: 200;" x="0" y="0" dx="0em" dy="0.95em" fill="rgb(33, 33, 33)" stroke="none" stroke-width="1px">-200</text><text style="text-anchor: middle; visibility: inherit; font-family: &quot;Helvetica Neue&quot;, sans-serif; font-size: 12px; font-weight: 200;" x="24.07816664377848" y="0" dx="0em" dy="0.95em" fill="rgb(33, 33, 33)" stroke="none" stroke-width="1px">0</text><text style="text-anchor: middle; visibility: hidden; font-family: &quot;Helvetica Neue&quot;, sans-serif; font-size: 12px; font-weight: 200;" x="48.15633328755696" y="0" dx="0em" dy="0.95em" fill="rgb(33, 33, 33)" stroke="none" stroke-width="1px">200</text><text style="text-anchor: middle; visibility: inherit; font-family: &quot;Helvetica Neue&quot;, sans-serif; font-size: 12px; font-weight: 200;" x="72.23449993133545" y="0" dx="0em" dy="0.95em" fill="rgb(33, 33, 33)" stroke="none" stroke-width="1px">400</text><text style="text-anchor: middle; visibility: hidden; font-family: &quot;Helvetica Neue&quot;, sans-serif; font-size: 12px; font-weight: 200;" x="96.31266657511392" y="0" dx="0em" dy="0.95em" fill="rgb(33, 33, 33)" stroke="none" stroke-width="1px">600</text><text style="text-anchor: middle; visibility: inherit; font-family: &quot;Helvetica Neue&quot;, sans-serif; font-size: 12px; font-weight: 200;" x="120.39083321889242" y="0" dx="0em" dy="0.95em" fill="rgb(33, 33, 33)" stroke="none" stroke-width="1px">800</text><text style="text-anchor: middle; visibility: hidden; font-family: &quot;Helvetica Neue&quot;, sans-serif; font-size: 12px; font-weight: 200;" x="144.4689998626709" y="0" dx="0em" dy="0.95em" fill="rgb(33, 33, 33)" stroke="none" stroke-width="1px">1k</text><text style="text-anchor: middle; visibility: inherit; font-family: &quot;Helvetica Neue&quot;, sans-serif; font-size: 12px; font-weight: 200;" x="168.5471665064494" y="0" dx="0em" dy="0.95em" fill="rgb(33, 33, 33)" stroke="none" stroke-width="1px">1.2k</text><text style="text-anchor: middle; visibility: hidden; font-family: &quot;Helvetica Neue&quot;, sans-serif; font-size: 12px; font-weight: 200;" x="192.62533315022785" y="0" dx="0em" dy="0.95em" fill="rgb(33, 33, 33)" stroke="none" stroke-width="1px">1.4k</text><text style="text-anchor: middle; visibility: inherit; font-family: &quot;Helvetica Neue&quot;, sans-serif; font-size: 12px; font-weight: 200;" x="216.70349979400635" y="0" dx="0em" dy="0.95em" fill="rgb(33, 33, 33)" stroke="none" stroke-width="1px">1.6k</text><text style="text-anchor: middle; visibility: hidden; font-family: &quot;Helvetica Neue&quot;, sans-serif; font-size: 12px; font-weight: 200;" x="240.78166643778485" y="0" dx="0em" dy="0.95em" fill="rgb(33, 33, 33)" stroke="none" stroke-width="1px">1.8k</text><text style="text-anchor: middle; visibility: inherit; font-family: &quot;Helvetica Neue&quot;, sans-serif; font-size: 12px; font-weight: 200;" x="264.8598330815633" y="0" dx="0em" dy="0.95em" fill="rgb(33, 33, 33)" stroke="none" stroke-width="1px">2k</text><text style="text-anchor: middle; visibility: hidden; font-family: &quot;Helvetica Neue&quot;, sans-serif; font-size: 12px; font-weight: 200;" x="288.9379997253418" y="0" dx="0em" dy="0.95em" fill="rgb(33, 33, 33)" stroke="none" stroke-width="1px">2.2k</text></g><line x1="0" y1="0" x2="288.9379997253418" y2="0" fill="rgb(0, 0, 0)" stroke="rgb(204, 204, 204)" stroke-width="1px"></line></g></g></g></g></svg>