<svg viewBox="0 0 330 200" xmlns="http://www.w3.org/2000/svg"><g><g><g><g><g><line x1="72.1240005493164" y1="176.95999908447266" x2="67.1240005493164" y2="176.95999908447266" style="visibility: inherit;" fill="rgb(0, 0, 0)" stroke="rgb(204, 204, 204)" stroke-width="1px"></line><line x1="72.1240005493164" y1="162.21333249409994" x2="67.1240005493164" y2="162.21333249409994" style="visibility: inherit;" fill="rgb(0, 0, 0)" stroke="rgb(204, 204, 204)" stroke-width="1px"></line><line x1="72.1240005493164" y1="147.4666659037272" x2="67.1240005493164" y2="147.4666659037272" style="visibility: inherit;" fill="rgb(0, 0, 0)" stroke="rgb(204, 204, 204)" stroke-width="1px"></line><line x1="72.1240005493164" y1="132.7199993133545" x2="67.1240005493164" y2="132.7199993133545" style="visibility: inherit;" fill="rgb(0, 0, 0)" stroke="rgb(204, 204, 204)" stroke-width="1px"></line><line x1="72.1240005493164" y1="117.97333272298178" x2="67.1240005493164" y2="117.97333272298178" style="visibility: inherit;" fill="rgb(0, 0, 0)" stroke="rgb(204, 204, 204)" stroke-width="1px"></line><line x1="72.1240005493164" y1="103.22666613260904" x2="67.1240005493164" y2="103.22666613260904" style="visibility: inherit;" fill="rgb(0, 0, 0)" stroke="rgb(204, 204, 204)" stroke-width="1px"></line><line x1="72.1240005493164" y1="88.47999954223633" x2="67.1240005493164" y2="88.47999954223633" style="visibility: inherit;" fill="rgb(0, 0, 0)" stroke="rgb(204, 204, 204)" stroke-width="1px"></line><line x1="72.1240005493164" y1="73.7333329518636" x2="67.1240005493164" y2="73.7333329518636" style="visibility: inherit;" fill="rgb(0, 0, 0)" stroke="rgb(204, 204, 204)" stroke-width="1px"></line><line x1="72.1240005493164" y1="58.98666636149089" x2="67.1240005493164" y2="58.98666636149089" style="visibility: inherit;" fill="rgb(0, 0, 0)" stroke="rgb(204, 204, 204)" stroke-width="1px"></line><line x1="72.1240005493164" y1="44.239999771118164" x2="67.1240005493164" y2="44.239999771118164" style="visibility: inherit;" fill="rgb(0, 0, 0)" stroke="rgb(204, 204, 204)" stroke-width="1px"></line><line x1="72.1240005493164" y1="29.493333180745424" x2="67.1240005493164" y2="29.493333180745424" style="visibility: inherit;" fill="rgb(0, 0, 0)" stroke="rgb(204, 204, 204)" stroke-width="1px"></line><line x1="72.1240005493164" y1="14.74666659037274" x2="67.1240005493164" y2="14.74666659037274" style="visibility: inherit;" fill="rgb(0, 0, 0)" stroke="rgb(204, 204, 204)" stroke-width="1px"></line><line x1="72.1240005493164" y1="0" x2="67.1240005493164" y2="0" style="visibility: inherit;" fill="rgb(0, 0, 0)" stroke="rgb(204, 204, 204)" stroke-width="1px"></line></g><g transform="translate(62.124000549316406, 0)"><text style="text-anchor: end; visibility: hidden; font-family: &quot;Helvetica Neue&quot;, sans-serif; font-size: 12px; font-weight: 200;" x="0" y="176.95999908447266" dx="0em" dy="0.3em" fill="rgb(33, 33, 33)" stroke="none" stroke-width="1px">-1e+4</text><text style="text-anchor: end; visibility: inherit; font-family: &quot;Helvetica Neue&quot;, sans-serif; font-size: 12px; font-weight: 200;" x="0" y="162.21333249409994" dx="0em" dy="0.3em" fill="rgb(33, 33, 33)" stroke="none" stroke-width="1px">0</text><text style="text-anchor: end; visibility: hidden; font-family: &quot;Helvetica Neue&quot;, sans-serif; font-size: 12px; font-weight: 200;" x="0" y="147.4666659037272" dx="0em" dy="0.3em" fill="rgb(33, 33, 33)" stroke="none" stroke-width="1px">1e+4</text><text style="text-anchor: end; visibility: inherit; font-family: &quot;Helvetica Neue&quot;, sans-serif; font-size: 12px; font-weight: 200;" x="0" y="132.7199993133545" dx="0em" dy="0.3em" fill="rgb(33, 33, 33)" stroke="none" stroke-width="1px">2e+4</text><text style="text-anchor: end; visibility: hidden; font-family: &quot;Helvetica Neue&quot;, sans-serif; font-size: 12px; font-weight: 200;" x="0" y="117.97333272298178" dx="0em" dy="0.3em" fill="rgb(33, 33, 33)" stroke="none" stroke-width="1px">3e+4</text><text style="text-anchor: end; visibility: inherit; font-family: &quot;Helvetica Neue&quot;, sans-serif; font-size: 12px; font-weight: 200;" x="0" y="103.22666613260904" dx="0em" dy="0.3em" fill="rgb(33, 33, 33)" stroke="none" stroke-width="1px">4e+4</text><text style="text-anchor: end; visibility: hidden; font-family: &quot;Helvetica Neue&quot;, sans-serif; font-size: 12px; font-weight: 200;" x="0" y="88.47999954223633" dx="0em" dy="0.3em" fill="rgb(33, 33, 33)" stroke="none" stroke-width="1px">5e+4</text><text style="text-anchor: end; visibility: inherit; font-family: &quot;Helvetica Neue&quot;, sans-serif; font-size: 12px; font-weight: 200;" x="0" y="73.7333329518636" dx="0em" dy="0.3em" fill="rgb(33, 33, 33)" stroke="none" stroke-width="1px">6e+4</text><text style="text-anchor: end; visibility: hidden; font-family: &quot;Helvetica Neue&quot;, sans-serif; font-size: 12px; font-weight: 200;" x="0" y="58.98666636149089" dx="0em" dy="0.3em" fill="rgb(33, 33, 33)" stroke="none" stroke-width="1px">7e+4</text><text style="text-anchor: end; visibility: inherit; font-family: &quot;Helvetica Neue&quot;, sans-serif; font-size: 12px; font-weight: 200;" x="0" y="44.239999771118164" dx="0em" dy="0.3em" fill="rgb(33, 33, 33)" stroke="none" stroke-width="1px">8e+4</text><text style="text-anchor: end; visibility: hidden; font-family: &quot;Helvetica Neue&quot;, sans-serif; font-size: 12px; font-weight: 200;" x="0" y="29.493333180745424" dx="0em" dy="0.3em" fill="rgb(33, 33, 33)" stroke="none" stroke-width="1px">9e+4</text><text style="text-anchor: end; visibility: inherit; font-family: &quot;Helvetica Neue&quot;, sans-serif; font-size: 12px; font-weight: 200;" x="0" y="14.74666659037274" dx="0em" dy="0.3em" fill="rgb(33, 33, 33)" stroke="none" stroke-width="1px">1e+5</text><text style="text-anchor: end; visibility: hidden; font-family: &quot;Helvetica Neue&quot;, sans-serif; font-size: 12px; font-weight: 200;" x="0" y="0" dx="0em" dy="0.3em" fill="rgb(33, 33, 33)" stroke="none" stroke-width="1px">1.1e+5</text></g><line x1="72.1240005493164" y1="0" x2="72.1240005493164" y2="176.95999908447266" fill="rgb(0, 0, 0)" stroke="rgb(204, 204, 204)" stroke-width="1px"></line></g></g><g transform="translate(72, 0)" clip-path="url(#clip_0)"><clipPath id="clip_0"><rect width="257" height="176"></rect></clipPath><g><g><g><line x1="0" y1="0" x2="0" y2="176.95999908447266" fill="rgb(0, 0, 0)" stroke="rgb(66, 66, 66)" stroke-width="1px" opacity="0.25"></line><line x1="21.489666620890297" y1="0" x2="21.489666620890297" y2="176.95999908447266" fill="rgb(0, 0, 0)" stroke="rgb(66, 66, 66)" stroke-width="1px" opacity="0.25"></line><line x1="42.979333241780594" y1="0" x2="42.979333241780594" y2="176.95999908447266" fill="rgb(0, 0, 0)" stroke="rgb(66, 66, 66)" stroke-width="1px" opacity="0.25"></line><line x1="64.4689998626709" y1="0" x2="64.4689998626709" y2="176.95999908447266" fill="rgb(0, 0, 0)" stroke="rgb(66, 66, 66)" stroke-width="1px" opacity="0.25"></line><line x1="85.95866648356119" y1="0" x2="85.95866648356119" y2="176.95999908447266" fill="rgb(0, 0, 0)" stroke="rgb(66, 66, 66)" stroke-width="1px" opacity="0.25"></line><line x1="107.4483331044515" y1="0" x2="107.4483331044515" y2="176.95999908447266" fill="rgb(0, 0, 0)" stroke="rgb(66, 66, 66)" stroke-width="1px" opacity="0.25"></line><line x1="128.9379997253418" y1="0" x2="128.9379997253418" y2="176.95999908447266" fill="rgb(0, 0, 0)" stroke="rgb(66, 66, 66)" stroke-width="1px" opacity="0.25"></line><line x1="150.42766634623212" y1="0" x2="150.42766634623212" y2="176.95999908447266" fill="rgb(0, 0, 0)" stroke="rgb(66, 66, 66)" stroke-width="1px" opacity="0.25"></line><line x1="171.91733296712238" y1="0" x2="171.91733296712238" y2="176.95999908447266" fill="rgb(0, 0, 0)" stroke="rgb(66, 66, 66)" stroke-width="1px" opacity="0.25"></line><line x1="193.4069995880127" y1="0" x2="193.4069995880127" y2="176.95999908447266" fill="rgb(0, 0, 0)" stroke="rgb(66, 66, 66)" stroke-width="1px" opacity="0.25"></line><line x1="214.896666208903" y1="0" x2="214.896666208903" y2="176.95999908447266" fill="rgb(0, 0, 0)" stroke="rgb(66, 66, 66)" stroke-width="1px" opacity="0.25"></line><line x1="236.38633282979328" y1="0" x2="236.38633282979328" y2="176.95999908447266" fill="rgb(0, 0, 0)" stroke="rgb(66, 66, 66)" stroke-width="1px" opacity="0.25"></line><line x1="257.8759994506836" y1="0" x2="257.8759994506836" y2="176.95999908447266" fill="rgb(0, 0, 0)" stroke="rgb(66, 66, 66)" stroke-width="1px" opacity="0.25"></line></g><g><line x1="0" y1="176.95999908447266" x2="257.8759994506836" y2="176.95999908447266" fill="rgb(0, 0, 0)" stroke="rgb(66, 66, 66)" stroke-width="1px" opacity="0.25"></line><line x1="0" y1="162.21333249409994" x2="257.8759994506836" y2="162.21333249409994" fill="rgb(0, 0, 0)" stroke="rgb(66, 66, 66)" stroke-width="1px" opacity="0.25"></line><line x1="0" y1="147.4666659037272" x2="257.8759994506836" y2="147.4666659037272" fill="rgb(0, 0, 0)" stroke="rgb(66, 66, 66)" stroke-width="1px" opacity="0.25"></line><line x1="0" y1="132.7199993133545" x2="257.8759994506836" y2="132.7199993133545" fill="rgb(0, 0, 0)" stroke="rgb(66, 66, 66)" stroke-width="1px" opacity="0.25"></line><line x1="0" y1="117.97333272298178" x2="257.8759994506836" y2="117.97333272298178" fill="rgb(0, 0, 0)" stroke="rgb(66, 66, 66)" stroke-width="1px" opacity="0.25"></line><line x1="0" y1="103.22666613260904" x2="257.8759994506836" y2="103.22666613260904" fill="rgb(0, 0, 0)" stroke="rgb(66, 66, 66)" stroke-width="1px" opacity="0.25"></line><line x1="0" y1="88.47999954223633" x2="257.8759994506836" y2="88.47999954223633" fill="rgb(0, 0, 0)" stroke="rgb(66, 66, 66)" stroke-width="1px" opacity="0.25"></line><line x1="0" y1="73.7333329518636" x2="257.8759994506836" y2="73.7333329518636" fill="rgb(0, 0, 0)" stroke="rgb(66, 66, 66)" stroke-width="1px" opacity="0.25"></line><line x1="0" y1="58.98666636149089" x2="257.8759994506836" y2="58.98666636149089" fill="rgb(0, 0, 0)" stroke="rgb(66, 66, 66)" stroke-width="1px" opacity="0.25"></line><line x1="0" y1="44.239999771118164" x2="257.8759994506836" y2="44.239999771118164" fill="rgb(0, 0, 0)" stroke="rgb(66, 66, 66)" stroke-width="1px" opacity="0.25"></line><line x1="0" y1="29.493333180745424" x2="257.8759994506836" y2="29.493333180745424" fill="rgb(0, 0, 0)" stroke="rgb(66, 66, 66)" stroke-width="1px" opacity="0.25"></line><line x1="0" y1="14.74666659037274" x2="257.8759994506836" y2="14.74666659037274" fill="rgb(0, 0, 0)" stroke="rgb(66, 66, 66)" stroke-width="1px" opacity="0.25"></line><line x1="0" y1="0" x2="257.8759994506836" y2="0" fill="rgb(0, 0, 0)" stroke="rgb(66, 66, 66)" stroke-width="1px" opacity="0.25"></line></g></g></g><g><g><line x1="0" y1="162.21333249409994" x2="257.8759994506836" y2="162.21333249409994" fill="rgb(0, 0, 0)" stroke="rgb(153, 153, 153)" stroke-width="1.5px"></line></g></g><g><g><line x1="21.489666620890297" y1="0" x2="21.489666620890297" y2="176.95999908447266" fill="rgb(0, 0, 0)" stroke="rgb(153, 153, 153)" stroke-width="1.5px"></line></g></g><g><g><g><g><g><path style="fill: none;" stroke="rgb(0, 153, 136)" stroke-width="2px" d="M21.489666620890297,161.49743425992938L22.564149951934812,160.8932673425876L23.638633282979328,161.0477394511663L24.713116614023846,159.4419502271651L25.78759994506836,158.9586020348032L26.862083276112877,151.7287595485223L27.936566607157392,149.5365555906277L29.011049938201904,148.52145156411666L30.08553326924642,147.66491205237458L31.160016600290934,135.67807608196276L32.23449993133545,119.40707437306011L33.30898326237997,114.57117794581858L34.38346659342448,96.77823192298206L35.457949924469,65.63011435190607L36.53243325551351,65.2390745988726L37.60691658655803,61.905407840042386L38.68139991760254,65.49165378741937L39.75588324864706,54.707896360902296L40.830366579691564,29.352335720882024L41.90484991073608,14.081112090014813L42.979333241780594,18.36494143463466L44.05381657282511,18.13874908813719L45.128299903869625,9.467249239447085L46.20278323491414,16.75935705086559L47.277266565958655,18.13051156954998L48.351749897003174,24.00804544840662L49.42623322804769,26.68305177791001L50.500716559092204,24.903820499459044L51.57519989013672,20.2255042687743L52.649683221181235,20.233657407459162L53.72416655222575,16.465977219610124L54.798649883270265,14.787689561773448L55.873133214314784,19.681892342471826L56.94761654535929,24.160496314471686L58.02209987640381,26.42286994661464L59.09658320744832,30.441398701632636L60.17106653849284,30.19381801972753L61.24554986953735,32.79073335890206L62.32003320058187,34.62849749835905L63.39451653162638,32.60041517222055L64.4689998626709,36.37969099415392L65.5434831937154,42.57718570593812L66.61796652475994,39.02075996734314L67.69244985580444,42.44053291638431L68.76693318684896,45.24899678728684L69.84141651789346,38.90495479986683L70.915899848938,42.939101775452144L71.9903831799825,48.30108079548066L73.06486651102702,54.013396108506456L74.13934984207152,52.140018017312386L75.21383317311606,55.74369329990169L76.28831650416056,43.700686595399986L77.36279983520508,48.551516269512945L78.43728316624959,38.033893102121795L79.51176649729412,21.868441558656485L80.58624982833862,-14.23476838194992L99.92694978713989,-4.2995816416295725L101.00143311818441,2.404553181875144L102.07591644922891,-4.433039180421872L103.15039978027345,1.6269359552872231L104.22488311131795,3.1731061874209843L105.29936644236247,3.018152323512453L106.37384977340697,8.41624335056619L107.4483331044515,8.487755725375763L108.52281643549601,9.50723955837833L109.59729976654053,12.893011481610444L110.67178309758503,2.022486418135827L111.74626642862957,3.683729008958238L112.82074975967407,4.189940375914347L113.89523309071858,8.617438532649487L114.96971642176311,6.257935442919745L116.04419975280761,7.117170264681903L117.11868308385213,9.467348095126681L118.19316641489664,15.310442238491532L119.26764974594117,22.84606410355903L120.34213307698568,19.537399124536677L121.4166164080302,26.335374462479848L122.4910997390747,31.28866124861773L123.56558307011923,33.77657185023165L124.64006640116374,34.743850166514505L125.71454973220825,29.677382191116124L126.78903306325276,18.942970000196652L127.86351639429729,21.589932626761367L128.9379997253418,23.24411029146077L130.01248305638632,29.197554509416904L131.0869663874308,26.184604334509118L132.16144971847532,27.399286165141007L133.23593304951987,24.015592566042216L134.3104163805644,26.492986313820893L135.38489971160888,32.50855873298664L136.4593830426534,39.04510107838513L137.53386637369792,42.93851638734711L138.60834970474244,47.368179914190335L139.68283303578693,34.74627396322677L140.75731636683145,33.38377212834354L141.831799697876,33.405682847504806L142.9062830289205,38.607510726875546L143.980766359965,42.9059885886611L145.05524969100952,43.72130420745117L146.12973302205404,40.52864842986787L147.20421635309853,45.34920410800419L148.27869968414305,49.07293221010377L149.3531830151876,53.62507427035301L150.42766634623212,53.5783542016208L151.5021496772766,57.74413882068332L152.57663300832112,61.4726616826148L153.65111633936564,64.62669497455423L154.72559967041016,64.57445713984818L155.80008300145465,64.47730400150061L156.87456633249917,60.91102772998684L157.94904966354372,64.36925518135229L159.02353299458824,65.06701764812989L160.09801632563273,68.07295011455237L161.17249965667725,66.80449379660121L162.24698298772176,70.48657919539735L163.32146631876626,72.83361495027381L164.39594964981077,75.68103755760087L165.47043298085532,78.64711466647472L166.54491631189984,65.03934259806358L167.61939964294433,61.735798845363476L168.69388297398885,64.17319929801269L169.76836630503337,67.8787827039989L170.8428496360779,70.46859572518565L171.91733296712238,71.14527361648462L172.9918162981669,71.20150797552198L174.06629962921144,72.68328710947065L175.14078296025596,72.01290107520424L176.21526629130045,67.05386805322868L177.28974962234497,70.14250505114454L178.3642329533895,67.29774057881455L179.43871628443398,70.16093518067504L180.5131996154785,72.99808476215867L181.58768294652305,77.03932692380205L182.66216627756756,80.25169224978637L183.73664960861205,80.9974074358745L184.81113293965657,84.90961757887142L185.8856162707011,87.6016295466067L186.9600996017456,87.86023606345103L188.0345829327901,85.25600665414905L189.10906626383462,85.5413775618176L190.18354959487917,87.63115685160072L191.2580329259237,89.29994349705484L192.33251625696818,92.77272834550831L193.4069995880127,94.3626462028529L194.4814829190572,96.1004177795759L195.5559662501017,97.6235469809981L196.63044958114622,99.33887240014026L197.70493291219077,99.90932472285839L198.7794162432353,101.12567484994054L199.85389957427978,102.58244460020529L200.9283829053243,104.4064338055167L202.00286623636882,107.17299078026913L203.07734956741334,104.46543248297812L204.15183289845783,105.10189317824013L205.22631622950234,105.94531883151416L206.3007995605469,105.77142092769937L207.3752828915914,104.69017090510638L208.4497662226359,103.39627020348289L209.52424955368042,103.966611917588L210.59873288472494,101.49855735236366L211.67321621576943,102.4769355357624L212.74769954681395,104.43253202188725L213.8221828778585,105.62713430322167L214.896666208903,105.87552696450864L215.9711495399475,107.57422688201338L217.04563287099202,108.32186056790951L218.12011620203654,110.28881195782142L219.19459953308106,110.80708032431625L220.26908286412555,113.1080139360505L221.34356619517007,114.47059690620107L222.41804952621462,113.80772656061845L223.49253285725914,113.31037365349962L224.56701618830363,114.33628952189355L225.64149951934814,115.46078270867892L226.71598285039266,114.1899819872003L227.79046618143715,114.92628351407377L228.86494951248167,116.40781058426072L229.93943284352622,118.63282842904313L231.01391617457074,120.25609484741247L232.08839950561523,122.10106726913617L233.16288283665975,123.89156527594614L234.23736616770427,125.01950858605854" fill="none"></path></g><g><path style="fill: none;" stroke="rgb(238, 51, 119)" stroke-width="2px" d="M21.489666620890297,161.49461881129486L22.564149951934812,143.4786749912741L23.638633282979328,126.60262784291099L24.713116614023846,135.65020262924693L25.78759994506836,141.46954817915898L26.862083276112877,145.13872445346234L27.936566607157392,147.99411749811316L29.011049938201904,150.12511482335344L30.08553326924642,151.31884482587597L31.160016600290934,150.95531891684018L32.23449993133545,150.15660115740263L33.30898326237997,150.77920608015688L34.38346659342448,151.92009595536263L35.457949924469,152.81563508490038L36.53243325551351,153.62488705980724L37.60691658655803,154.30619425035763L38.68139991760254,154.5502058539424L39.75588324864706,155.070370214108L40.830366579691564,155.33102426705864L41.90484991073608,154.91684091180187L42.979333241780594,155.33040132641082L44.05381657282511,155.75885063752744L45.128299903869625,156.09485049589458L46.20278323491414,156.31223050714047L47.277266565958655,156.60791711989344L48.351749897003174,156.87801521397847L49.42623322804769,157.08209824437108L50.500716559092204,157.18329161544676L51.57519989013672,157.18721517819998L52.649683221181235,157.11015417520025L53.72416655222575,157.19939927897886L54.798649883270265,157.19611565826483L55.873133214314784,157.27127639065853L56.94761654535929,156.37336683559502L58.02209987640381,155.95217835442253L59.09658320744832,155.8293137416152L60.17106653849284,156.0333441436363L61.24554986953735,156.12028824175007L62.32003320058187,156.42018205355285L63.39451653162638,156.3065144756158L64.4689998626709,156.05737942441692L65.5434831937154,156.0111089611693L66.61796652475994,155.77188216694557L67.69244985580444,155.51730345572568L68.76693318684896,155.56452319146817L69.84141651789346,155.30933100019018L70.915899848938,155.56517748809785L71.9903831799825,155.86703777432166L73.06486651102702,155.8172812764059L74.13934984207152,155.9621618286342L75.21383317311606,156.2535609080431L76.28831650416056,156.09301402938024L77.36279983520508,156.15542304723567L78.43728316624959,156.4074875213933L79.51176649729412,156.5429025074919L80.58624982833862,156.70161780744354L81.66073315938313,156.69860526128434L82.73521649042766,156.9218329318581L83.80969982147217,156.98172831661202L84.88418315251668,156.4022409638928L85.95866648356119,155.92038028316625L87.03314981460572,156.11724796801562L88.10763314565023,156.18782508699272L89.18211647669474,156.0034501741043L90.25659980773925,156.2629101700061L91.33108313878378,156.46022328646822L92.40556646982829,156.53897491435274L93.4800498008728,156.54849624986412L94.55453313191731,156.67429415837L95.62901646296184,156.66116686829938L96.70349979400635,156.80952654149925L97.77798312505085,156.94253079244584L98.85246645609539,157.1576093470012L99.92694978713989,157.19738227703832L101.00143311818441,157.28286185740862L102.07591644922891,157.47137462929757L103.15039978027345,157.54917074813613L104.22488311131795,157.6399565641656L105.29936644236247,157.74411087502673L106.37384977340697,157.76540619900484L107.4483331044515,157.83461295919614L108.52281643549601,158.06295173560414L109.59729976654053,158.23491711277737L110.67178309758503,158.4104551915496L111.74626642862957,158.31571513302896L112.82074975967407,158.36830388275104L113.89523309071858,158.4178388944627L114.96971642176311,157.95990623331633L116.04419975280761,158.0052225500134L117.11868308385213,158.17177280646575L118.19316641489664,158.24211901998038L119.26764974594117,158.00090809952152L120.34213307698568,158.12327833265982L121.4166164080302,158.10670746112183L122.4910997390747,157.9683994698857L123.56558307011923,158.0239009214557L124.64006640116374,158.17038873280458L125.71454973220825,158.2743591943169L126.78903306325276,158.38648574278903L127.86351639429729,158.2899734147401L128.9379997253418,158.29113683155776L130.01248305638632,157.92333004506304L131.0869663874308,157.97168314519502L132.16144971847532,157.9532354404847L133.23593304951987,157.95200155944346L134.3104163805644,158.00865022796165L135.38489971160888,157.72647117916284L136.4593830426534,157.89916468444986L137.53386637369792,157.93100077224906L138.60834970474244,158.12978882799555L139.68283303578693,158.10111234089663L140.75731636683145,157.5488863152035L141.831799697876,157.7223946989567L142.9062830289205,157.60705354398772L143.980766359965,157.01795211591096L145.05524969100952,157.16533006662877L146.12973302205404,156.9567485416003L147.20421635309853,155.7267589905706L148.27869968414305,154.5797896921948L149.3531830151876,154.84987140909865L150.42766634623212,155.02215208435032L151.5021496772766,154.9394629890723L152.57663300832112,154.8771996967179L153.65111633936564,155.09322751683854L154.72559967041016,155.05202976143502L155.80008300145465,155.1799207338256L156.87456633249917,155.2507131724768L157.94904966354372,155.38691580394757L159.02353299458824,155.54578815276952L160.09801632563273,155.75853458272886L161.17249965667725,156.01586799311434L162.24698298772176,156.1235935447121L163.32146631876626,156.2262078915563L164.39594964981077,156.3619979299274L165.47043298085532,156.53909689202658L166.54491631189984,156.6039142498845L167.61939964294433,156.83269389757376L168.69388297398885,156.91218126898178L169.76836630503337,157.099980569718L170.8428496360779,157.1131053764979L171.91733296712238,157.28622197308275L172.9918162981669,157.4542516760348L174.06629962921144,157.3335102950673L175.14078296025596,157.34803775911502L176.21526629130045,157.58610891764454L177.28974962234497,157.36555048601966L178.3642329533895,157.22337383811183L179.43871628443398,157.0829879442597L180.5131996154785,157.12332619753226L181.58768294652305,156.31143209823256L182.66216627756756,156.3034239837304L183.73664960861205,156.2489066661615L184.81113293965657,156.35281817996994L185.8856162707011,156.583382724082L186.9600996017456,156.51095682653033L188.0345829327901,156.54633626392797L189.10906626383462,156.5216218259854L190.18354959487917,156.74596786581725L191.2580329259237,156.80198058723013L192.33251625696818,156.61924331943402L193.4069995880127,156.1480204310968L194.4814829190572,156.13946239759568L195.5559662501017,156.27050846899485L196.63044958114622,156.33402256812633L197.70493291219077,156.40389946076894L198.7794162432353,156.40256887144085L199.85389957427978,156.61856052418054L200.9283829053243,156.29530990334513L202.00286623636882,156.32213950901345L203.07734956741334,155.7637649850169L204.15183289845783,155.81525627294576L205.22631622950234,156.00176291778394L206.3007995605469,156.1070426110159L207.3752828915914,156.35924180722L208.4497662226359,156.61141921568083L209.52424955368042,156.70320696317538L210.59873288472494,156.78628896004125L211.67321621576943,157.0150351858245L212.74769954681395,156.95839046077703L213.8221828778585,157.16037936602635L214.896666208903,157.212954717271L215.9711495399475,157.1834337677569L217.04563287099202,157.1866348288656L218.12011620203654,157.1553241554744L219.19459953308106,157.18621318709992L220.26908286412555,157.21202664704393L221.34356619517007,157.31480341546688L222.41804952621462,157.5188787445073L223.49253285725914,157.70848373853767L224.56701618830363,157.7121566023403L225.64149951934814,157.82087330439214L226.71598285039266,157.80711418199851L227.79046618143715,157.35698332583826L228.86494951248167,157.05757488519686L229.93943284352622,157.2817208001474L231.01391617457074,157.2153623490394L232.08839950561523,157.21992327256422L233.16288283665975,157.3853128065876L234.23736616770427,157.24701034580556" fill="none"></path></g><g><path style="fill: none;" stroke="rgb(51, 187, 238)" stroke-width="2px" d="M21.489666620890297,160.78351589895823L22.564149951934812,159.42024076011242L23.638633282979328,144.22267217767632L24.713116614023846,148.9148638507332L25.78759994506836,148.47374931917795L26.862083276112877,151.06612811558873L27.936566607157392,152.8435081642423L29.011049938201904,154.13157682029396L30.08553326924642,155.12005213463556L31.160016600290934,154.9926304214664L32.23449993133545,154.5372546982912L33.30898326237997,155.24045992889342L34.38346659342448,155.87096252659362L35.457949924469,156.41304034387127L36.53243325551351,156.53866652727876L37.60691658655803,156.79011644663748L38.68139991760254,156.405389174883L39.75588324864706,156.70524330763297L40.830366579691564,156.03155127839995L41.90484991073608,156.0042468264089L42.979333241780594,156.12840986485654L44.05381657282511,156.0697489656637L45.128299903869625,156.38395995012516L46.20278323491414,156.53371216569428L47.277266565958655,156.69778030435728L48.351749897003174,156.83844170365282L49.42623322804769,156.90417674326594L50.500716559092204,156.68054548881972L51.57519989013672,156.82081544971777L52.649683221181235,156.9282070292597L53.72416655222575,156.92301492595917L54.798649883270265,156.91117497793616L55.873133214314784,157.0329861258309L56.94761654535929,155.20438877862864L58.02209987640381,154.89783911544708L59.09658320744832,154.54493644016557L60.17106653849284,154.70946114395275L61.24554986953735,154.96732437740957L62.32003320058187,155.21726186614129L63.39451653162638,154.90957732696353L64.4689998626709,154.8916739167922L65.5434831937154,155.02473899739044L66.61796652475994,155.3258132887188L67.69244985580444,155.30916963589075L68.76693318684896,155.46231053334543L69.84141651789346,155.38449151639455L70.915899848938,155.58568441572618L71.9903831799825,155.43079957435697L73.06486651102702,155.48534132535846L74.13934984207152,155.64931651100042L75.21383317311606,155.91043985347244L76.28831650416056,155.99770810174078L77.36279983520508,156.31293763541447L78.43728316624959,156.31988655435794L79.51176649729412,156.45762296707696L80.58624982833862,156.37558696873532L81.66073315938313,156.54619477550594L82.73521649042766,156.4968829851421L83.80969982147217,156.36576902428547L84.88418315251668,156.5836865985954L85.95866648356119,156.59886536522626L87.03314981460572,156.2133851650476L88.10763314565023,156.3063829815626L89.18211647669474,156.1632723149967L90.25659980773925,155.9711885286739L91.33108313878378,156.26715371560636L92.40556646982829,156.3186370058059L93.4800498008728,156.53742213177364L94.55453313191731,156.64997433260814L95.62901646296184,156.9106332825954L96.70349979400635,157.05301681337556L97.77798312505085,157.22506437872914L98.85246645609539,157.2911539129244L99.92694978713989,157.4411842463052L101.00143311818441,157.5998599935713L102.07591644922891,157.73123077408258L103.15039978027345,157.74180106625835L104.22488311131795,157.78986933814824L105.29936644236247,155.87956469767298L106.37384977340697,156.0129594565477L107.4483331044515,156.03034584778396L108.52281643549601,156.31842631630795L109.59729976654053,156.57628111526967L110.67178309758503,156.6795546368282L111.74626642862957,156.92549541978457L112.82074975967407,156.92526946749635L113.89523309071858,157.11668534542258L114.96971642176311,157.26932914722082L116.04419975280761,157.4587576173737L117.11868308385213,157.4020858048091L118.19316641489664,157.52329222141995L119.26764974594117,157.25524107555822L120.34213307698568,157.4333688424139L121.4166164080302,157.44690748456338L122.4910997390747,157.55991679284494L123.56558307011923,157.51639120560483L124.64006640116374,157.7097493224228L125.71454973220825,157.6164411176958L126.78903306325276,157.42299949598643L127.86351639429729,157.58278643315816L128.9379997253418,157.70391279499842L130.01248305638632,157.54127800756788L131.0869663874308,157.3831371390572L132.16144971847532,157.47999851442023L133.23593304951987,156.65220000993546L134.3104163805644,156.82517662994275L135.38489971160888,156.69606709636417L136.4593830426534,156.94966210005722L137.53386637369792,156.99715430390552L138.60834970474244,157.11371303772614L139.68283303578693,156.96579241008746L140.75731636683145,157.17256204813532L141.831799697876,157.13568751205042L142.9062830289205,157.146248215313L143.980766359965,157.0754647534987L145.05524969100952,157.32174557301684L146.12973302205404,157.12640514278743L147.20421635309853,156.90400704825961L148.27869968414305,156.64695675880333L149.3531830151876,156.82583763012147L150.42766634623212,156.93453009148715L151.5021496772766,156.37451120659205L152.57663300832112,156.31313126314933L153.65111633936564,156.53610500612737L154.72559967041016,156.74159304429568L155.80008300145465,156.5674465810846L156.87456633249917,155.90395320160164L157.94904966354372,156.0587037972644L159.02353299458824,156.07769407448254L160.09801632563273,156.15676987200104L161.17249965667725,156.345398912036L162.24698298772176,156.49818438452377L163.32146631876626,156.7315301655768L164.39594964981077,156.81969317127164L165.47043298085532,156.90939911740318L166.54491631189984,157.04111176560698L167.61939964294433,157.27367941172398L168.69388297398885,157.47734042633593L169.76836630503337,157.64489663715236L170.8428496360779,157.84625509465891L171.91733296712238,158.01163499607526L172.9918162981669,157.7337700799677L174.06629962921144,157.32510150982674L175.14078296025596,157.52910675506868L176.21526629130045,157.75919974199508L177.28974962234497,157.834981517883L178.3642329533895,157.69032587270604L179.43871628443398,157.3810167505137L180.5131996154785,157.4994753691591L181.58768294652305,157.4407111776178L182.66216627756756,157.29859223581448L183.73664960861205,157.42757076524106L184.81113293965657,157.4861431942178L185.8856162707011,157.6111394272513L186.9600996017456,157.50339844524632L188.0345829327901,157.70779171218985L189.10906626383462,157.80061534728114L190.18354959487917,157.95621191822977L191.2580329259237,158.06219737288316L192.33251625696818,158.12753049109273L193.4069995880127,157.7936891077512L194.4814829190572,157.5193558523361L195.5559662501017,157.41871761552773L196.63044958114622,157.63557023039579L197.70493291219077,157.57339692703482L198.7794162432353,157.70415544225304L199.85389957427978,157.57502629396305L200.9283829053243,157.57286806692358L202.00286623636882,157.67871899747956L203.07734956741334,157.74662176232565L204.15183289845783,157.6858543952823L205.22631622950234,157.80566924501534L206.3007995605469,157.85342823051914L207.3752828915914,158.0221735127284L208.4497662226359,158.22775154489716L209.52424955368042,158.35432176470337L210.59873288472494,158.44714644904684L211.67321621576943,158.44645945648415L212.74769954681395,158.35743661533752L213.8221828778585,158.47982651197253L214.896666208903,158.51891316484054L215.9711495399475,158.52659716388425L217.04563287099202,158.57746196963438L218.12011620203654,158.5804282510033L219.19459953308106,158.7039356061325L220.26908286412555,158.8312163739303L221.34356619517007,158.6184429373004L222.41804952621462,158.33594996783614L223.49253285725914,158.50044810679017L224.56701618830363,158.54358303755737L225.64149951934814,158.50442948752521L226.71598285039266,158.46879461718146L227.79046618143715,158.28623773363267L228.86494951248167,158.30436344599144L229.93943284352622,158.47753809169433L231.01391617457074,158.59471425695716L232.08839950561523,158.51619427462475L233.16288283665975,158.56339475212985L234.23736616770427,158.67721642667223" fill="none"></path></g><g><path style="fill: none;" stroke="rgb(204, 51, 17)" stroke-width="2px" d="M21.489666620890297,161.25811743572808L22.564149951934812,157.95787403523173L23.638633282979328,151.63708963301892L24.713116614023846,153.9890600641839L25.78759994506836,154.28736498383935L26.862083276112877,155.684703672752L27.936566607157392,156.75267777477416L29.011049938201904,157.38369855576883L30.08553326924642,157.5632727443148L31.160016600290934,158.06548727722944L32.23449993133545,158.40417591170032L33.30898326237997,158.62648506348225L34.38346659342448,158.90365509872188L35.457949924469,159.2177849523122L36.53243325551351,158.9824218621623L37.60691658655803,159.00885792257884L38.68139991760254,158.86061424410215L39.75588324864706,159.03063373866746L40.830366579691564,158.8375097479621L41.90484991073608,157.93964270918448L42.979333241780594,158.08438522990565L44.05381657282511,158.31145023454425L45.128299903869625,158.4678185048882L46.20278323491414,158.5180616689177L47.277266565958655,158.23749746643327L48.351749897003174,158.37826973838563L49.42623322804769,158.1857781410028L50.500716559092204,158.1619489128033L51.57519989013672,157.66780975787196L52.649683221181235,157.55894222340459L53.72416655222575,157.53604920474183L54.798649883270265,157.1746959847447L55.873133214314784,157.1231435607737L56.94761654535929,155.5795763794689L58.02209987640381,154.01053652985922L59.09658320744832,152.62681663362775L60.17106653849284,152.99828862193132L61.24554986953735,153.5130425638431L62.32003320058187,153.801400342204L63.39451653162638,154.2586622755841L64.4689998626709,153.78385948974028L65.5434831937154,153.6869566401725L66.61796652475994,153.82634283940286L67.69244985580444,154.0684563850971L68.76693318684896,154.44789014025838L69.84141651789346,154.63126135808724L70.915899848938,154.94061956435337L71.9903831799825,154.78218562935402L73.06486651102702,154.44372238174446L74.13934984207152,154.7613620863676L75.21383317311606,154.95809933194406L76.28831650416056,154.9841201174468L77.36279983520508,155.29209435204805L78.43728316624959,155.26337581682432L79.51176649729412,155.48276733863787L80.58624982833862,155.69033070341567L81.66073315938313,155.90409387580664L82.73521649042766,156.02680171035473L83.80969982147217,154.96206953132844" fill="none"></path></g><g><path style="fill: none;" stroke="rgb(0, 119, 187)" stroke-width="2px" d="M21.489666620890297,161.70861873938694L22.564149951934812,148.23322097756432L23.638633282979328,67.39515589058L24.713116614023846,92.74390806701265L25.78759994506836,105.51559566993782L26.862083276112877,116.14898399133713L27.936566607157392,123.8134124061238L29.011049938201904,129.4675901706837L30.08553326924642,133.84038693057033L31.160016600290934,136.63782522729065L32.23449993133545,139.62895223170358L33.30898326237997,141.34300578686572L34.38346659342448,143.4375516079547L35.457949924469,145.21166832706226L36.53243325551351,146.80387531818172L37.60691658655803,148.17053153599215L38.68139991760254,149.31776898338038L39.75588324864706,150.15585905894196L40.830366579691564,150.7000004831205L41.90484991073608,151.49442820249658L42.979333241780594,152.1620740320379L44.05381657282511,152.80241654885137L45.128299903869625,153.3951512650538L46.20278323491414,153.96019008521512L47.277266565958655,154.06127660239102L48.351749897003174,154.1983389439119L49.42623322804769,154.60653759750716L50.500716559092204,154.83696041863016L51.57519989013672,154.64007745767205L52.649683221181235,154.94545123184903L53.72416655222575,155.14898703440284L54.798649883270265,155.19867223083816L55.873133214314784,155.27254070258832L56.94761654535929,154.34490063932088L58.02209987640381,154.01535452702575L59.09658320744832,153.78970672902872L60.17106653849284,154.19204924755147L61.24554986953735,154.6513646426012L62.32003320058187,155.04965355509995L63.39451653162638,155.3927784827567L64.4689998626709,155.07132715818202L65.5434831937154,155.380119495234L66.61796652475994,155.28799602494865L67.69244985580444,155.36174682783374L68.76693318684896,155.55479196169702L69.84141651789346,155.60877570941125L70.915899848938,155.81273788739247L71.9903831799825,155.8910909606976L73.06486651102702,156.13519198456095L74.13934984207152,156.40204416982658L75.21383317311606,156.7014847894901L76.28831650416056,156.9729940814638L77.36279983520508,157.21165823201588L78.43728316624959,156.63378776932166L79.51176649729412,156.68111359611603L80.58624982833862,156.62197145960744L81.66073315938313,156.86562908308576L82.73521649042766,156.93221076227462L83.80969982147217,157.0942193900478" fill="none"></path></g><g><path style="fill: none;" stroke="rgb(255, 112, 67)" stroke-width="2px" d="M21.489666620890297,160.92811414739634L22.564149951934812,156.5601884572443L23.638633282979328,151.33497542743072L24.713116614023846,153.67131689267868L25.78759994506836,150.55163638340662L26.862083276112877,152.35715137599226L27.936566607157392,153.99609508617112L29.011049938201904,155.0301258053722L30.08553326924642,155.84311690375662L31.160016600290934,155.89082633138278L32.23449993133545,154.52944671662803L33.30898326237997,155.2821571729703L34.38346659342448,155.9332184388514L35.457949924469,156.5295507378329L36.53243325551351,156.83487792020716L37.60691658655803,156.91660702517768L38.68139991760254,156.5537784209334L39.75588324864706,156.7633962719389L40.830366579691564,156.990316470293L41.90484991073608,156.85246400786417L42.979333241780594,157.06429887205525L44.05381657282511,157.22941935362076L45.128299903869625,157.39800554522395L46.20278323491414,157.5684375754827L47.277266565958655,157.3954884356576L48.351749897003174,157.12254032471606L49.42623322804769,156.0802080517071L50.500716559092204,156.29907279789245L51.57519989013672,155.81339755908735L52.649683221181235,155.97085909948032L53.72416655222575,156.00405579584336L54.798649883270265,156.06676177486034L55.873133214314784,156.2672827648233L56.94761654535929,149.65757842960687L58.02209987640381,148.08195448175076L59.09658320744832,145.34439072075705L60.17106653849284,145.98038231282297L61.24554986953735,146.41001140547525L62.32003320058187,147.08705096917745L63.39451653162638,147.75361910529625L64.4689998626709,148.11363076998984L65.5434831937154,148.81415071147606L66.61796652475994,148.94301959693232L67.69244985580444,149.49621816466762L68.76693318684896,150.12547041951848L69.84141651789346,150.4304878614716L70.915899848938,150.94228954471728L71.9903831799825,151.16897924775031L73.06486651102702,150.97362716686837L74.13934984207152,151.37342255700088L75.21383317311606,151.94079980250217L76.28831650416056,152.2353890723685L77.36279983520508,152.67999581401045L78.43728316624959,152.7006045633882L79.51176649729412,152.80770551642837L80.58624982833862,153.25257519975608L81.66073315938313,153.49930447140625L82.73521649042766,153.6656182494435L83.80969982147217,154.07801735522568" fill="none"></path></g></g></g></g><g opacity="0.2"><g><g><g><path style="fill: none;" stroke="rgb(0, 153, 136)" stroke-width="2px" d="M21.489666620890297,161.49743425992938L22.564149951934812,160.32172543878227L23.638633282979328,161.33210962740256L24.713116614023846,155.12638119222362L25.78759994506836,157.2724992957037L26.862083276112877,121.03078618112195L27.936566607157392,138.6572521003456L29.011049938201904,142.7955166909149L30.08553326924642,142.2840132951237L31.160016600290934,53.101939933603006L32.23449993133545,-2.0218025520399294L33.30898326237997,75.85545315963451L34.38346659342448,-54.810295174764576L35.457949924469,-214.87513051331342L36.53243325551351,61.53779359829227L37.60691658655803,28.901749912972747L38.68139991760254,102.47123357401739L39.75588324864706,-60.685643644367644L41.90484991073608,-160.2723716291418L42.979333241780594,68.68537616547991L44.05381657282511,15.41125737860105L45.128299903869625,-97.65297916144527L46.20278323491414,108.87375809297636L47.277266565958655,35.8128328147173L48.351749897003174,101.27149431980774L49.42623322804769,62.479172405921915L50.500716559092204,0.697229308892787L51.57519989013672,-44.41202885356148L52.649683221181235,20.347934436393786L53.72416655222575,-37.055585099954385L54.798649883270265,-9.353384347442272L55.873133214314784,90.91012922758037L56.94761654535929,90.0573283465758L58.02209987640381,60.05341487680525L59.09658320744832,90.75325004089201L60.17106653849284,26.44445986318587L61.24554986953735,72.45136951057935L62.32003320058187,62.91813919531752L63.39451653162638,1.1483851398920137L64.4689998626709,95.39994196476837L65.5434831937154,139.99874656736353L66.61796652475994,-17.229993723358234L67.69244985580444,96.84417634271308L68.76693318684896,90.1717590230671L69.84141651789346,-63.09287567358015L70.915899848938,108.11291650316268L71.9903831799825,135.3213833051042L73.06486651102702,147.11708349928583L74.13934984207152,21.482874763855335L75.21383317311606,114.94105804596134L76.28831650416056,-154.8389623239189L77.36279983520508,128.79223906805032L78.43728316624959,-136.4997542937994L83.80969982147217,-77.30608160004616L84.88418315251668,0.4274574769551407L85.95866648356119,-34.150606989983714L87.03314981460572,-186.56922657642468L88.10763314565023,87.59654748430698L89.18211647669474,-53.28530551598769L90.25659980773925,114.54979038652728L91.33108313878378,27.731636481526493L92.40556646982829,132.51936976230914L93.4800498008728,16.282266936594738L94.55453313191731,4.142522978568081L95.62901646296184,-152.55302162741225L96.70349979400635,-100.88319039473333L97.77798312505085,49.56648422272751L98.85246645609539,147.11044461911183L99.92694978713989,79.44238395357704L101.00143311818441,117.9200546295074L102.07591644922891,-122.3544291169822L103.15039978027345,106.2266738358381L104.22488311131795,29.882691262064355L105.29936644236247,0.33933462324441166L106.37384977340697,101.80482249413183L107.4483331044515,9.725783762182289L108.52281643549601,27.16799123444258L109.59729976654053,71.58121825466455L110.67178309758503,-186.5131892433812L111.74626642862957,32.51158412346342L112.82074975967407,12.978840807852151L113.89523309071858,85.52556825543816L114.96971642176311,-34.74681011189918L116.04419975280761,22.055921010890586L117.11868308385213,50.34460130203516L118.19316641489664,116.98041834791042L119.26764974594117,154.01428091672722L120.34213307698568,-38.074648886348825L121.4166164080302,144.74388113135558L122.4910997390747,117.59284280307529L123.56558307011923,77.13772766341715L124.64006640116374,51.60698508717071L125.71454973220825,-58.672585404782495L126.78903306325276,-168.29218496265014L127.86351639429729,67.77048375354657L128.9379997253418,52.110341813733186L130.01248305638632,133.11001408217004L131.0869663874308,-26.414425050841288L132.16144971847532,48.608768873515714L133.23593304951987,-35.07738890185556L134.3104163805644,69.76559253489127L135.38489971160888,137.59922773602779L136.4593830426534,153.25420186206583L137.53386637369792,110.97553250918587L138.60834970474244,124.78651158356617L139.68283303578693,-185.8780457050006L140.75731636683145,9.565079658847054L141.831799697876,33.78876065852245L142.9062830289205,129.56389872030803L143.980766359965,118.07455188391643L145.05524969100952,57.98031005419742L146.12973302205404,-15.312616004111362L147.20421635309853,129.67059603746435L148.27869968414305,114.21388609139012L149.3531830151876,133.26402458137323L150.42766634623212,52.76093478953392L151.5021496772766,130.63420141268733L152.57663300832112,126.71608410483326L153.65111633936564,119.82084810925673L154.72559967041016,63.66026519147803L155.80008300145465,62.77697442521452L156.87456633249917,-1.5075701588670256L157.94904966354372,124.89973257256374L159.02353299458824,77.28075304809387L160.09801632563273,120.69156100579363L161.17249965667725,44.59933456092577L162.24698298772176,134.94645506746062L163.32146631876626,113.92318666581076L164.39594964981077,125.5326554703309L165.47043298085532,130.5778357358956L166.54491631189984,-173.2160508538425L167.61939964294433,3.8930623756920113L168.69388297398885,106.85158687427169L169.76836630503337,132.76454173499906L170.8428496360779,115.81806995809066L171.91733296712238,82.99467160186545L172.9918162981669,72.18625785570096L174.06629962921144,98.63207141679649L175.14078296025596,60.27292131316959L176.21526629130045,-19.791720126771423L177.28974962234497,124.23357207080188L178.3642329533895,17.476735409581664L179.43871628443398,120.30552956508248L180.5131996154785,122.6873063131767L181.58768294652305,147.8177978602439L182.66216627756756,136.5139594812259L183.73664960861205,94.05824300295983L184.81113293965657,153.43090552260998L185.8856162707011,134.75203236534148L186.9600996017456,92.38976136575863L188.0345829327901,39.64212737823922L189.10906626383462,90.53978628157974L190.18354959487917,124.23498913329455L191.2580329259237,118.5300769909347L192.33251625696818,153.60184372615268L193.4069995880127,122.21178391980355L194.4814829190572,126.53960222032964L195.5559662501017,124.30319822669166L196.63044958114622,129.38529988269036L197.70493291219077,109.90169292099152L198.7794162432353,122.43208529366379L199.85389957427978,128.10035254558824L200.9283829053243,136.35701404974623L202.00286623636882,155.63465371433358L203.07734956741334,57.037018788244325L204.15183289845783,116.2508529402266L205.22631622950234,120.71977264627267L206.3007995605469,102.72520458312009L207.3752828915914,85.74955053552935L208.4497662226359,80.73049375941281L209.52424955368042,113.95755043125799L210.59873288472494,58.26436771939447L211.67321621576943,119.61574559469285L212.74769954681395,138.68993382413487L213.8221828778585,126.5537843660896L214.896666208903,110.22679931514288L215.9711495399475,137.33164486241216L217.04563287099202,121.41875888223971L218.12011620203654,144.74555165218027L219.19459953308106,119.88604162454443L220.26908286412555,153.41556481305392L221.34356619517007,138.34024917229817L222.41804952621462,102.19558035669351L223.49253285725914,104.59774321926558L224.56701618830363,132.3083167373594L225.64149951934814,135.1597200923989L226.71598285039266,91.92798908689767L227.79046618143715,127.82489230222168L228.86494951248167,142.3613929718067L229.93943284352622,157.61102494043666L231.01391617457074,148.6927518635297L232.08839950561523,154.42164246019257L233.16288283665975,155.25787926315786L234.23736616770427,144.7790715165902" fill="none"></path></g><g><path style="fill: none;" stroke="rgb(238, 51, 119)" stroke-width="2px" d="M21.489666620890297,161.49461881129486L22.564149951934812,126.43559213753441L23.638633282979328,95.53524263073504L24.713116614023846,159.9656190024736L25.78759994506836,161.76964369317275L26.862083276112877,160.71807846602854L27.936566607157392,162.16464547518677L29.011049938201904,162.1455103499399L30.08553326924642,158.81802051947855L31.160016600290934,148.45102461998866L32.23449993133545,144.1958494935659L33.30898326237997,155.76372160949916L34.38346659342448,161.6400049317178L35.457949924469,160.88043778908178L36.53243325551351,161.28464271423667L37.60691658655803,161.05120840050296L38.68139991760254,157.0663318241141L39.75588324864706,160.63648270440643L40.830366579691564,158.21616318860796L41.90484991073608,150.1880573753248L42.979333241780594,160.18833057065729L44.05381657282511,160.92521440766524L45.128299903869625,160.24550288579118L46.20278323491414,159.05818957031934L47.277266565958655,160.421072824336L48.351749897003174,160.4286047491017L49.42623322804769,159.81307524935653L50.500716559092204,158.5600359400841L51.57519989013672,157.24142472815612L52.649683221181235,156.0300422318192L53.72416655222575,158.46716542298645L54.798649883270265,157.14888291483283L55.873133214314784,158.36513512338414L56.94761654535929,143.16179566297822L58.02209987640381,149.69114439482274L59.09658320744832,153.98530746114795L60.17106653849284,159.12317751073832L61.24554986953735,157.44811675768574L62.32003320058187,161.03660061395746L63.39451653162638,154.54372801034222L64.4689998626709,152.16668344451517L65.5434831937154,155.28376009505521L66.61796652475994,151.98811484908487L67.69244985580444,151.46732422157092L68.76693318684896,156.31982611117937L69.84141651789346,151.2064183908895L70.915899848938,159.69851514350393L71.9903831799825,160.76597029992791L73.06486651102702,155.0063117878969L74.13934984207152,158.333078764826L75.21383317311606,161.04035667562422L76.28831650416056,153.44625631289514L77.36279983520508,157.18777112752227L78.43728316624959,160.59034626747064L79.51176649729412,158.7967905039634L80.58624982833862,159.35081585526373L81.66073315938313,156.6481867807045L82.73521649042766,160.66723954897387L83.80969982147217,157.98907172363704L84.88418315251668,146.6342929002211L85.95866648356119,147.78081166512277L87.03314981460572,159.44938882480585L88.10763314565023,157.38465748783176L89.18211647669474,152.87127528592197L90.25659980773925,160.67806805217305L91.33108313878378,159.82319180106202L92.40556646982829,157.88322190777842L93.4800498008728,156.71125110199281L94.55453313191731,158.8275316873981L95.62901646296184,156.43618688727005L96.70349979400635,159.35521105315766L97.77798312505085,159.22731666286882L98.85246645609539,160.85624304913534L99.92694978713989,157.88203526195122L101.00143311818441,158.7557165731863L102.07591644922891,160.72247339390296L103.15039978027345,158.89199038953856L104.22488311131795,159.20825184395704L105.29936644236247,159.54471399944288L106.37384977340697,158.1338216330444L107.4483331044515,159.03272600860214L108.52281643549601,162.01851659854208L109.59729976654053,161.21572616967134L110.67178309758503,161.45494385170196L111.74626642862957,156.6716730794111L112.82074975967407,159.2813558513913L113.89523309071858,159.27828986963635L114.96971642176311,150.00169997654936L116.04419975280761,158.79309699682105L117.11868308385213,161.0686246601785L118.19316641489664,159.46614479672436L119.26764974594117,153.80228894386565L120.34213307698568,160.25404702376784L121.4166164080302,157.8180726756936L122.4910997390747,155.55857373165426L123.56558307011923,158.99122148668144L124.64006640116374,160.72419737859454L125.71454973220825,160.08741455164815L126.78903306325276,160.34225484362398L127.86351639429729,156.606159500974L128.9379997253418,158.31143903967757L130.01248305638632,151.50356588284174L131.0869663874308,158.81581463993268L132.16144971847532,157.63112123395248L133.23593304951987,157.93045300388823L134.3104163805644,158.99813182648944L135.38489971160888,152.79686798422358L136.4593830426534,160.91653516991718L137.53386637369792,158.48733300165816L138.60834970474244,161.604057141702L139.68283303578693,157.59986233307254L140.75731636683145,147.8950997713023L141.831799697876,160.75594240463474L142.9062830289205,155.5902596234174L143.980766359965,146.71618730344326L145.05524969100952,159.74281418754558L146.12973302205404,153.308545632618L147.20421635309853,134.21172256605354L148.27869968414305,134.51530804364955L149.3531830151876,159.57490506308875L150.42766634623212,158.0363935463089L151.5021496772766,153.49262550666566L152.57663300832112,153.78768772779534L153.65111633936564,158.87361646059716L154.72559967041016,154.33104550753632L155.80008300145465,157.41820975458526L156.87456633249917,156.48975480170645L157.94904966354372,157.77091466486985L159.02353299458824,158.3267127843902L160.09801632563273,159.4826440700765L161.17249965667725,160.520658007089L162.24698298772176,158.00947475933876L163.32146631876626,158.0226779942965L164.39594964981077,158.7393595101199L165.47043298085532,159.63978391561767L166.54491631189984,157.73878666112984L167.61939964294433,160.83846523330936L168.69388297398885,158.3039890208359L169.76836630503337,160.38839668095034L170.8428496360779,157.34293010979243L171.91733296712238,160.31769008691512L172.9918162981669,160.39670950219642L174.06629962921144,155.21909797820226L175.14078296025596,157.60244659998625L176.21526629130045,161.75535515971805L177.28974962234497,153.5029272917686L178.3642329533895,154.7334019689963L179.43871628443398,154.62433784065433L180.5131996154785,157.82980160401831L181.58768294652305,142.09188755913854L182.66216627756756,156.1631676204534L183.73664960861205,155.29406260021025L184.81113293965657,158.17279985224377L185.8856162707011,160.62170471555058L186.9600996017456,155.2424082241754L188.0345829327901,157.16601799417126L189.10906626383462,156.08873655703638L190.18354959487917,160.67553346885282L191.2580329259237,157.78308822535377L192.33251625696818,153.41842702007037L193.4069995880127,147.89403985464114L194.4814829190572,155.98955802369534L195.5559662501017,158.56595620828264L196.63044958114622,157.44656468542814L197.70493291219077,157.62790296118268L198.7794162432353,156.37926136998644L199.85389957427978,160.40203770757248L200.9283829053243,150.6329710748459L202.00286623636882,156.79211259050675L203.07734956741334,145.98269473171726L204.15183289845783,156.71723545482644L205.22631622950234,159.26883666590922L206.3007995605469,157.9512553084681L207.3752828915914,160.77709996490938L208.4497662226359,161.02891180784488L209.52424955368042,158.31109521480954L210.59873288472494,158.241679314127L211.67321621576943,161.0221136161483L212.74769954681395,155.9661095277229L213.8221828778585,160.69875460838114L214.896666208903,158.13395484267912L215.9711495399475,156.66629285027227L217.04563287099202,157.24271038114426L218.12011620203654,156.606828789382L219.19459953308106,157.72732343202247L220.26908286412555,157.66422454823433L221.34356619517007,159.1152410967169L222.41804952621462,161.09386527577055L223.49253285725914,161.02998486545653L224.56701618830363,157.77649794869515L225.64149951934814,159.72537884648995L226.71598285039266,157.56608072973168L227.79046618143715,149.47154291158387L228.86494951248167,151.81249918723302L229.93943284352622,161.20834257563402L231.01391617457074,156.05288372388856L232.08839950561523,157.2998223919165L233.16288283665975,160.2826408318881L234.23736616770427,154.8241969359745" fill="none"></path></g><g><path style="fill: none;" stroke="rgb(51, 187, 238)" stroke-width="2px" d="M21.489666620890297,160.78351589895823L22.564149951934812,158.13058247876427L23.638633282979328,116.24522501317239L24.713116614023846,161.52515964023843L25.78759994506836,146.934973687728L26.862083276112877,162.0733907774574L27.936566607157392,161.66415502843532L29.011049938201904,161.39723338764506L30.08553326924642,161.32978970960858L31.160016600290934,154.1148347495403L32.23449993133545,151.13883070243708L33.30898326237997,160.87025382250036L34.38346659342448,161.24258339218864L35.457949924469,161.29473730435373L36.53243325551351,157.72774718267132L37.60691658655803,159.27949757698687L38.68139991760254,152.43827340795383L39.75588324864706,159.91388650078812L40.830366579691564,148.57455963497455L41.90484991073608,155.6925084588259L42.979333241780594,157.58690355579583L44.05381657282511,155.36239914282544L45.128299903869625,160.26545138861766L46.20278323491414,158.4253923216401L47.277266565958655,158.813592559215L48.351749897003174,158.68751396025792L49.42623322804769,157.783823038501L50.500716559092204,153.63802346294466L51.57519989013672,158.75884267928993L52.649683221181235,158.43344214386406L53.72416655222575,156.84925880375278L54.798649883270265,156.7408650438969L55.873133214314784,158.80577603386482L56.94761654535929,128.2989573101857L58.02209987640381,150.34092947219014L59.09658320744832,149.2484174934674L60.17106653849284,157.2010208058391L61.24554986953735,158.9054658041824L62.32003320058187,159.0646772395566L63.39451653162638,150.13792518938624L64.4689998626709,154.61207967405107L65.5434831937154,157.1164564495058L66.61796652475994,160.08780103960189L67.69244985580444,155.04439318223112L68.76693318684896,157.91187458015622L69.84141651789346,154.13333792783L70.915899848938,158.83606394451542L71.9903831799825,152.91715196407003L73.06486651102702,156.37430453147041L74.13934984207152,158.33271009816124L75.21383317311606,160.19989784729015L76.28831650416056,157.43640259042863L77.36279983520508,161.527353998951L78.43728316624959,156.4351996958689L79.51176649729412,158.75014949053283L80.58624982833862,155.00628226576163L81.66073315938313,159.40151580226706L82.73521649042766,155.66950927535115L83.80969982147217,154.16064446284497L84.88418315251668,160.25694631346636L85.95866648356119,156.85526439812273L87.03314981460572,149.68882870733472L88.10763314565023,157.8834210021784L89.18211647669474,153.7320975470934L90.25659980773925,152.7025526826282L91.33108313878378,161.3115299989283L92.40556646982829,157.19742846601395L93.4800498008728,160.27726942338725L94.55453313191731,158.57648985015524L95.62901646296184,161.37789539897557L96.70349979400635,159.49615746746753L97.77798312505085,160.18054770774182L98.85246645609539,158.4276734466283L99.92694978713989,160.02381307150844L101.00143311818441,160.3339202408025L102.07591644922891,159.99685648180417L103.15039978027345,157.92425227540468L104.22488311131795,158.62023301399142L105.29936644236247,122.85452256751992L106.37384977340697,158.32072843155657L107.4483331044515,156.33134046398436L108.52281643549601,161.30891017944316L109.59729976654053,161.04587803497066L110.67178309758503,158.47070483898378L111.74626642862957,161.1933520814082L112.82074975967407,156.9213464576767L113.89523309071858,160.44168665528403L114.96971642176311,159.92205729176146L116.04419975280761,160.75218175263598L117.11868308385213,156.41637825456004L118.19316641489664,159.6322867333648L119.26764974594117,152.58942962071347L120.34213307698568,160.5350142254392L121.4166164080302,157.68272628641986L122.4910997390747,159.52894791912078L123.56558307011923,156.75779490839264L124.64006640116374,161.08067572180235L125.71454973220825,155.9893160861966L126.78903306325276,154.04889093998565L127.86351639429729,160.37052840858186L128.9379997253418,159.81762867869497L130.01248305638632,154.7026219027493L131.0869663874308,154.6223692182687L132.16144971847532,159.17128887051547L133.23593304951987,142.19548865235254L134.3104163805644,159.84655713101927L135.38489971160888,154.44055318795932L136.4593830426534,161.38057615286795L137.53386637369792,157.82707548684493L138.60834970474244,159.15083903142855L139.68283303578693,154.38021714400065L140.75731636683145,160.7872231770966L141.831799697876,156.49098861094487L142.9062830289205,157.33090704019318L143.980766359965,155.8376565570333L145.05524969100952,161.62893602113056L146.12973302205404,153.70979609408374L147.20421635309853,153.0138088750283L148.27869968414305,152.15025329616267L149.3531830151876,159.95532801815182L150.42766634623212,158.83622523618124L151.5021496772766,146.57568210104517L152.57663300832112,155.23907654320305L153.65111633936564,160.43804445185233L154.72559967041016,160.33775109787905L155.80008300145465,153.5196152187656L156.87456633249917,144.2911887092185L157.94904966354372,158.7673536948709L159.02353299458824,156.41010264066023L160.09801632563273,157.54098547465318L161.17249965667725,159.64747389181485L162.24698298772176,159.17290034706963L163.32146631876626,160.81671642027084L164.39594964981077,158.3632183447482L165.47043298085532,158.47999027057637L166.54491631189984,159.34723863653224L167.61939964294433,161.34577594585397L168.69388297398885,161.04340348599257L169.76836630503337,160.5788508160327L170.8428496360779,161.37218538598427L171.91733296712238,160.90762479545154L172.9918162981669,152.86792920390803L174.06629962921144,150.1685338832383L175.14078296025596,161.1017012425269L176.21526629130045,161.78872741345162L177.28974962234497,159.1621420489482L178.3642329533895,155.15693876237802L179.43871628443398,151.96392757967874L180.5131996154785,159.5741338873115L181.58768294652305,156.41151286265813L182.66216627756756,154.80948123162355L183.73664960861205,159.6865664192819L184.81113293965657,158.5120232274419L185.8856162707011,159.8004397754636L186.9600996017456,155.61630174698058L188.0345829327901,161.28780266278804L189.10906626383462,159.4264659668515L190.18354959487917,160.681586226634L191.2580329259237,159.91861742296416L192.33251625696818,159.2719019276121L193.4069995880127,151.94609476987517L194.4814829190572,152.7140749560061L195.5559662501017,155.65590389130696L196.63044958114622,161.43406018123707L197.70493291219077,156.48433388962513L198.7794162432353,159.9946099193158L199.85389957427978,155.313100057143L200.9283829053243,157.53506268627237L202.00286623636882,159.53290532535033L203.07734956741334,158.93607737824277L204.15183289845783,156.62138500219731L205.22631622950234,159.9044896411362L206.3007995605469,158.69003522261465L207.3752828915914,160.97814138574427L208.4497662226359,161.82894421223446L209.52424955368042,160.5715106051332L210.59873288472494,160.0732045038701L211.67321621576943,158.43442501495272L212.74769954681395,156.79796805401813L213.8221828778585,160.62381248800062L214.896666208903,159.2036220890982L215.9711495399475,158.6612036172951L217.04563287099202,159.4685015271809L218.12011620203654,158.6323910933556L219.19459953308106,160.86752221492986L220.26908286412555,161.06090957216503L221.34356619517007,154.8910897741701L222.41804952621462,153.38724516476293L223.49253285725914,161.38212723505393L224.56701618830363,159.2992221436166L225.64149951934814,157.81853530915475L226.71598285039266,157.8445399900098L227.79046618143715,155.08818674971286L228.86494951248167,158.62189201398283L229.93943284352622,161.5112375232857L231.01391617457074,160.64742623592534L232.08839950561523,157.14066640055242L233.16288283665975,159.3902624683409L234.23736616770427,160.6711699532504" fill="none"></path></g><g><path style="fill: none;" stroke="rgb(204, 51, 17)" stroke-width="2px" d="M21.489666620890297,161.25811743572808L22.564149951934812,154.83584377836215L23.638633282979328,140.00105649443492L24.713116614023846,160.30999597041847L25.78759994506836,155.3279662523786L26.862083276112877,161.61781576182938L27.936566607157392,162.05273862623775L29.011049938201904,160.94312084279395L30.08553326924642,158.6913824400556L31.160016600290934,161.52519388771546L32.23449993133545,160.93177570222764L33.30898326237997,160.4062708937485L34.38346659342448,161.2650289456207L35.457949924469,162.0466901437658L36.53243325551351,156.75465620137763L37.60691658655803,159.27057775183772L38.68139991760254,157.33199935919794L39.75588324864706,160.849957984552L40.830366579691564,156.69985051741637L41.90484991073608,147.68858163434993L42.979333241780594,159.78461789110534L44.05381657282511,161.04946470438568L45.128299903869625,160.3994572209322L46.20278323491414,159.15273672868435L47.277266565958655,154.61935940057592L48.351749897003174,160.2287994776745L49.42623322804769,155.6099141649824L50.500716559092204,157.83775025892513L51.57519989013672,150.84058081075096L52.649683221181235,156.0330196471684L53.72416655222575,157.21084375630915L54.798649883270265,151.97686547544515L55.873133214314784,156.37287054775388L56.94761654535929,132.8679930573805L58.02209987640381,130.68650887595837L59.09658320744832,131.8593383438489L60.17106653849284,158.62385487595185L61.24554986953735,161.37447281142818L62.32003320058187,158.24023884994176L63.39451653162638,161.34999968134645L64.4689998626709,146.36895226878138L65.5434831937154,152.1636916281244L66.61796652475994,156.03096605863735L67.69244985580444,157.92013285745725L68.76693318684896,160.51711985118283L69.84141651789346,157.57945533708437L70.915899848938,159.9384678186948L71.9903831799825,152.21093928543206L73.06486651102702,148.92718929981683L74.13934984207152,159.95941899404212L75.21383317311606,158.18989064837933L76.28831650416056,155.4130958495944L77.36279983520508,160.38649610348622L78.43728316624959,154.78680895179292L79.51176649729412,159.13438620143555L80.58624982833862,159.15487672346495L81.66073315938313,159.48167037965183L82.73521649042766,158.085644748528L83.80969982147217,137.05499797321843" fill="none"></path></g><g><path style="fill: none;" stroke="rgb(0, 119, 187)" stroke-width="2px" d="M21.489666620890297,161.70861873938694L22.564149951934812,135.48549469488015L23.638633282979328,-81.42093153709072L24.713116614023846,160.86884522061962L25.78759994506836,150.06811037985162L26.862083276112877,161.29844224232284L27.936566607157392,161.84985627975323L29.011049938201904,161.36132007012253L30.08553326924642,161.31089626309173L31.160016600290934,155.90910300458034L32.23449993133545,161.95143731186113L33.30898326237997,155.0655547927987L34.38346659342448,161.28221406857867L35.457949924469,161.18852611235764L36.53243325551351,161.87447987821795L37.60691658655803,161.7005744525633L38.68139991760254,161.1475094257209L39.75588324864706,159.12399296971847L40.830366579691564,156.7230167529736L41.90484991073608,160.56450953876316L42.979333241780594,160.00464330500606L44.05381657282511,160.52384891787977L45.128299903869625,160.71728460861078L46.20278323491414,161.09779883027494L47.277266565958655,155.36488188239593L48.351749897003174,156.0000995861408L49.42623322804769,160.06892775454327L50.500716559092204,157.9718822803666L51.57519989013672,151.9198618325109L52.649683221181235,159.22566882368463L53.72416655222575,158.0403030690751L54.798649883270265,155.91336139257913L55.873133214314784,156.34759239944717L56.94761654535929,140.69588370959013L58.02209987640381,149.11659899935773L59.09658320744832,150.403085087754L60.17106653849284,160.28511835108102L61.24554986953735,161.66612576597396L62.32003320058187,161.1807181376259L63.39451653162638,160.7140494146171L64.4689998626709,150.05128132264701L65.5434831937154,160.23418276703467L66.61796652475994,153.83091101403005L67.69244985580444,156.5350154753004L68.76693318684896,158.64264391491713L69.84141651789346,156.47671213836247L70.915899848938,159.10785660261448L71.9903831799825,157.16269387374575L73.06486651102702,160.11373731550935L74.13934984207152,160.7689820077574L75.21383317311606,161.62037847218394L76.28831650416056,161.44906561654355L77.36279983520508,161.15955688708434L78.43728316624959,147.04437408039115L79.51176649729412,157.46881897502655L80.58624982833862,155.63479988490573L81.66073315938313,160.94352416196503L82.73521649042766,158.04934584311687L83.80969982147217,159.8189422337012" fill="none"></path></g><g><path style="fill: none;" stroke="rgb(255, 112, 67)" stroke-width="2px" d="M21.489666620890297,160.92811414739634L22.564149951934812,152.42813075436047L23.638633282979328,141.7157971574385L24.713116614023846,159.9502498508604L25.78759994506836,139.66900159771535L26.862083276112877,160.02338356044297L27.936566607157392,162.1297205922803L29.011049938201904,160.86282117491513L30.08553326924642,160.95043855206598L31.160016600290934,156.21949189425052L32.23449993133545,144.36960526089612L33.30898326237997,161.30828517423805L34.38346659342448,161.47999063827484L35.457949924469,161.89983795230552L36.53243325551351,159.72486976966965L37.60691658655803,157.72573391705674L38.68139991760254,152.8124707927366L39.75588324864706,159.00644986811307L40.830366579691564,159.50206063442917L41.90484991073608,155.27858508075906L42.979333241780594,159.552638532605L44.05381657282511,159.22048912904998L45.128299903869625,159.4805739203476L46.20278323491414,159.72134655484413L47.277266565958655,155.16514735608553L48.351749897003174,153.53448573431368L49.42623322804769,142.13203478288918L50.500716559092204,159.27674607797766L51.57519989013672,149.10310954369834L52.649683221181235,158.17789098047265L53.72416655222575,156.4756295400608L54.798649883270265,156.96874640599916L55.873133214314784,159.18558370442588L56.94761654535929,52.404376520545284L58.02209987640381,124.66005315713709L59.09658320744832,104.25782679394086L60.17106653849284,155.61182950351414L61.24554986953735,152.9713970874873L62.32003320058187,157.50906664604227L63.39451653162638,158.09093173092253L64.4689998626709,153.73586629967804L65.5434831937154,159.82597876263614L66.61796652475994,150.98129410820005L67.69244985580444,158.29680758141993L68.76693318684896,160.19067001986394L69.84141651789346,155.33447768333448L70.915899848938,159.21072108255103L71.9903831799825,154.84795793454947L73.06486651102702,147.78962942288965L74.13934984207152,157.91592703326026L75.21383317311606,161.26107288948882L76.28831650416056,157.0919545173409L77.36279983520508,160.0345245662447L78.43728316624959,153.0425943970148L79.51176649729412,154.59032618067405L80.58624982833862,160.67812205607902L81.66073315938313,157.62860717211652L82.73521649042766,156.45609992753162L83.80969982147217,161.0139026822715" fill="none"></path></g></g></g></g></g></g><g transform="translate(72, 176)" clip-path="url(#clip_1)"><clipPath id="clip_1"><rect width="257" height="23"></rect></clipPath><g><g><line x1="0" y1="0" x2="0" y2="5" style="visibility: inherit;" fill="rgb(0, 0, 0)" stroke="rgb(204, 204, 204)" stroke-width="1px"></line><line x1="21.489666620890297" y1="0" x2="21.489666620890297" y2="5" style="visibility: inherit;" fill="rgb(0, 0, 0)" stroke="rgb(204, 204, 204)" stroke-width="1px"></line><line x1="42.979333241780594" y1="0" x2="42.979333241780594" y2="5" style="visibility: inherit;" fill="rgb(0, 0, 0)" stroke="rgb(204, 204, 204)" stroke-width="1px"></line><line x1="64.4689998626709" y1="0" x2="64.4689998626709" y2="5" style="visibility: inherit;" fill="rgb(0, 0, 0)" stroke="rgb(204, 204, 204)" stroke-width="1px"></line><line x1="85.95866648356119" y1="0" x2="85.95866648356119" y2="5" style="visibility: inherit;" fill="rgb(0, 0, 0)" stroke="rgb(204, 204, 204)" stroke-width="1px"></line><line x1="107.4483331044515" y1="0" x2="107.4483331044515" y2="5" style="visibility: inherit;" fill="rgb(0, 0, 0)" stroke="rgb(204, 204, 204)" stroke-width="1px"></line><line x1="128.9379997253418" y1="0" x2="128.9379997253418" y2="5" style="visibility: inherit;" fill="rgb(0, 0, 0)" stroke="rgb(204, 204, 204)" stroke-width="1px"></line><line x1="150.42766634623212" y1="0" x2="150.42766634623212" y2="5" style="visibility: inherit;" fill="rgb(0, 0, 0)" stroke="rgb(204, 204, 204)" stroke-width="1px"></line><line x1="171.91733296712238" y1="0" x2="171.91733296712238" y2="5" style="visibility: inherit;" fill="rgb(0, 0, 0)" stroke="rgb(204, 204, 204)" stroke-width="1px"></line><line x1="193.4069995880127" y1="0" x2="193.4069995880127" y2="5" style="visibility: inherit;" fill="rgb(0, 0, 0)" stroke="rgb(204, 204, 204)" stroke-width="1px"></line><line x1="214.896666208903" y1="0" x2="214.896666208903" y2="5" style="visibility: inherit;" fill="rgb(0, 0, 0)" stroke="rgb(204, 204, 204)" stroke-width="1px"></line><line x1="236.38633282979328" y1="0" x2="236.38633282979328" y2="5" style="visibility: inherit;" fill="rgb(0, 0, 0)" stroke="rgb(204, 204, 204)" stroke-width="1px"></line><line x1="257.8759994506836" y1="0" x2="257.8759994506836" y2="5" style="visibility: inherit;" fill="rgb(0, 0, 0)" stroke="rgb(204, 204, 204)" stroke-width="1px"></line></g><g transform="translate(0, 8)"><text style="text-anchor: middle; visibility: hidden; font-family: &quot;Helvetica Neue&quot;, sans-serif; font-size: 12px; font-weight: 200;" x="0" y="0" dx="0em" dy="0.95em" fill="rgb(33, 33, 33)" stroke="none" stroke-width="1px">-200</text><text style="text-anchor: middle; visibility: inherit; font-family: &quot;Helvetica Neue&quot;, sans-serif; font-size: 12px; font-weight: 200;" x="21.489666620890297" y="0" dx="0em" dy="0.95em" fill="rgb(33, 33, 33)" stroke="none" stroke-width="1px">0</text><text style="text-anchor: middle; visibility: hidden; font-family: &quot;Helvetica Neue&quot;, sans-serif; font-size: 12px; font-weight: 200;" x="42.979333241780594" y="0" dx="0em" dy="0.95em" fill="rgb(33, 33, 33)" stroke="none" stroke-width="1px">200</text><text style="text-anchor: middle; visibility: inherit; font-family: &quot;Helvetica Neue&quot;, sans-serif; font-size: 12px; font-weight: 200;" x="64.4689998626709" y="0" dx="0em" dy="0.95em" fill="rgb(33, 33, 33)" stroke="none" stroke-width="1px">400</text><text style="text-anchor: middle; visibility: hidden; font-family: &quot;Helvetica Neue&quot;, sans-serif; font-size: 12px; font-weight: 200;" x="85.95866648356119" y="0" dx="0em" dy="0.95em" fill="rgb(33, 33, 33)" stroke="none" stroke-width="1px">600</text><text style="text-anchor: middle; visibility: inherit; font-family: &quot;Helvetica Neue&quot;, sans-serif; font-size: 12px; font-weight: 200;" x="107.4483331044515" y="0" dx="0em" dy="0.95em" fill="rgb(33, 33, 33)" stroke="none" stroke-width="1px">800</text><text style="text-anchor: middle; visibility: hidden; font-family: &quot;Helvetica Neue&quot;, sans-serif; font-size: 12px; font-weight: 200;" x="128.9379997253418" y="0" dx="0em" dy="0.95em" fill="rgb(33, 33, 33)" stroke="none" stroke-width="1px">1k</text><text style="text-anchor: middle; visibility: inherit; font-family: &quot;Helvetica Neue&quot;, sans-serif; font-size: 12px; font-weight: 200;" x="150.42766634623212" y="0" dx="0em" dy="0.95em" fill="rgb(33, 33, 33)" stroke="none" stroke-width="1px">1.2k</text><text style="text-anchor: middle; visibility: hidden; font-family: &quot;Helvetica Neue&quot;, sans-serif; font-size: 12px; font-weight: 200;" x="171.91733296712238" y="0" dx="0em" dy="0.95em" fill="rgb(33, 33, 33)" stroke="none" stroke-width="1px">1.4k</text><text style="text-anchor: middle; visibility: inherit; font-family: &quot;Helvetica Neue&quot;, sans-serif; font-size: 12px; font-weight: 200;" x="193.4069995880127" y="0" dx="0em" dy="0.95em" fill="rgb(33, 33, 33)" stroke="none" stroke-width="1px">1.6k</text><text style="text-anchor: middle; visibility: hidden; font-family: &quot;Helvetica Neue&quot;, sans-serif; font-size: 12px; font-weight: 200;" x="214.896666208903" y="0" dx="0em" dy="0.95em" fill="rgb(33, 33, 33)" stroke="none" stroke-width="1px">1.8k</text><text style="text-anchor: middle; visibility: inherit; font-family: &quot;Helvetica Neue&quot;, sans-serif; font-size: 12px; font-weight: 200;" x="236.38633282979328" y="0" dx="0em" dy="0.95em" fill="rgb(33, 33, 33)" stroke="none" stroke-width="1px">2k</text><text style="text-anchor: middle; visibility: hidden; font-family: &quot;Helvetica Neue&quot;, sans-serif; font-size: 12px; font-weight: 200;" x="257.8759994506836" y="0" dx="0em" dy="0.95em" fill="rgb(33, 33, 33)" stroke="none" stroke-width="1px">2.2k</text></g><line x1="0" y1="0" x2="257.8759994506836" y2="0" fill="rgb(0, 0, 0)" stroke="rgb(204, 204, 204)" stroke-width="1px"></line></g></g></g></g></svg>